<svg xmlns="http://www.w3.org/2000/svg" viewBox="166.6 91.77 194.8 224"><g id="surface1"><path d="M352.941 189.176c0 49.039-39.902 88.941-88.941 88.941s-88.941-39.902-88.941-88.941c0-49.043 39.902-88.942 88.941-88.942s88.941 39.899 88.941 88.942M264 91.773c-53.703 0-97.402 43.692-97.402 97.403 0 53.703 43.699 97.402 97.402 97.402s97.402-43.7 97.402-97.402c0-53.711-43.699-97.403-97.402-97.403m0 0" style="stroke:none;fill-rule:nonzero;fill:#fff;fill-opacity:1"/><path d="m299.035 189.559-.062-.016.035-.055c2.351-3.617 3.324-7.8 2.805-12.097-1.102-9.07-9.012-15.91-18.407-15.91h-26.398v11.84l-.078-.09c-7.41-8.31-18.02-12.547-29.114-11.63-17.046 1.407-30.8 15.34-31.992 32.415-.691 9.828 2.625 19.195 9.328 26.386 6.618 7.09 15.957 11.16 25.625 11.16 17.008 0 31.88-12.652 34.586-29.437l.07-.441-.44.011c-4.61.102-8.774 2.7-10.868 6.774-5.016 9.765-15.324 15.312-26.262 14.125-12.472-1.348-22.476-11.832-23.265-24.383-.461-7.324 2.043-14.297 7.054-19.637 4.95-5.27 11.922-8.285 19.125-8.285 8.832 0 17.024 4.414 21.903 11.82 2.422 3.672 6.394 5.86 10.629 5.86h2.507v-17.68h17.657c5.078 0 9.316 3.82 9.644 8.691a9.26 9.26 0 0 1-2.5 7.012 9.37 9.37 0 0 1-6.812 2.969H272.57l.016.387a8.844 8.844 0 0 0 8.848 8.418h12.316c6.582 0 12.203 4.96 12.8 11.289.333 3.562-.8 6.976-3.202 9.605a12.5 12.5 0 0 1-9.239 4.094h-24.906a8.85 8.85 0 0 0-8.848 8.422l-.011.387h33.234c11.414 0 20.98-8.665 21.781-19.731.754-10.477-6.109-19.844-16.324-22.273m14.793-28.071-.387-.02v26.227c0 2.7 1.211 5.215 3.313 6.907a8.8 8.8 0 0 0 5.105 1.93l.391.019v-26.219a8.844 8.844 0 0 0-8.422-8.844m-9.378 2.918a7.7 7.7 0 0 0 4.44 1.739l.391.027V154.77c0-4.063-3.168-7.422-7.219-7.653l-.39-.02V158.5a7.65 7.65 0 0 0 2.777 5.906m14.301-9.73a7.58 7.58 0 0 0 2.3-5.465v-9.566l-.386.02a7.625 7.625 0 0 0-7.226 7.616v9.574l.386-.02a7.67 7.67 0 0 0 4.926-2.16m11.848 16.294a6.54 6.54 0 0 0 1.93-4.66v-8.786l-.4.028c-3.44.234-6.148 3.12-6.148 6.574v8.785l.399-.027a6.58 6.58 0 0 0 4.219-1.914M180.07 315.723q-4.909-.001-8.43-3.184l2.583-3.098q2.98 2.415 5.933 2.414 1.364.001 2.114-.496.754-.499.753-1.379v-.058q0-.851-.796-1.39-.793-.546-3.207-1.137-1.672-.43-2.75-.84a8.7 8.7 0 0 1-2.016-1.094 4.1 4.1 0 0 1-1.379-1.707c-.293-.684-.437-1.496-.437-2.445v-.055c0-1.8.64-3.25 1.93-4.352q1.927-1.647 5.023-1.648c2.8 0 5.257.844 7.379 2.531l-2.27 3.297q-2.865-1.962-5.168-1.96-1.247 0-1.902.483-.652.482-.653 1.25v.055q0 .968.809 1.438.81.47 3.48 1.18 3.236.879 4.766 2.187 1.535 1.307 1.535 3.781v.059q0 2.896-2.004 4.53-1.999 1.636-5.293 1.638m13.852-.286V295.54h4.371v19.899Zm11.89 0V295.54h4.032l9.312 12.25v-12.25h4.313v19.899h-3.719l-9.621-12.649v12.649Zm34.29.34q-4.37.001-7.282-2.957c-1.937-1.968-2.91-4.394-2.91-7.273v-.059q.001-4.32 2.926-7.304c1.95-1.993 4.426-2.985 7.437-2.985 3.176 0 5.79 1.024 7.832 3.07l-2.78 3.211q-2.527-2.245-5.083-2.246-2.466 0-4.113 1.805-1.648 1.806-1.649 4.39v.06c0 1.741.543 3.222 1.633 4.433q1.634 1.821 4.13 1.82 1.592 0 2.769-.57 1.176-.567 2.453-1.762l2.781 2.817q-1.645 1.787-3.531 2.671-1.888.88-4.613.88m14.191-.34V295.54h14.984v3.895h-10.64v4.035H268v3.894h-9.363v4.18h10.785v3.894Zm21.57 0V295.54h4.371v15.918h9.907v3.98Zm20.125 0V295.54h14.985v3.895h-10.641v4.035h9.363v3.894h-9.363v4.18h10.785v3.894Zm26.082.286c-2.668 0-4.832-.996-6.5-2.985l2.754-3.07q1.816 1.987 3.633 1.988 2.67.002 2.668-3.297v-12.82h4.484v13.02q-.001 3.44-1.87 5.316-1.846 1.847-5.169 1.848m31.266-2.942q-3.023 2.995-7.563 2.996-4.545.001-7.539-2.968-2.993-2.972-2.992-7.262v-.059q0-4.294 3.024-7.293 3.022-2.995 7.562-2.996t7.535 2.969q2.995 2.971 2.996 7.262v.058q0 4.294-3.023 7.293m-11.82-2.86q1.698 1.822 4.312 1.821 2.611 0 4.285-1.789 1.676-1.793 1.676-4.406v-.059q.001-2.615-1.703-4.433-1.705-1.821-4.313-1.82-2.612 0-4.289 1.792c-1.117 1.192-1.671 2.66-1.671 4.403v.058c0 1.742.566 3.223 1.703 4.434m0 0" style="stroke:none;fill-rule:nonzero;fill:#fff;fill-opacity:1"/></g></svg>