<?xml version="1.0" encoding="UTF-8"?>
<!DOCTYPE svg PUBLIC "-//W3C//DTD SVG 1.1//EN" "http://www.w3.org/Graphics/SVG/1.1/DTD/svg11.dtd">
<!-- Creator: CorelDRAW -->
<svg xmlns="http://www.w3.org/2000/svg" xml:space="preserve" width="215.9mm" height="279.4mm" version="1.1" style="shape-rendering:geometricPrecision; text-rendering:geometricPrecision; image-rendering:optimizeQuality; fill-rule:evenodd; clip-rule:evenodd"
viewBox="0 0 21590 27940"
 xmlns:xlink="http://www.w3.org/1999/xlink"
 xmlns:xodm="http://www.corel.com/coreldraw/odm/2003">
 <defs>
  <style type="text/css">
   <![CDATA[
    .fil0 {fill:black;fill-rule:nonzero}
    .fil1 {fill:#159C53;fill-rule:nonzero}
    .fil2 {fill:#5CC098;fill-rule:nonzero}
    .fil3 {fill:#6ABD50;fill-rule:nonzero}
   ]]>
  </style>
 </defs>
 <g id="Capa_x0020_1">
  <metadata id="CorelCorpID_0Corel-Layer"/>
  <g id="_2631870075296">
   <g>
    <path class="fil0" d="M9281.1 14284.91l-5.04 -1.23 2.69 -4.26c187.34,-288.19 264.88,-621.42 223.31,-963.73 -87.74,-722.61 -717.79,-1267.27 -1466.05,-1267.27l-2102.93 0 0 943.11 -6.27 -7.06c-590.16,-662.1 -1435.35,-999.7 -2319.19,-926.64 -1357.8,112.27 -2453.53,1222.22 -2548.32,2582.38 -55.02,782.66 209.08,1529.02 743.11,2101.81 526.85,564.84 1270.85,889 2041.19,889 1354.67,0 2539.36,-1007.99 2755.16,-2344.84l5.49 -35.19 -35.18 0.79c-367.18,8.29 -698.85,215.02 -865.69,539.51 -399.56,777.96 -1220.54,1219.88 -2091.84,1125.42 -993.64,-107.57 -1790.53,-942.78 -1853.39,-1942.48 -36.76,-583.44 162.8,-1138.75 562.03,-1564.09 394.08,-419.84 949.5,-660.08 1523.42,-660.08 703.66,0 1355.9,351.73 1744.82,941.55 192.84,292.45 509.15,466.79 846.64,466.79l199.67 0 0 -1408.34 1406.44 0c404.72,0 742.32,304.33 768.43,692.47 13.78,208.29 -56.92,406.4 -199.23,558.56 -140.39,150.26 -338.38,236.42 -542.76,236.42l-894.93 0 1.23 30.81c18.6,375.93 327.63,670.39 704.79,670.39l981.1 0c524.5,0 972.35,395.31 1019.75,899.31 26.56,283.81 -63.64,555.76 -254.91,765.18 -188.58,207.17 -456.6,326.17 -736.05,326.17l-1983.93 0c-376.71,0 -686.19,294.46 -704.79,670.72l-1.12 30.93 2647.6 0c909.16,0 1671.21,-690.22 1734.85,-1571.71 60.06,-834.43 -486.52,-1580.67 -1300.1,-1774.4z"/>
    <path class="fil0" d="M10459.29 12048.98l-30.81 -1.57 0 2089.15c0,215.02 96.47,415.36 263.98,550.15 117.1,93.68 257.38,146.68 406.74,153.85l30.93 1.57 0 -2088.7c0,-377.16 -294.92,-686.19 -670.84,-704.45z"/>
    <path class="fil1" d="M9712.26 12281.25c99.16,82.13 224.88,131.55 353.74,138.72l31.26 2.02 0 -908.38c0,-323.38 -252.56,-590.95 -575.14,-609.55l-31.27 -1.57 0 908.38c0,182.53 80.68,354.19 221.41,470.38z"/>
    <path class="fil2" d="M10851.35 11506.21c118.21,-115.41 183.42,-269.92 183.42,-435.2l0 -762.04 -30.81 1.57c-323.04,17.03 -575.59,283.37 -575.59,606.74l0 762.49 30.81 -1.56c147.12,-7.96 286.17,-68.8 392.17,-172z"/>
    <path class="fil3" d="M11795.14 12804.07c99.27,-99.16 153.73,-230.82 153.73,-371.1l0 -699.75 -31.6 2.02c-274.3,18.6 -489.77,248.64 -489.77,523.71l0 699.75 31.6 -2.02c126.5,-8.29 245.95,-62.41 336.04,-152.61z"/>
   </g>
   <g>
    <path class="fil0" d="M12443.59 16481.47l25.08 -82.18 0 0 5.18 1.51 5.19 1.55 5.18 1.6 5.13 1.64 5.18 1.7 5.1 1.73 5.12 1.78 5.15 1.85 5.06 1.86 5.09 1.92 5.06 1.97 5.07 2.01 5.05 2.07 5.03 2.09 5.03 2.16 4.98 2.18 5.03 2.25 4.99 2.29 4.93 2.32 4.96 2.37 4.95 2.42 4.93 2.47 4.92 2.51 4.92 2.55 4.91 2.61 4.85 2.64 4.86 2.68 4.89 2.76 4.82 2.77 4.81 2.81 4.82 2.87 4.8 2.91 -47.36 72.42 -4.2 -2.55 -4.18 -2.49 -4.23 -2.47 -4.22 -2.43 -4.19 -2.36 -4.24 -2.34 -4.25 -2.3 -4.23 -2.25 -4.22 -2.21 -4.26 -2.17 -4.27 -2.13 -4.25 -2.08 -4.28 -2.05 -4.33 -2.02 -4.27 -1.97 -4.27 -1.91 -4.34 -1.9 -4.29 -1.84 -4.33 -1.81 -4.33 -1.77 -4.31 -1.71 -4.36 -1.69 -4.35 -1.64 -4.38 -1.62 -4.33 -1.55 -4.38 -1.52 -4.4 -1.49 -4.36 -1.44 -4.43 -1.4 -4.4 -1.38 -4.39 -1.31 -4.44 -1.29 0 0zm-128.98 -20.23l0 -85.7 0 0 4.55 0.03 4.51 0.07 4.54 0.12 4.66 0.17 4.58 0.22 4.58 0.25 4.66 0.31 4.68 0.36 4.7 0.41 4.66 0.44 4.68 0.5 4.75 0.54 4.77 0.59 4.74 0.63 4.81 0.68 4.83 0.73 4.78 0.77 4.81 0.81 4.88 0.86 4.91 0.91 4.87 0.95 4.92 0.99 4.96 1.05 4.93 1.08 4.99 1.13 4.95 1.18 5.02 1.21 5.06 1.28 5.03 1.3 5.07 1.35 5.06 1.39 5.12 1.44 -25.08 82.18 -4.48 -1.26 -4.5 -1.23 -4.43 -1.19 -4.41 -1.14 -4.36 -1.1 -4.34 -1.05 -4.35 -1.02 -4.27 -0.97 -4.27 -0.94 -4.22 -0.89 -4.18 -0.85 -4.19 -0.81 -4.11 -0.77 -4.1 -0.72 -4.11 -0.69 -4.08 -0.65 -3.99 -0.61 -3.97 -0.56 -3.98 -0.53 -3.91 -0.49 -3.87 -0.44 -3.9 -0.4 -3.86 -0.38 -3.78 -0.33 -3.76 -0.28 -3.72 -0.25 -3.74 -0.21 -3.72 -0.18 -3.56 -0.13 -3.66 -0.08 -3.63 -0.07 -3.53 -0.01 0 0zm-119.01 26.51l-47.96 -72.04 0 0 4.25 -2.58 4.34 -2.5 4.41 -2.41 4.47 -2.32 4.59 -2.24 4.63 -2.13 4.63 -2.02 4.72 -1.95 4.84 -1.88 4.86 -1.77 4.88 -1.68 4.99 -1.6 5.06 -1.53 5.1 -1.43 5.11 -1.33 5.19 -1.26 5.32 -1.2 5.32 -1.09 5.37 -1.02 5.44 -0.93 5.47 -0.86 5.54 -0.78 5.55 -0.69 5.65 -0.64 5.76 -0.55 5.76 -0.48 5.81 -0.4 5.87 -0.32 5.92 -0.25 5.99 -0.18 6.03 -0.11 6.1 -0.04 0 85.7 -5.02 0.02 -4.93 0.09 -4.85 0.14 -4.76 0.21 -4.69 0.26 -4.59 0.32 -4.52 0.36 -4.38 0.43 -4.33 0.48 -4.31 0.55 -4.16 0.58 -4.09 0.64 -4 0.69 -3.91 0.74 -3.84 0.79 -3.68 0.82 -3.67 0.9 -3.63 0.95 -3.48 0.97 -3.38 1.01 -3.33 1.08 -3.28 1.12 -3.16 1.15 -3.04 1.18 -3.02 1.25 -2.99 1.3 -2.83 1.31 -2.73 1.34 -2.71 1.4 -2.63 1.43 -2.56 1.48 -2.51 1.52 0 0zm-33.22 55.48l-88.58 0 0 0 0.07 -4.82 0.21 -4.8 0.36 -4.8 0.5 -4.76 0.65 -4.67 0.79 -4.71 0.97 -4.74 1.11 -4.58 1.26 -4.6 1.43 -4.53 1.56 -4.49 1.75 -4.45 1.86 -4.34 2.07 -4.38 2.21 -4.25 2.33 -4.15 2.5 -4.11 2.62 -3.96 2.75 -3.91 2.91 -3.85 3.02 -3.72 3.17 -3.66 3.3 -3.56 3.41 -3.48 3.53 -3.36 3.61 -3.24 3.68 -3.13 3.85 -3.09 4.02 -3.04 4.01 -2.86 4.08 -2.76 4.25 -2.72 47.96 72.04 -2.33 1.5 -2.3 1.56 -2.17 1.54 -1.94 1.46 -1.89 1.53 -1.86 1.57 -1.73 1.56 -1.59 1.52 -1.51 1.52 -1.4 1.52 -1.33 1.54 -1.26 1.56 -1.17 1.53 -1.11 1.57 -1.04 1.6 -0.96 1.57 -0.91 1.61 -0.83 1.61 -0.75 1.58 -0.74 1.72 -0.67 1.71 -0.62 1.77 -0.57 1.81 -0.5 1.84 -0.47 1.96 -0.39 1.9 -0.35 2.03 -0.29 2.17 -0.24 2.16 -0.16 2.24 -0.11 2.32 -0.03 2.4 0 0zm20.31 56.55l-64.68 58.56 0.01 0.01 -2.71 -2.87 -2.68 -2.98 -2.56 -3.01 -2.48 -3.06 -2.4 -3.11 -2.31 -3.17 -2.21 -3.2 -2.16 -3.29 -2.11 -3.43 -1.96 -3.38 -1.86 -3.39 -1.79 -3.49 -1.72 -3.57 -1.6 -3.56 -1.5 -3.56 -1.46 -3.73 -1.31 -3.66 -1.24 -3.7 -1.18 -3.84 -1.04 -3.73 -0.96 -3.79 -0.89 -3.88 -0.8 -3.89 -0.69 -3.85 -0.62 -3.88 -0.54 -4.04 -0.44 -3.92 -0.36 -3.94 -0.29 -4.11 -0.19 -3.99 -0.12 -4.01 -0.04 -4.09 88.58 0 0.02 2.43 0.08 2.45 0.11 2.39 0.15 2.19 0.22 2.28 0.24 2.22 0.28 2.04 0.34 2.12 0.37 2.07 0.4 1.97 0.43 1.9 0.5 1.91 0.52 1.89 0.52 1.72 0.6 1.78 0.63 1.74 0.62 1.59 0.72 1.7 0.72 1.62 0.74 1.53 0.79 1.53 0.86 1.57 0.86 1.5 0.85 1.37 0.94 1.43 1.01 1.46 1.03 1.41 1.06 1.39 1.1 1.36 1.16 1.35 1.16 1.3 1.27 1.33 0.01 0.01zm64.08 42.3l-34.44 78.94 0 0.01 -3.4 -1.41 -3.41 -1.47 -3.32 -1.47 -3.26 -1.49 -3.34 -1.57 -3.29 -1.6 -3.19 -1.6 -3.25 -1.67 -3.21 -1.72 -3.07 -1.69 -3.13 -1.76 -3.13 -1.82 -3.04 -1.83 -3.04 -1.87 -3.04 -1.93 -2.96 -1.93 -2.93 -1.97 -2.94 -2.03 -2.88 -2.05 -2.84 -2.08 -2.84 -2.14 -2.78 -2.16 -2.74 -2.17 -2.71 -2.22 -2.72 -2.28 -2.64 -2.29 -2.62 -2.32 -2.57 -2.35 -2.55 -2.38 -2.55 -2.47 -2.47 -2.45 -2.46 -2.5 64.68 -58.56 1.6 1.64 1.65 1.63 1.63 1.57 1.69 1.58 1.71 1.57 1.74 1.54 1.76 1.53 1.74 1.46 1.81 1.48 1.84 1.47 1.86 1.44 1.84 1.38 1.92 1.4 1.92 1.37 1.92 1.33 1.99 1.33 2.02 1.33 2 1.27 2.06 1.27 2.1 1.25 2.09 1.22 2.13 1.2 2.25 1.23 2.17 1.16 2.19 1.13 2.31 1.16 2.25 1.1 2.28 1.07 2.4 1.09 2.4 1.07 2.37 1.01 2.44 1.01 0 0.01zm126.41 43.24l-26.22 81.84 -0.23 -0.07 -5.27 -1.61 -5.18 -1.6 -5.13 -1.59 -5.08 -1.59 -4.92 -1.54 -4.93 -1.56 -4.86 -1.55 -4.77 -1.52 -4.72 -1.53 -4.61 -1.5 -4.6 -1.5 -4.52 -1.5 -4.35 -1.45 -4.4 -1.46 -4.31 -1.47 -4.2 -1.42 -4.19 -1.45 -4.11 -1.42 -3.99 -1.41 -3.93 -1.38 -3.93 -1.4 -3.78 -1.37 -3.73 -1.35 -3.78 -1.38 -3.59 -1.35 -3.54 -1.32 -3.5 -1.34 -3.4 -1.31 -3.4 -1.32 -3.32 -1.31 -3.19 -1.29 -3.17 -1.28 34.44 -78.94 2.77 1.12 2.89 1.15 2.9 1.15 2.96 1.16 3.12 1.19 3.14 1.2 3.26 1.22 3.35 1.25 3.3 1.22 3.51 1.27 3.58 1.29 3.59 1.28 3.73 1.32 3.81 1.33 3.83 1.34 3.89 1.33 4.04 1.38 4.05 1.37 4.12 1.38 4.31 1.43 4.28 1.42 4.34 1.42 4.49 1.46 4.5 1.45 4.61 1.48 4.66 1.49 4.73 1.48 4.88 1.54 4.88 1.53 4.95 1.53 5.06 1.56 5.11 1.57 -0.23 -0.07zm-26.22 81.84l-0.05 -0.01 -0.18 -0.06 0.23 0.07zm200.09 -20.34l-36.66 78 0 0.01 -3.84 -1.69 -3.88 -1.66 -4.02 -1.69 -4.08 -1.71 -4.17 -1.7 -4.29 -1.75 -4.29 -1.71 -4.4 -1.73 -4.53 -1.75 -4.57 -1.76 -4.64 -1.75 -4.78 -1.78 -4.82 -1.78 -4.91 -1.78 -5.03 -1.81 -5.02 -1.79 -5.15 -1.8 -5.27 -1.83 -5.32 -1.83 -5.38 -1.83 -5.47 -1.84 -5.57 -1.85 -5.63 -1.85 -5.71 -1.86 -5.81 -1.87 -5.86 -1.86 -6 -1.89 -6.05 -1.9 -6.1 -1.89 -6.2 -1.9 -6.28 -1.91 -6.36 -1.92 26.22 -81.84 6.58 1.98 6.5 1.97 6.44 1.98 6.36 1.97 6.27 1.96 6.18 1.95 6.14 1.96 6.05 1.95 5.99 1.94 5.91 1.95 5.83 1.93 5.77 1.94 5.7 1.93 5.6 1.93 5.51 1.91 5.47 1.92 5.44 1.93 5.27 1.91 5.25 1.9 5.18 1.92 5.06 1.88 5.06 1.91 4.97 1.9 4.85 1.89 4.82 1.89 4.77 1.91 4.63 1.87 4.59 1.88 4.54 1.89 4.42 1.87 4.42 1.9 4.3 1.87 0 0.01zm126.5 96.96l-69.68 52.9 0 0 -2.48 -3.01 -2.49 -2.94 -2.55 -2.93 -2.56 -2.86 -2.55 -2.76 -2.62 -2.75 -2.67 -2.72 -2.65 -2.64 -2.7 -2.6 -2.72 -2.55 -2.74 -2.48 -2.78 -2.45 -2.81 -2.4 -2.85 -2.37 -2.87 -2.3 -2.86 -2.24 -2.94 -2.22 -2.95 -2.16 -2.97 -2.1 -2.99 -2.06 -3.06 -2.02 -3.11 -2 -3.11 -1.94 -3.11 -1.87 -3.2 -1.85 -3.21 -1.8 -3.2 -1.73 -3.29 -1.72 -3.29 -1.66 -3.36 -1.62 -3.4 -1.59 -3.39 -1.52 36.66 -78 4.65 2.08 4.54 2.13 4.52 2.18 4.53 2.28 4.43 2.3 4.46 2.41 4.37 2.46 4.32 2.51 4.31 2.59 4.25 2.64 4.17 2.68 4.16 2.76 4.15 2.84 4.09 2.9 4.03 2.96 3.98 3 3.96 3.08 3.89 3.14 3.85 3.19 3.79 3.24 3.76 3.31 3.74 3.4 3.66 3.43 3.62 3.48 3.59 3.56 3.49 3.58 3.48 3.65 3.47 3.76 3.38 3.78 3.31 3.79 3.31 3.9 3.24 3.95 0 0zm54.92 174.7l-88.58 0 0 0 -0.04 -5.07 -0.12 -4.98 -0.19 -4.94 -0.28 -4.82 -0.34 -4.72 -0.43 -4.65 -0.5 -4.58 -0.56 -4.47 -0.65 -4.39 -0.71 -4.33 -0.77 -4.17 -0.86 -4.12 -0.94 -4.12 -0.98 -3.96 -1.04 -3.84 -1.13 -3.82 -1.18 -3.71 -1.26 -3.65 -1.32 -3.59 -1.37 -3.47 -1.43 -3.41 -1.5 -3.32 -1.56 -3.27 -1.64 -3.2 -1.67 -3.11 -1.75 -3.05 -1.82 -3.02 -1.87 -2.92 -1.93 -2.86 -1.99 -2.8 -2.06 -2.74 -2.13 -2.7 69.68 -52.9 3.47 4.38 3.36 4.48 3.25 4.56 3.13 4.64 3.01 4.72 2.88 4.76 2.79 4.87 2.67 4.95 2.54 5 2.44 5.09 2.32 5.16 2.21 5.23 2.09 5.29 1.96 5.33 1.86 5.41 1.74 5.47 1.63 5.52 1.54 5.64 1.4 5.66 1.28 5.64 1.2 5.78 1.09 5.87 0.97 5.85 0.87 5.95 0.76 5.99 0.66 6.02 0.55 6.11 0.46 6.16 0.34 6.22 0.25 6.24 0.16 6.32 0.04 6.39 0 0zm-56.05 174.04l-71.82 -50.16 0.01 -0.01 2.42 -3.31 2.34 -3.35 2.26 -3.37 2.18 -3.39 2.1 -3.44 2.03 -3.45 1.95 -3.51 1.87 -3.52 1.77 -3.52 1.73 -3.62 1.63 -3.6 1.56 -3.64 1.49 -3.72 1.43 -3.76 1.31 -3.7 1.27 -3.84 1.2 -3.87 1.1 -3.84 1.04 -3.96 0.98 -4.01 0.87 -3.96 0.81 -4.1 0.75 -4.14 0.66 -4.14 0.59 -4.2 0.51 -4.29 0.44 -4.34 0.35 -4.3 0.28 -4.4 0.19 -4.48 0.12 -4.55 0.05 -4.55 88.58 0 -0.05 6.05 -0.16 5.97 -0.27 5.94 -0.36 5.96 -0.49 5.96 -0.6 5.84 -0.69 5.81 -0.81 5.82 -0.92 5.8 -1.03 5.7 -1.13 5.68 -1.27 5.72 -1.36 5.59 -1.46 5.56 -1.6 5.6 -1.7 5.47 -1.79 5.44 -1.95 5.48 -2.03 5.34 -2.13 5.3 -2.26 5.3 -2.37 5.24 -2.47 5.16 -2.59 5.16 -2.71 5.08 -2.79 5.01 -2.91 4.99 -3.02 4.92 -3.12 4.87 -3.24 4.83 -3.34 4.75 -3.44 4.71 0.01 -0.01zm-152.25 113.03l-34.22 -79.04 0 0 4.72 -1.95 4.69 -2.02 4.59 -2.05 4.48 -2.08 4.4 -2.12 4.35 -2.19 4.31 -2.25 4.16 -2.24 4.09 -2.3 4.04 -2.36 3.99 -2.41 3.87 -2.41 3.78 -2.48 3.78 -2.54 3.67 -2.57 3.57 -2.58 3.5 -2.64 3.45 -2.69 3.38 -2.74 3.31 -2.78 3.25 -2.82 3.18 -2.87 3.09 -2.88 3.04 -2.96 2.98 -3 2.88 -3.02 2.85 -3.09 2.76 -3.11 2.72 -3.18 2.65 -3.22 2.59 -3.29 2.53 -3.31 71.82 50.16 -3.51 4.61 -3.59 4.53 -3.67 4.46 -3.76 4.42 -3.86 4.35 -3.93 4.27 -4.04 4.22 -4.1 4.12 -4.18 4.06 -4.29 4.02 -4.34 3.91 -4.43 3.86 -4.51 3.78 -4.58 3.7 -4.67 3.65 -4.76 3.58 -4.85 3.52 -4.89 3.41 -4.94 3.34 -5.08 3.3 -5.15 3.23 -5.17 3.13 -5.26 3.06 -5.37 3.02 -5.44 2.94 -5.45 2.83 -5.55 2.79 -5.66 2.74 -5.72 2.66 -5.77 2.57 -5.81 2.5 -5.92 2.45 0 0zm-214.36 38.09l0 -85.7 0 0 6.48 -0.02 6.42 -0.11 6.43 -0.16 6.31 -0.21 6.26 -0.29 6.22 -0.34 6.14 -0.41 6.08 -0.47 6.06 -0.54 5.97 -0.58 5.91 -0.66 5.92 -0.73 5.8 -0.77 5.72 -0.83 5.72 -0.91 5.67 -0.96 5.58 -1.02 5.56 -1.09 5.47 -1.13 5.41 -1.2 5.39 -1.26 5.35 -1.33 5.25 -1.37 5.2 -1.43 5.18 -1.5 5.08 -1.55 5.05 -1.61 4.99 -1.67 4.96 -1.74 4.92 -1.79 4.84 -1.85 4.8 -1.9 34.22 79.04 -5.98 2.38 -6.04 2.29 -6.04 2.21 -6.12 2.14 -6.19 2.07 -6.23 1.99 -6.28 1.91 -6.3 1.82 -6.38 1.77 -6.43 1.67 -6.43 1.59 -6.47 1.52 -6.57 1.46 -6.61 1.37 -6.62 1.29 -6.7 1.22 -6.71 1.14 -6.76 1.07 -6.86 1.01 -6.88 0.91 -6.84 0.83 -6.97 0.78 -7.01 0.7 -7.02 0.62 -7.1 0.55 -7.14 0.47 -7.16 0.4 -7.24 0.33 -7.27 0.25 -7.25 0.18 -7.36 0.11 -7.4 0.04 0 0zm-236.82 -45.78l33.66 -79.26 0.01 0 6.21 2.43 6.24 2.36 6.23 2.28 6.22 2.18 6.27 2.13 6.26 2.05 6.22 1.94 6.3 1.89 6.29 1.82 6.23 1.71 6.32 1.65 6.32 1.59 6.29 1.49 6.3 1.41 6.32 1.34 6.36 1.27 6.36 1.19 6.34 1.11 6.34 1.03 6.37 0.96 6.4 0.88 6.38 0.81 6.39 0.72 6.44 0.65 6.41 0.57 6.47 0.5 6.46 0.43 6.45 0.35 6.44 0.26 6.5 0.19 6.52 0.12 6.5 0.03 0 85.7 -7.6 -0.05 -7.56 -0.14 -7.56 -0.21 -7.6 -0.32 -7.57 -0.41 -7.52 -0.49 -7.51 -0.58 -7.53 -0.67 -7.48 -0.77 -7.51 -0.84 -7.5 -0.95 -7.44 -1.02 -7.47 -1.12 -7.46 -1.21 -7.44 -1.31 -7.4 -1.39 -7.38 -1.47 -7.4 -1.56 -7.4 -1.67 -7.37 -1.75 -7.32 -1.83 -7.32 -1.91 -7.37 -2.03 -7.27 -2.1 -7.26 -2.17 -7.32 -2.3 -7.24 -2.37 -7.21 -2.43 -7.26 -2.56 -7.21 -2.64 -7.16 -2.7 -7.19 -2.81 0.01 0zm-207.28 -172.83l78.66 39.42 -8.94 -50.88 4.51 4.07 4.53 3.99 4.6 3.94 4.64 3.9 4.73 3.85 4.78 3.83 4.79 3.73 4.88 3.7 4.93 3.67 4.95 3.57 5.06 3.56 5.1 3.52 5.15 3.46 5.19 3.4 5.23 3.34 5.33 3.3 5.38 3.27 5.42 3.2 5.49 3.16 5.53 3.11 5.6 3.06 5.68 3.02 5.7 2.96 5.75 2.89 5.83 2.87 5.92 2.82 5.95 2.78 5.96 2.69 6.08 2.67 6.12 2.62 6.18 2.56 6.23 2.52 -33.66 79.26 -7.09 -2.86 -7.04 -2.92 -6.96 -2.98 -6.92 -3.03 -6.9 -3.13 -6.79 -3.16 -6.72 -3.22 -6.69 -3.27 -6.67 -3.37 -6.58 -3.42 -6.5 -3.46 -6.48 -3.54 -6.41 -3.59 -6.35 -3.66 -6.3 -3.72 -6.22 -3.77 -6.17 -3.84 -6.15 -3.92 -6.07 -3.98 -5.99 -4.02 -5.94 -4.08 -5.86 -4.14 -5.85 -4.23 -5.75 -4.27 -5.7 -4.32 -5.67 -4.43 -5.56 -4.43 -5.51 -4.51 -5.48 -4.58 -5.4 -4.64 -5.35 -4.71 -5.27 -4.75 -8.94 -50.88zm8.94 50.88l-24.31 -22.18 15.37 -28.7 8.94 50.88zm132.78 -129.21l-63.06 117.75 -78.66 -39.42 63.06 -117.75 70.34 -10.89 8.32 50.31zm-78.66 -39.42l27.56 -51.46 42.78 40.57 -70.34 10.89zm221.61 87.37l-34.58 78.9 0 0 -6.17 -2.58 -6.17 -2.65 -6.15 -2.73 -6.06 -2.78 -6.02 -2.85 -5.99 -2.91 -5.98 -2.99 -5.95 -3.08 -5.87 -3.11 -5.86 -3.2 -5.79 -3.26 -5.76 -3.31 -5.74 -3.4 -5.71 -3.47 -5.65 -3.54 -5.59 -3.58 -5.59 -3.67 -5.51 -3.72 -5.51 -3.8 -5.47 -3.89 -5.39 -3.92 -5.34 -3.97 -5.34 -4.06 -5.3 -4.14 -5.24 -4.19 -5.19 -4.25 -5.19 -4.34 -5.11 -4.38 -5.06 -4.43 -5.07 -4.55 -4.98 -4.57 -4.96 -4.64 62.02 -61.2 4.24 3.98 4.3 3.95 4.27 3.83 4.36 3.81 4.37 3.76 4.37 3.66 4.45 3.63 4.46 3.57 4.46 3.48 4.52 3.44 4.58 3.41 4.59 3.34 4.59 3.25 4.63 3.2 4.69 3.16 4.69 3.09 4.75 3.04 4.77 2.98 4.79 2.91 4.82 2.86 4.88 2.81 4.91 2.76 4.92 2.68 4.97 2.65 4.97 2.56 5.02 2.51 5.07 2.47 5.12 2.41 5.14 2.36 5.13 2.29 5.19 2.23 5.25 2.18 0 0zm160.9 34.19l0 85.7 0 0 -6.04 -0.05 -6.02 -0.12 -6.06 -0.2 -6.06 -0.29 -6.04 -0.37 -6.08 -0.44 -6.08 -0.54 -6.06 -0.6 -6.09 -0.69 -6.11 -0.78 -6.11 -0.85 -6.06 -0.93 -6.08 -1 -6.16 -1.1 -6.11 -1.18 -6.1 -1.25 -6.09 -1.32 -6.12 -1.41 -6.15 -1.49 -6.14 -1.57 -6.13 -1.65 -6.11 -1.71 -6.12 -1.8 -6.14 -1.87 -6.19 -1.97 -6.13 -2.03 -6.11 -2.09 -6.16 -2.19 -6.17 -2.27 -6.15 -2.34 -6.14 -2.4 -6.17 -2.49 34.58 -78.9 5.27 2.13 5.3 2.08 5.25 2 5.21 1.91 5.22 1.85 5.23 1.79 5.19 1.73 5.13 1.63 5.14 1.57 5.14 1.5 5.15 1.45 5.09 1.37 5.06 1.29 5.05 1.23 5.04 1.15 5.05 1.1 5.04 1.03 4.99 0.96 4.92 0.88 5 0.82 4.98 0.77 4.91 0.69 4.91 0.62 4.89 0.55 4.92 0.5 4.86 0.42 4.84 0.36 4.88 0.29 4.82 0.23 4.8 0.16 4.84 0.1 4.78 0.03 0 0zm137.17 -31.6l49.76 70.88 0 0.01 -4.68 2.99 -4.78 2.89 -4.85 2.78 -4.91 2.65 -5 2.57 -5.13 2.48 -5.15 2.34 -5.23 2.26 -5.38 2.17 -5.4 2.04 -5.45 1.95 -5.53 1.84 -5.61 1.75 -5.72 1.67 -5.75 1.55 -5.82 1.46 -5.93 1.37 -5.95 1.26 -5.99 1.17 -6.13 1.09 -6.19 0.99 -6.23 0.91 -6.3 0.8 -6.36 0.73 -6.43 0.63 -6.51 0.56 -6.6 0.46 -6.63 0.38 -6.71 0.29 -6.82 0.21 -6.85 0.12 -6.91 0.05 0 -85.7 5.83 -0.03 5.73 -0.1 5.6 -0.17 5.53 -0.25 5.43 -0.3 5.3 -0.38 5.23 -0.44 5.13 -0.51 5.04 -0.57 4.92 -0.64 4.83 -0.69 4.69 -0.75 4.59 -0.83 4.57 -0.89 4.43 -0.94 4.29 -0.99 4.22 -1.06 4.13 -1.11 3.98 -1.15 3.93 -1.23 3.83 -1.28 3.75 -1.33 3.64 -1.38 3.48 -1.41 3.45 -1.48 3.37 -1.54 3.23 -1.56 3.18 -1.63 3.11 -1.69 3.01 -1.72 2.9 -1.75 2.82 -1.81 0 0.01zm39.98 -70.25l88.58 0 0 0 -0.07 5.3 -0.22 5.27 -0.39 5.3 -0.53 5.22 -0.69 5.18 -0.85 5.14 -1.01 5.11 -1.18 5.12 -1.34 5.03 -1.5 4.97 -1.66 4.9 -1.82 4.87 -2.02 4.84 -2.16 4.74 -2.31 4.65 -2.47 4.56 -2.62 4.51 -2.81 4.46 -2.94 4.34 -3.08 4.23 -3.23 4.16 -3.34 4.02 -3.53 4 -3.64 3.85 -3.73 3.75 -3.92 3.69 -4 3.56 -4.12 3.46 -4.22 3.35 -4.38 3.31 -4.46 3.17 -4.56 3.07 -49.76 -70.88 2.74 -1.87 2.62 -1.85 2.46 -1.85 2.4 -1.91 2.26 -1.9 2.14 -1.9 2 -1.89 1.95 -1.95 1.82 -1.93 1.69 -1.92 1.64 -1.98 1.53 -1.96 1.44 -1.99 1.36 -2 1.25 -1.98 1.2 -2.05 1.13 -2.1 1.05 -2.11 0.98 -2.14 0.88 -2.14 0.84 -2.23 0.78 -2.3 0.7 -2.33 0.64 -2.39 0.56 -2.4 0.49 -2.53 0.43 -2.6 0.35 -2.66 0.29 -2.74 0.19 -2.76 0.12 -2.91 0.05 -2.98 0 0zm-20.61 -57.58l65.28 -57.92 0.01 0.01 2.7 2.91 2.62 2.99 2.56 3.04 2.46 3.1 2.38 3.15 2.28 3.17 2.19 3.22 2.15 3.32 2.08 3.43 1.94 3.4 1.85 3.42 1.79 3.51 1.7 3.57 1.57 3.53 1.51 3.61 1.45 3.75 1.31 3.65 1.23 3.71 1.17 3.86 1.03 3.73 0.97 3.79 0.88 3.88 0.79 3.89 0.69 3.87 0.62 3.88 0.54 4.04 0.44 3.93 0.37 3.95 0.28 4.1 0.19 3.99 0.12 4.01 0.04 4.09 -88.58 0 -0.02 -2.43 -0.08 -2.45 -0.11 -2.39 -0.16 -2.2 -0.21 -2.29 -0.24 -2.23 -0.28 -2.06 -0.34 -2.14 -0.37 -2.09 -0.41 -1.97 -0.44 -1.94 -0.49 -1.93 -0.53 -1.93 -0.53 -1.74 -0.61 -1.81 -0.63 -1.79 -0.63 -1.63 -0.71 -1.69 -0.75 -1.69 -0.76 -1.59 -0.79 -1.57 -0.87 -1.6 -0.88 -1.54 -0.88 -1.43 -0.95 -1.48 -1.03 -1.5 -1.06 -1.49 -1.08 -1.43 -1.12 -1.4 -1.16 -1.4 -1.22 -1.37 -1.28 -1.39 0.01 0.01zm-65.82 -43.33l34.14 -79.06 0.01 0 3.55 1.47 3.46 1.46 3.49 1.53 3.43 1.55 3.45 1.61 3.4 1.65 3.34 1.65 3.3 1.7 3.3 1.74 3.29 1.8 3.21 1.81 3.2 1.85 3.11 1.86 3.17 1.94 3.13 2 2.97 1.93 3.06 2.05 3.03 2.1 2.96 2.11 2.88 2.12 2.88 2.16 2.93 2.28 2.8 2.25 2.73 2.26 2.71 2.28 2.74 2.39 2.7 2.43 2.62 2.42 2.58 2.47 2.55 2.5 2.51 2.53 2.47 2.57 -65.28 57.92 -1.59 -1.65 -1.63 -1.65 -1.65 -1.62 -1.68 -1.59 -1.7 -1.58 -1.7 -1.53 -1.72 -1.49 -1.83 -1.56 -1.85 -1.52 -1.86 -1.49 -1.79 -1.4 -1.92 -1.44 -1.98 -1.46 -1.96 -1.39 -1.95 -1.36 -2 -1.33 -2.15 -1.41 -2.05 -1.3 -2.09 -1.28 -2.21 -1.32 -2.18 -1.27 -2.23 -1.25 -2.23 -1.22 -2.28 -1.2 -2.34 -1.2 -2.38 -1.19 -2.38 -1.15 -2.39 -1.11 -2.49 -1.13 -2.49 -1.09 -2.58 -1.1 -2.55 -1.05 0.01 0zm-128.39 -42.47l25.46 -82.08 -0.07 -0.02 5.29 1.53 5.23 1.53 5.09 1.5 5.08 1.5 5.07 1.52 4.96 1.49 4.83 1.47 4.83 1.47 4.8 1.49 4.68 1.46 4.61 1.45 4.56 1.44 4.52 1.45 4.47 1.44 4.37 1.43 4.3 1.42 4.22 1.41 4.16 1.4 4.16 1.41 4.03 1.39 3.99 1.38 3.97 1.4 3.83 1.36 3.86 1.38 3.73 1.37 3.66 1.35 3.65 1.37 3.56 1.35 3.49 1.34 3.39 1.32 3.44 1.35 3.31 1.34 -34.14 79.06 -2.89 -1.16 -2.92 -1.15 -3.09 -1.2 -3.11 -1.2 -3.2 -1.21 -3.23 -1.21 -3.36 -1.23 -3.41 -1.25 -3.44 -1.24 -3.59 -1.28 -3.57 -1.26 -3.71 -1.28 -3.79 -1.31 -3.8 -1.29 -3.94 -1.32 -4 -1.33 -4.06 -1.34 -4.13 -1.35 -4.17 -1.36 -4.24 -1.35 -4.34 -1.38 -4.43 -1.39 -4.48 -1.4 -4.52 -1.39 -4.61 -1.41 -4.73 -1.43 -4.76 -1.45 -4.77 -1.42 -4.9 -1.44 -5.03 -1.48 -5.01 -1.47 -5.09 -1.47 -0.07 -0.02zm0.07 0.02l-0.19 -0.05 0.12 0.03 0.07 0.02zm-172.86 -60.22l36.66 -78.02 0 0.01 3.8 1.66 3.88 1.65 4.05 1.71 4.03 1.68 4.12 1.68 4.24 1.71 4.32 1.71 4.4 1.73 4.44 1.71 4.52 1.71 4.6 1.72 4.73 1.74 4.79 1.75 4.88 1.75 4.91 1.75 5 1.75 5.11 1.76 5.19 1.77 5.28 1.79 5.3 1.77 5.38 1.77 5.47 1.77 5.59 1.8 5.65 1.79 5.73 1.81 5.82 1.81 5.82 1.79 5.95 1.81 6.05 1.82 6.09 1.81 6.19 1.83 6.26 1.82 -25.46 82.08 -6.5 -1.9 -6.41 -1.89 -6.37 -1.89 -6.27 -1.9 -6.21 -1.87 -6.18 -1.91 -6.04 -1.89 -5.99 -1.87 -5.91 -1.89 -5.83 -1.86 -5.81 -1.89 -5.74 -1.89 -5.66 -1.89 -5.54 -1.87 -5.49 -1.87 -5.41 -1.88 -5.38 -1.87 -5.31 -1.89 -5.2 -1.87 -5.13 -1.87 -5.05 -1.86 -5.04 -1.88 -4.96 -1.89 -4.9 -1.89 -4.78 -1.87 -4.72 -1.87 -4.64 -1.87 -4.62 -1.88 -4.55 -1.9 -4.39 -1.85 -4.42 -1.89 -4.34 -1.9 0 0.01zm-125.82 -96.32l69.78 -52.78 0 -0.01 2.42 2.96 2.48 2.94 2.44 2.81 2.51 2.78 2.59 2.81 2.57 2.71 2.55 2.62 2.64 2.61 2.66 2.57 2.7 2.52 2.72 2.47 2.72 2.4 2.79 2.37 2.81 2.33 2.81 2.26 2.88 2.24 2.93 2.21 2.91 2.13 2.94 2.07 3 2.06 3.04 2.02 3.07 1.96 3.06 1.91 3.15 1.88 3.16 1.83 3.21 1.79 3.25 1.77 3.21 1.66 3.34 1.68 3.35 1.63 3.36 1.56 3.43 1.53 -36.66 78.02 -4.59 -2.07 -4.6 -2.14 -4.51 -2.19 -4.46 -2.22 -4.51 -2.36 -4.39 -2.37 -4.35 -2.43 -4.32 -2.51 -4.27 -2.56 -4.26 -2.63 -4.19 -2.7 -4.14 -2.74 -4.1 -2.8 -4.08 -2.89 -4.03 -2.95 -3.93 -2.97 -3.92 -3.04 -3.89 -3.12 -3.83 -3.17 -3.77 -3.23 -3.76 -3.3 -3.68 -3.35 -3.64 -3.4 -3.58 -3.45 -3.54 -3.51 -3.55 -3.62 -3.43 -3.63 -3.35 -3.63 -3.37 -3.76 -3.34 -3.85 -3.22 -3.82 -3.22 -3.9 0 -0.01zm-54.12 -172.51l88.58 0 0 0 0.04 5.01 0.11 4.89 0.19 4.8 0.27 4.76 0.34 4.68 0.42 4.54 0.48 4.47 0.57 4.41 0.63 4.34 0.7 4.2 0.77 4.18 0.84 4.08 0.9 3.96 0.96 3.88 1.04 3.83 1.1 3.75 1.16 3.64 1.22 3.57 1.3 3.52 1.35 3.43 1.41 3.34 1.49 3.32 1.5 3.17 1.59 3.11 1.69 3.14 1.69 2.99 1.77 2.92 1.84 2.89 1.88 2.79 1.97 2.77 2.02 2.71 2.08 2.64 -69.78 52.78 -3.42 -4.34 -3.3 -4.41 -3.19 -4.49 -3.1 -4.61 -2.96 -4.65 -2.87 -4.76 -2.75 -4.83 -2.59 -4.82 -2.53 -4.97 -2.42 -5.07 -2.27 -5.06 -2.17 -5.16 -2.05 -5.21 -1.94 -5.28 -1.84 -5.35 -1.72 -5.42 -1.6 -5.45 -1.5 -5.51 -1.4 -5.6 -1.28 -5.66 -1.16 -5.68 -1.07 -5.72 -0.96 -5.82 -0.85 -5.84 -0.75 -5.89 -0.66 -5.99 -0.54 -6.04 -0.44 -6.06 -0.35 -6.1 -0.25 -6.2 -0.15 -6.25 -0.04 -6.27 0 0zm53.82 -165.5l71.86 50.12 0 0 -2.31 3.16 -2.2 3.14 -2.16 3.22 -2.09 3.25 -1.97 3.19 -1.89 3.24 -1.86 3.32 -1.78 3.34 -1.68 3.3 -1.6 3.36 -1.56 3.41 -1.49 3.45 -1.4 3.45 -1.31 3.42 -1.27 3.55 -1.19 3.56 -1.11 3.55 -1.06 3.65 -0.98 3.66 -0.9 3.67 -0.83 3.71 -0.76 3.76 -0.7 3.84 -0.63 3.87 -0.55 3.85 -0.47 3.92 -0.42 4 -0.33 4.01 -0.26 4.06 -0.19 4.13 -0.12 4.15 -0.03 4.19 -88.58 0 0.05 -5.71 0.16 -5.67 0.25 -5.61 0.36 -5.62 0.47 -5.61 0.56 -5.52 0.67 -5.54 0.79 -5.55 0.89 -5.45 0.98 -5.4 1.1 -5.42 1.21 -5.39 1.32 -5.35 1.42 -5.3 1.52 -5.25 1.63 -5.25 1.75 -5.18 1.83 -5.13 1.97 -5.18 2.08 -5.07 2.15 -5.01 2.26 -4.97 2.38 -4.94 2.5 -4.94 2.58 -4.82 2.66 -4.78 2.81 -4.78 2.91 -4.75 2.99 -4.63 3.06 -4.58 3.22 -4.6 3.29 -4.5 0 0zm146.69 -108.21l33.66 79.26 0 0 -4.5 1.83 -4.43 1.87 -4.36 1.92 -4.26 1.94 -4.17 1.99 -4.13 2.04 -4.07 2.1 -3.97 2.12 -3.88 2.14 -3.81 2.21 -3.76 2.24 -3.68 2.3 -3.6 2.31 -3.54 2.37 -3.48 2.41 -3.38 2.44 -3.33 2.49 -3.24 2.51 -3.2 2.58 -3.14 2.63 -3.04 2.63 -3 2.69 -2.95 2.75 -2.83 2.74 -2.8 2.83 -2.78 2.89 -2.67 2.9 -2.6 2.93 -2.55 2.98 -2.52 3.08 -2.45 3.09 -2.37 3.12 -71.86 -50.12 3.39 -4.46 3.45 -4.35 3.52 -4.28 3.63 -4.26 3.72 -4.19 3.81 -4.12 3.84 -4.01 3.94 -3.97 4.07 -3.94 4.11 -3.83 4.18 -3.77 4.28 -3.71 4.34 -3.61 4.42 -3.56 4.52 -3.51 4.57 -3.41 4.66 -3.36 4.72 -3.27 4.78 -3.21 4.88 -3.15 4.94 -3.06 5 -3 5.09 -2.93 5.18 -2.88 5.21 -2.78 5.27 -2.7 5.35 -2.66 5.45 -2.59 5.5 -2.52 5.56 -2.44 5.61 -2.37 5.7 -2.31 0 0zm207.48 -35.84l0 85.7 0 0 -6.32 0.02 -6.25 0.1 -6.24 0.15 -6.14 0.2 -6.08 0.27 -6.06 0.33 -5.96 0.38 -5.91 0.44 -5.89 0.5 -5.78 0.55 -5.7 0.61 -5.71 0.69 -5.66 0.72 -5.53 0.78 -5.52 0.86 -5.49 0.9 -5.36 0.94 -5.33 1.02 -5.3 1.07 -5.21 1.12 -5.17 1.18 -5.14 1.24 -5.06 1.29 -4.98 1.34 -4.97 1.4 -4.87 1.45 -4.85 1.51 -4.76 1.56 -4.71 1.61 -4.7 1.68 -4.61 1.72 -4.56 1.77 -33.66 -79.26 5.76 -2.25 5.81 -2.16 5.82 -2.08 5.91 -2.03 5.98 -1.94 5.99 -1.87 6.05 -1.79 6.07 -1.72 6.16 -1.66 6.2 -1.57 6.2 -1.5 6.29 -1.44 6.33 -1.36 6.36 -1.29 6.43 -1.22 6.52 -1.16 6.47 -1.06 6.54 -1 6.65 -0.94 6.62 -0.86 6.67 -0.79 6.78 -0.73 6.8 -0.65 6.81 -0.58 6.87 -0.52 6.94 -0.44 6.94 -0.37 7.02 -0.31 7.06 -0.24 7.08 -0.17 7.15 -0.1 7.2 -0.04 0 0zm194.07 28.12l-25.9 81.94 -0.01 0 -5.17 -1.5 -5.16 -1.46 -5.15 -1.4 -5.2 -1.36 -5.18 -1.31 -5.2 -1.26 -5.16 -1.22 -5.22 -1.16 -5.2 -1.12 -5.19 -1.06 -5.22 -1.03 -5.24 -0.97 -5.24 -0.93 -5.24 -0.89 -5.21 -0.83 -5.25 -0.78 -5.28 -0.74 -5.24 -0.68 -5.26 -0.65 -5.29 -0.59 -5.29 -0.55 -5.3 -0.5 -5.27 -0.45 -5.31 -0.4 -5.31 -0.37 -5.29 -0.3 -5.34 -0.26 -5.34 -0.21 -5.35 -0.17 -5.32 -0.12 -5.37 -0.07 -5.37 -0.02 0 -85.7 6.17 0.04 6.15 0.07 6.2 0.14 6.15 0.19 6.14 0.25 6.14 0.3 6.17 0.36 6.13 0.41 6.11 0.46 6.15 0.53 6.1 0.58 6.09 0.63 6.09 0.69 6.08 0.73 6.1 0.8 6.06 0.86 6.07 0.9 6.09 0.97 6.04 1.01 6.02 1.07 6.02 1.13 6.02 1.17 6.05 1.24 6 1.3 5.98 1.34 6.02 1.4 5.98 1.46 5.96 1.51 5.94 1.56 5.99 1.62 5.94 1.68 5.93 1.72 -0.01 0zm184.87 129.26l-80.32 -36.14 15.78 53.84 -3.98 -2.51 -3.99 -2.47 -4 -2.41 -4.12 -2.43 -4.1 -2.38 -4.14 -2.34 -4.22 -2.34 -4.19 -2.27 -4.29 -2.26 -4.29 -2.23 -4.35 -2.19 -4.43 -2.19 -4.42 -2.14 -4.46 -2.11 -4.5 -2.08 -4.54 -2.04 -4.6 -2.02 -4.61 -1.99 -4.67 -1.95 -4.71 -1.93 -4.74 -1.9 -4.78 -1.86 -4.87 -1.85 -4.85 -1.81 -4.87 -1.76 -4.94 -1.73 -5.03 -1.73 -5.03 -1.68 -5.06 -1.65 -5.12 -1.62 -5.14 -1.59 -5.19 -1.56 25.9 -81.94 5.87 1.76 5.82 1.79 5.78 1.84 5.76 1.87 5.71 1.92 5.65 1.93 5.64 1.99 5.65 2.04 5.57 2.07 5.49 2.09 5.5 2.14 5.46 2.18 5.41 2.21 5.39 2.27 5.35 2.29 5.3 2.34 5.28 2.38 5.24 2.42 5.2 2.45 5.16 2.5 5.07 2.51 5.09 2.57 5.05 2.61 4.99 2.64 5.01 2.71 4.9 2.72 4.9 2.76 4.86 2.82 4.76 2.81 4.82 2.91 4.73 2.93 4.68 2.95 15.78 53.84zm-15.78 -53.84l31.89 20.34 -16.11 33.5 -15.78 -53.84zm-123.21 139.71l58.67 -122.01 80.32 36.14 -58.67 122.01 -63.84 18.14 -16.48 -54.28zm80.32 36.14l-21.26 44.21 -42.58 -26.07 63.84 -18.14zm481.07 -182.34l-140.8 0 0 -85.7 140.8 0 44.29 42.85 -44.29 42.85zm0 -85.7l44.29 0 0 42.85 -44.29 -42.85zm-44.29 1035.9l0 -993.05 88.58 0 0 993.05 -44.29 42.85 -44.29 -42.85zm88.58 0l0 42.85 -44.29 0 44.29 -42.85zm-185.09 -42.85l140.8 0 0 85.7 -140.8 0 -44.29 -42.85 44.29 -42.85zm0 85.7l-44.29 0 0 -42.85 44.29 42.85zm44.29 -1035.9l0 993.05 -88.58 0 0 -993.05 44.29 -42.85 44.29 42.85zm-88.58 0l0 -42.85 44.29 0 -44.29 42.85zm1424.9 42.85l-139.32 0 0 -85.7 139.32 0 44.29 42.85 -44.29 42.85zm0 -85.7l44.29 0 0 42.85 -44.29 -42.85zm-44.29 1035.9l0 -993.05 88.58 0 0 993.05 -44.29 42.85 -44.29 -42.85zm88.58 0l0 42.85 -44.29 0 44.29 -42.85zm-186.53 -42.85l142.24 0 0 85.7 -142.24 0 -35.64 -17.41 35.64 -68.29zm0 85.7l-22.36 0 -13.28 -17.41 35.64 17.41zm-550.98 -837.2l586.62 768.91 -71.28 50.88 -586.62 -768.91 -8.65 -25.44 79.93 -25.44zm-79.93 25.44l0 -130.21 79.93 104.77 -79.93 25.44zm0 768.91l0 -768.91 88.58 0 0 768.91 -44.29 42.85 -44.29 -42.85zm88.58 0l0 42.85 -44.29 0 44.29 -42.85zm-185.09 -42.85l140.8 0 0 85.7 -140.8 0 -44.29 -42.85 44.29 -42.85zm0 85.7l-44.29 0 0 -42.85 44.29 42.85zm44.29 -1035.9l0 993.05 -88.58 0 0 -993.05 44.29 -42.85 44.29 42.85zm-88.58 0l0 -42.85 44.29 0 -44.29 42.85zm186.54 42.85l-142.25 0 0 -85.7 142.25 0 35.63 17.4 -35.63 68.3zm0 -85.7l22.35 0 13.28 17.4 -35.63 -17.4zm552.46 838.62l-588.09 -770.32 71.26 -50.9 588.09 770.32 8.66 25.45 -79.92 25.45zm79.92 -25.45l0 130.13 -79.92 -104.68 79.92 -25.45zm0 -770.32l0 770.32 -88.58 0 0 -770.32 44.29 -42.85 44.29 42.85zm-88.58 0l0 -42.85 44.29 0 -44.29 42.85zm1144.44 184.58l35.92 -78.34 -0.01 0 5.33 2.32 5.27 2.37 5.25 2.44 5.24 2.51 5.13 2.54 5.14 2.6 5.13 2.69 5.04 2.72 4.99 2.77 4.97 2.83 4.96 2.91 4.9 2.96 4.84 3 4.82 3.07 4.78 3.14 4.74 3.18 4.67 3.23 4.64 3.28 4.61 3.35 4.58 3.42 4.53 3.47 4.48 3.52 4.43 3.57 4.41 3.63 4.36 3.7 4.3 3.72 4.25 3.78 4.26 3.88 4.18 3.91 4.13 3.94 4.1 4.03 4.05 4.06 -64.14 59.1 -3.33 -3.34 -3.34 -3.27 -3.39 -3.24 -3.4 -3.19 -3.42 -3.1 -3.49 -3.1 -3.52 -3.06 -3.52 -2.98 -3.57 -2.95 -3.61 -2.91 -3.62 -2.84 -3.67 -2.81 -3.68 -2.74 -3.73 -2.71 -3.78 -2.68 -3.81 -2.63 -3.82 -2.58 -3.86 -2.52 -3.88 -2.47 -3.96 -2.46 -3.94 -2.38 -3.98 -2.33 -4.05 -2.31 -4.09 -2.27 -4.12 -2.22 -4.09 -2.15 -4.18 -2.12 -4.25 -2.1 -4.2 -2.01 -4.29 -1.98 -4.33 -1.95 -4.35 -1.9 -0.01 0zm-141.9 -29.66l0 -85.7 0 0 5.71 0.04 5.7 0.11 5.7 0.18 5.69 0.25 5.68 0.33 5.67 0.4 5.66 0.47 5.7 0.55 5.65 0.62 5.58 0.69 5.64 0.76 5.61 0.84 5.61 0.9 5.59 0.98 5.58 1.05 5.62 1.13 5.56 1.2 5.51 1.27 5.54 1.33 5.57 1.43 5.51 1.49 5.46 1.54 5.49 1.62 5.51 1.71 5.45 1.78 5.42 1.82 5.43 1.91 5.45 1.99 5.41 2.06 5.39 2.12 5.38 2.2 5.35 2.25 -35.92 78.34 -4.37 -1.85 -4.36 -1.78 -4.37 -1.72 -4.37 -1.66 -4.35 -1.59 -4.37 -1.53 -4.42 -1.5 -4.39 -1.42 -4.35 -1.35 -4.39 -1.3 -4.44 -1.26 -4.39 -1.19 -4.37 -1.11 -4.4 -1.07 -4.47 -1.01 -4.42 -0.96 -4.38 -0.89 -4.44 -0.83 -4.43 -0.78 -4.45 -0.72 -4.45 -0.66 -4.46 -0.6 -4.52 -0.55 -4.47 -0.5 -4.44 -0.43 -4.48 -0.37 -4.51 -0.32 -4.5 -0.25 -4.53 -0.21 -4.52 -0.14 -4.54 -0.09 -4.55 -0.02 0 0zm-177.2 45.27l-44.48 -74.1 0 0 6.33 -3.49 6.34 -3.36 6.42 -3.28 6.48 -3.18 6.48 -3.04 6.54 -2.95 6.62 -2.85 6.59 -2.7 6.66 -2.62 6.72 -2.51 6.76 -2.4 6.77 -2.27 6.82 -2.18 6.86 -2.06 6.91 -1.95 6.93 -1.83 6.95 -1.72 7.04 -1.62 7.03 -1.5 7.05 -1.38 7.14 -1.29 7.15 -1.16 7.14 -1.05 7.21 -0.94 7.28 -0.84 7.26 -0.71 7.27 -0.6 7.33 -0.5 7.35 -0.39 7.39 -0.27 7.42 -0.17 7.44 -0.06 0 85.7 -6.08 0.04 -6.06 0.13 -5.99 0.23 -5.97 0.31 -5.93 0.4 -5.91 0.5 -5.86 0.57 -5.78 0.66 -5.77 0.76 -5.76 0.85 -5.71 0.92 -5.62 1.01 -5.67 1.12 -5.59 1.18 -5.54 1.28 -5.55 1.38 -5.49 1.45 -5.47 1.55 -5.42 1.62 -5.4 1.72 -5.39 1.81 -5.34 1.9 -5.3 1.97 -5.28 2.08 -5.29 2.18 -5.2 2.23 -5.2 2.35 -5.2 2.44 -5.12 2.5 -5.12 2.62 -5.12 2.72 -5.07 2.79 0 0zm-127.75 122.92l-76.44 -43.3 0 0.01 3.69 -5.99 3.78 -5.94 3.87 -5.84 3.93 -5.75 4.03 -5.7 4.12 -5.63 4.21 -5.56 4.3 -5.48 4.37 -5.39 4.47 -5.34 4.55 -5.25 4.61 -5.15 4.73 -5.11 4.81 -5.02 4.88 -4.94 4.97 -4.85 5.03 -4.76 5.14 -4.72 5.22 -4.62 5.29 -4.54 5.38 -4.46 5.45 -4.38 5.57 -4.31 5.59 -4.21 5.67 -4.11 5.79 -4.08 5.86 -3.97 5.92 -3.89 6.04 -3.83 6.05 -3.7 6.15 -3.64 6.24 -3.57 44.48 74.1 -5.06 2.89 -4.99 2.96 -4.93 3.02 -4.82 3.05 -4.76 3.13 -4.7 3.19 -4.61 3.24 -4.57 3.33 -4.51 3.37 -4.39 3.41 -4.35 3.5 -4.28 3.54 -4.21 3.62 -4.14 3.66 -4.06 3.72 -4.03 3.82 -3.93 3.85 -3.88 3.92 -3.81 3.98 -3.73 4.03 -3.69 4.13 -3.63 4.17 -3.53 4.22 -3.51 4.33 -3.42 4.36 -3.35 4.42 -3.3 4.51 -3.23 4.56 -3.19 4.67 -3.11 4.7 -3.04 4.76 -2.99 4.85 0 0.01zm-46.72 170.58l-88.58 0 0 0 0.05 -7.21 0.18 -7.15 0.27 -7.12 0.4 -7.16 0.52 -7.09 0.63 -7.05 0.75 -7 0.85 -6.96 0.97 -6.98 1.09 -6.97 1.21 -6.88 1.31 -6.85 1.44 -6.83 1.55 -6.82 1.68 -6.78 1.78 -6.71 1.9 -6.66 2.01 -6.67 2.14 -6.64 2.24 -6.55 2.36 -6.54 2.49 -6.52 2.58 -6.44 2.71 -6.44 2.83 -6.39 2.93 -6.32 3.05 -6.31 3.16 -6.22 3.27 -6.23 3.41 -6.2 3.48 -6.1 3.62 -6.09 76.44 43.3 -2.88 4.85 -2.8 4.9 -2.69 4.88 -2.59 4.93 -2.52 5 -2.41 4.97 -2.33 5.04 -2.23 5.03 -2.13 5.06 -2.06 5.12 -1.95 5.12 -1.86 5.16 -1.78 5.21 -1.68 5.2 -1.59 5.25 -1.5 5.32 -1.42 5.33 -1.32 5.34 -1.23 5.38 -1.14 5.43 -1.05 5.47 -0.97 5.52 -0.87 5.49 -0.77 5.56 -0.69 5.64 -0.59 5.66 -0.51 5.71 -0.42 5.71 -0.32 5.72 -0.23 5.84 -0.14 5.87 -0.05 5.87 0 0zm46.8 170l-76.6 43.02 0 0.01 -3.6 -6.11 -3.49 -6.15 -3.39 -6.2 -3.25 -6.22 -3.16 -6.26 -3.04 -6.32 -2.92 -6.32 -2.83 -6.41 -2.7 -6.42 -2.58 -6.43 -2.49 -6.52 -2.35 -6.53 -2.24 -6.53 -2.14 -6.62 -2.01 -6.64 -1.9 -6.65 -1.78 -6.68 -1.67 -6.74 -1.56 -6.77 -1.44 -6.81 -1.31 -6.81 -1.21 -6.82 -1.1 -6.93 -0.97 -6.93 -0.85 -6.91 -0.74 -6.94 -0.63 -6.98 -0.52 -7.03 -0.4 -7.09 -0.28 -7.06 -0.18 -7.06 -0.05 -7.14 88.58 0 0.05 5.78 0.14 5.78 0.22 5.74 0.32 5.65 0.42 5.63 0.51 5.64 0.6 5.6 0.69 5.57 0.77 5.51 0.86 5.43 0.97 5.48 1.05 5.45 1.14 5.37 1.22 5.35 1.33 5.32 1.42 5.32 1.5 5.29 1.59 5.24 1.68 5.2 1.78 5.21 1.87 5.17 1.95 5.12 2.06 5.13 2.14 5.1 2.23 5.05 2.34 5.06 2.42 5.02 2.52 5 2.61 4.98 2.71 4.96 2.79 4.93 2.9 4.91 0 0.01zm127.67 123.49l-44.48 74.1 0 0 -6.24 -3.57 -6.17 -3.65 -6.06 -3.72 -6.03 -3.82 -5.95 -3.92 -5.83 -3.97 -5.79 -4.07 -5.71 -4.16 -5.6 -4.23 -5.54 -4.3 -5.47 -4.41 -5.38 -4.48 -5.31 -4.57 -5.23 -4.66 -5.11 -4.71 -5.05 -4.79 -4.99 -4.92 -4.87 -4.95 -4.8 -5.04 -4.74 -5.16 -4.61 -5.18 -4.55 -5.27 -4.46 -5.37 -4.37 -5.42 -4.3 -5.52 -4.22 -5.6 -4.12 -5.68 -4.03 -5.74 -3.93 -5.79 -3.87 -5.9 -3.77 -5.96 -3.69 -6.04 76.6 -43.02 2.99 4.88 3.05 4.82 3.11 4.74 3.19 4.69 3.23 4.62 3.3 4.52 3.34 4.46 3.42 4.38 3.51 4.36 3.54 4.25 3.63 4.21 3.69 4.16 3.72 4.04 3.82 4 3.89 3.97 3.91 3.84 4.01 3.81 4.09 3.77 4.13 3.68 4.19 3.61 4.28 3.56 4.33 3.49 4.42 3.44 4.5 3.39 4.53 3.3 4.61 3.25 4.73 3.21 4.73 3.12 4.83 3.06 4.92 3.02 4.97 2.95 5.06 2.89 0 0zm177.2 45.27l0 85.7 0 0 -7.44 -0.06 -7.42 -0.17 -7.39 -0.27 -7.35 -0.39 -7.33 -0.5 -7.27 -0.6 -7.26 -0.71 -7.28 -0.84 -7.21 -0.94 -7.14 -1.05 -7.15 -1.16 -7.14 -1.29 -7.05 -1.38 -7.03 -1.5 -7.04 -1.62 -6.95 -1.72 -6.93 -1.83 -6.91 -1.95 -6.86 -2.06 -6.82 -2.18 -6.77 -2.27 -6.76 -2.4 -6.72 -2.51 -6.66 -2.62 -6.59 -2.7 -6.62 -2.85 -6.54 -2.95 -6.48 -3.04 -6.48 -3.18 -6.42 -3.28 -6.34 -3.36 -6.33 -3.49 44.48 -74.1 5.07 2.79 5.12 2.72 5.12 2.62 5.12 2.5 5.2 2.44 5.2 2.35 5.2 2.23 5.29 2.18 5.28 2.08 5.3 1.97 5.34 1.9 5.39 1.81 5.4 1.72 5.42 1.62 5.47 1.55 5.49 1.45 5.55 1.38 5.54 1.28 5.59 1.18 5.67 1.12 5.62 1.01 5.71 0.92 5.76 0.85 5.77 0.76 5.78 0.66 5.86 0.57 5.91 0.5 5.93 0.4 5.97 0.31 5.99 0.23 6.06 0.13 6.08 0.04 0 0zm141.09 -28.51l34.62 78.88 -0.01 0 -5.32 2.15 -5.37 2.1 -5.38 2.02 -5.33 1.95 -5.41 1.9 -5.4 1.82 -5.38 1.75 -5.45 1.7 -5.45 1.63 -5.42 1.54 -5.44 1.48 -5.44 1.41 -5.48 1.36 -5.49 1.28 -5.48 1.21 -5.48 1.14 -5.52 1.08 -5.54 1.01 -5.49 0.93 -5.52 0.86 -5.56 0.81 -5.53 0.72 -5.53 0.66 -5.63 0.6 -5.54 0.51 -5.55 0.46 -5.61 0.38 -5.56 0.31 -5.57 0.24 -5.62 0.18 -5.62 0.1 -5.59 0.04 0 -85.7 4.49 -0.02 4.44 -0.08 4.44 -0.14 4.47 -0.2 4.48 -0.25 4.41 -0.3 4.45 -0.36 4.46 -0.41 4.35 -0.46 4.45 -0.54 4.43 -0.58 4.4 -0.63 4.42 -0.7 4.43 -0.75 4.38 -0.79 4.38 -0.86 4.42 -0.92 4.4 -0.97 4.37 -1.02 4.38 -1.08 4.42 -1.15 4.4 -1.2 4.4 -1.26 4.37 -1.29 4.35 -1.36 4.4 -1.43 4.38 -1.48 4.37 -1.54 4.43 -1.61 4.36 -1.64 4.37 -1.72 4.4 -1.77 -0.01 0zm187.74 -76.82l-65.16 58.04 63.1 2.03 -4.16 3.77 -4.13 3.68 -4.23 3.69 -4.25 3.61 -4.29 3.57 -4.36 3.53 -4.34 3.45 -4.41 3.42 -4.45 3.38 -4.48 3.31 -4.52 3.27 -4.56 3.22 -4.6 3.17 -4.66 3.14 -4.67 3.06 -4.69 3 -4.74 2.96 -4.8 2.93 -4.82 2.86 -4.84 2.81 -4.9 2.77 -4.94 2.72 -4.94 2.64 -4.97 2.61 -5.07 2.58 -5.1 2.52 -5.12 2.45 -5.1 2.38 -5.15 2.36 -5.25 2.32 -5.25 2.25 -5.27 2.2 -34.62 -78.88 4.41 -1.84 4.37 -1.87 4.29 -1.9 4.31 -1.96 4.32 -2.02 4.22 -2.03 4.16 -2.06 4.13 -2.1 4.15 -2.17 4.14 -2.22 4.04 -2.22 4.02 -2.27 4.02 -2.33 3.98 -2.36 3.92 -2.39 3.9 -2.44 3.89 -2.5 3.85 -2.52 3.78 -2.54 3.78 -2.61 3.74 -2.64 3.72 -2.69 3.68 -2.73 3.65 -2.76 3.63 -2.82 3.62 -2.87 3.54 -2.87 3.53 -2.95 3.51 -2.97 3.45 -3.01 3.49 -3.1 3.4 -3.09 63.1 2.03zm-63.1 -2.03l32.61 -30 30.49 32.03 -63.1 -2.03zm83 149.44l-85.06 -89.37 65.16 -58.04 85.06 89.37 -1.56 59.6 -63.6 -1.56zm65.16 -58.04l29.06 30.53 -30.62 29.07 1.56 -59.6zm-195.76 184.12l-34.4 -78.96 0 0 5.91 -2.45 5.91 -2.53 5.85 -2.57 5.76 -2.61 5.73 -2.69 5.71 -2.74 5.65 -2.8 5.57 -2.84 5.56 -2.91 5.51 -2.97 5.42 -3 5.41 -3.08 5.38 -3.14 5.3 -3.19 5.27 -3.25 5.24 -3.31 5.16 -3.35 5.1 -3.39 5.1 -3.49 5.06 -3.55 4.98 -3.57 4.93 -3.64 4.91 -3.71 4.86 -3.76 4.81 -3.82 4.76 -3.87 4.73 -3.94 4.7 -4.01 4.65 -4.05 4.58 -4.09 4.53 -4.16 4.52 -4.24 62.04 61.16 -5.24 4.92 -5.33 4.88 -5.38 4.81 -5.41 4.73 -5.46 4.65 -5.51 4.6 -5.6 4.55 -5.63 4.46 -5.68 4.4 -5.73 4.33 -5.81 4.28 -5.86 4.21 -5.88 4.11 -5.92 4.05 -6.02 4.03 -6.08 3.93 -6.08 3.85 -6.15 3.79 -6.22 3.73 -6.24 3.64 -6.29 3.6 -6.4 3.54 -6.39 3.43 -6.44 3.39 -6.53 3.32 -6.55 3.24 -6.59 3.18 -6.67 3.11 -6.72 3.05 -6.75 2.97 -6.77 2.89 -6.87 2.85 0 0zm-225.46 45.22l0 -85.7 0 0 6.04 -0.03 6 -0.11 6.03 -0.19 6.02 -0.26 5.99 -0.34 6.01 -0.41 5.97 -0.48 6 -0.57 6.01 -0.63 5.95 -0.71 5.99 -0.79 5.98 -0.86 5.98 -0.93 5.95 -1.01 5.98 -1.09 5.97 -1.15 5.95 -1.24 5.96 -1.31 5.93 -1.38 5.97 -1.47 5.96 -1.54 5.94 -1.61 5.95 -1.69 5.95 -1.77 5.94 -1.84 5.96 -1.93 5.95 -1.99 5.94 -2.07 5.94 -2.16 5.94 -2.22 5.96 -2.32 5.95 -2.38 34.4 78.96 -6.89 2.76 -6.9 2.68 -6.92 2.6 -6.92 2.5 -6.96 2.43 -6.93 2.33 -6.96 2.25 -6.98 2.16 -6.97 2.07 -6.99 1.99 -7.02 1.91 -7 1.8 -7.01 1.73 -7.05 1.64 -7.04 1.55 -7.07 1.46 -7.05 1.37 -7.06 1.29 -7.09 1.19 -7.08 1.11 -7.08 1.02 -7.09 0.93 -7.13 0.85 -7.11 0.75 -7.1 0.67 -7.15 0.58 -7.13 0.49 -7.17 0.4 -7.14 0.3 -7.13 0.23 -7.18 0.13 -7.16 0.05 0 0zm-290.37 -73.05l44 -74.38 0 0.01 7 3.8 7.03 3.67 7.11 3.57 7.13 3.45 7.14 3.3 7.2 3.18 7.26 3.08 7.3 2.95 7.34 2.83 7.36 2.7 7.43 2.59 7.45 2.47 7.52 2.34 7.56 2.23 7.59 2.1 7.66 1.99 7.7 1.87 7.75 1.75 7.78 1.63 7.86 1.5 7.9 1.4 7.93 1.26 8.01 1.15 8.05 1.03 8.09 0.91 8.13 0.78 8.25 0.67 8.27 0.55 8.29 0.43 8.36 0.3 8.43 0.18 8.49 0.06 0 85.7 -9.79 -0.08 -9.75 -0.2 -9.74 -0.36 -9.69 -0.49 -9.63 -0.65 -9.55 -0.77 -9.57 -0.92 -9.51 -1.07 -9.45 -1.21 -9.39 -1.35 -9.39 -1.5 -9.3 -1.64 -9.26 -1.78 -9.24 -1.93 -9.17 -2.07 -9.12 -2.21 -9.06 -2.35 -9.03 -2.5 -8.98 -2.65 -8.9 -2.78 -8.89 -2.93 -8.81 -3.07 -8.78 -3.22 -8.7 -3.37 -8.64 -3.49 -8.6 -3.64 -8.54 -3.78 -8.52 -3.94 -8.43 -4.07 -8.35 -4.19 -8.33 -4.35 -8.26 -4.5 0 0.01zm-208.36 -199.26l76.46 -43.28 -0.01 -0.01 4.1 6.65 4.18 6.55 4.27 6.46 4.36 6.37 4.44 6.26 4.52 6.15 4.63 6.09 4.73 6.01 4.8 5.91 4.89 5.81 4.97 5.72 5.07 5.63 5.18 5.57 5.22 5.43 5.35 5.37 5.43 5.28 5.53 5.2 5.62 5.11 5.72 5.02 5.8 4.95 5.9 4.85 5.99 4.77 6.08 4.67 6.18 4.6 6.27 4.51 6.39 4.43 6.47 4.35 6.56 4.25 6.68 4.19 6.74 4.08 6.86 4 6.98 3.93 -44 74.38 -8.14 -4.59 -8.06 -4.7 -7.96 -4.82 -7.84 -4.91 -7.76 -5.03 -7.63 -5.13 -7.53 -5.23 -7.45 -5.35 -7.32 -5.44 -7.24 -5.57 -7.11 -5.67 -7.02 -5.77 -6.9 -5.87 -6.8 -5.98 -6.68 -6.09 -6.59 -6.18 -6.47 -6.3 -6.37 -6.39 -6.28 -6.53 -6.12 -6.59 -6.05 -6.71 -5.93 -6.82 -5.81 -6.91 -5.7 -7.01 -5.57 -7.09 -5.49 -7.21 -5.38 -7.33 -5.26 -7.42 -5.14 -7.51 -5.03 -7.6 -4.92 -7.71 -4.8 -7.79 -0.01 -0.01zm-76.45 -278.42l88.58 0 0 0 0.07 8.09 0.19 8.06 0.32 8 0.44 7.93 0.57 7.88 0.7 7.85 0.82 7.8 0.94 7.73 1.07 7.66 1.21 7.65 1.32 7.6 1.44 7.52 1.57 7.47 1.7 7.46 1.82 7.4 1.94 7.34 2.08 7.3 2.18 7.25 2.32 7.2 2.45 7.18 2.58 7.13 2.68 7.08 2.82 7.02 2.95 7 3.08 6.97 3.2 6.93 3.32 6.86 3.45 6.82 3.58 6.8 3.71 6.76 3.84 6.72 3.97 6.68 -76.46 43.28 -4.69 -7.9 -4.54 -7.96 -4.41 -8.02 -4.26 -8.08 -4.11 -8.14 -3.96 -8.2 -3.8 -8.23 -3.66 -8.27 -3.51 -8.34 -3.38 -8.42 -3.22 -8.46 -3.06 -8.49 -2.91 -8.54 -2.78 -8.62 -2.62 -8.65 -2.46 -8.7 -2.32 -8.76 -2.16 -8.78 -2.02 -8.84 -1.87 -8.89 -1.72 -8.96 -1.56 -8.98 -1.41 -9.01 -1.27 -9.08 -1.12 -9.13 -0.96 -9.14 -0.82 -9.19 -0.67 -9.26 -0.52 -9.29 -0.36 -9.32 -0.23 -9.36 -0.07 -9.41 0 0zm77.36 -276.55l76.12 43.82 0 0 -4.01 6.64 -3.86 6.66 -3.75 6.71 -3.62 6.75 -3.48 6.78 -3.37 6.84 -3.23 6.85 -3.08 6.86 -2.98 6.96 -2.86 7 -2.71 6.97 -2.58 7.06 -2.48 7.11 -2.34 7.16 -2.22 7.18 -2.08 7.2 -1.96 7.28 -1.84 7.31 -1.7 7.35 -1.59 7.41 -1.45 7.44 -1.34 7.52 -1.2 7.53 -1.09 7.61 -0.96 7.65 -0.82 7.66 -0.7 7.76 -0.58 7.79 -0.44 7.84 -0.32 7.91 -0.19 7.94 -0.07 8 -88.58 0 0.07 -9.34 0.23 -9.3 0.38 -9.23 0.52 -9.22 0.68 -9.17 0.82 -9.12 0.98 -9.12 1.14 -9.05 1.27 -8.99 1.44 -8.97 1.58 -8.9 1.73 -8.88 1.89 -8.83 2.04 -8.79 2.2 -8.75 2.34 -8.68 2.5 -8.66 2.66 -8.6 2.8 -8.54 2.94 -8.47 3.1 -8.46 3.27 -8.43 3.4 -8.32 3.54 -8.28 3.72 -8.28 3.87 -8.19 3.99 -8.12 4.16 -8.08 4.3 -8.03 4.45 -7.97 4.6 -7.92 4.75 -7.86 0 0zm210.75 -197.78l43.24 74.78 0.01 0 -7.04 3.87 -6.95 3.99 -6.88 4.06 -6.73 4.12 -6.65 4.23 -6.56 4.31 -6.44 4.38 -6.35 4.47 -6.27 4.58 -6.18 4.64 -6.03 4.71 -5.98 4.82 -5.86 4.89 -5.78 4.99 -5.69 5.07 -5.56 5.13 -5.5 5.25 -5.42 5.35 -5.3 5.4 -5.21 5.5 -5.12 5.59 -5.05 5.7 -4.93 5.75 -4.83 5.84 -4.77 5.97 -4.68 6.04 -4.57 6.13 -4.5 6.23 -4.39 6.3 -4.3 6.4 -4.22 6.51 -4.14 6.6 -76.12 -43.82 4.86 -7.76 4.96 -7.65 5.1 -7.58 5.21 -7.48 5.32 -7.37 5.43 -7.27 5.54 -7.16 5.63 -7.05 5.79 -7 5.89 -6.87 5.99 -6.76 6.1 -6.65 6.23 -6.58 6.34 -6.46 6.42 -6.33 6.54 -6.25 6.68 -6.17 6.77 -6.03 6.86 -5.93 7 -5.83 7.08 -5.72 7.23 -5.63 7.3 -5.5 7.39 -5.38 7.53 -5.31 7.64 -5.2 7.72 -5.07 7.83 -4.97 7.95 -4.88 8.02 -4.74 8.13 -4.65 8.26 -4.55 0.01 0zm292.94 -72.14l0 85.7 0 0 -8.58 0.06 -8.54 0.18 -8.47 0.3 -8.43 0.42 -8.37 0.55 -8.31 0.65 -8.24 0.79 -8.21 0.9 -8.18 1.03 -8.1 1.13 -8.04 1.26 -8 1.38 -7.96 1.5 -7.91 1.61 -7.84 1.73 -7.79 1.85 -7.76 1.98 -7.72 2.09 -7.66 2.21 -7.6 2.32 -7.58 2.45 -7.53 2.57 -7.48 2.69 -7.43 2.8 -7.4 2.92 -7.34 3.05 -7.32 3.16 -7.26 3.29 -7.2 3.39 -7.19 3.54 -7.17 3.66 -7.09 3.76 -43.24 -74.78 8.35 -4.44 8.39 -4.28 8.45 -4.16 8.54 -4.03 8.58 -3.87 8.62 -3.74 8.68 -3.59 8.74 -3.46 8.79 -3.32 8.86 -3.17 8.89 -3.03 8.94 -2.89 9 -2.76 9.06 -2.61 9.1 -2.47 9.14 -2.32 9.21 -2.19 9.28 -2.05 9.29 -1.89 9.32 -1.76 9.4 -1.62 9.46 -1.48 9.48 -1.33 9.52 -1.19 9.57 -1.06 9.64 -0.91 9.67 -0.77 9.71 -0.63 9.75 -0.48 9.79 -0.36 9.84 -0.2 9.88 -0.08 0 0zm224 42.11l-32.98 79.52 -0.01 0 -5.8 -2.21 -5.82 -2.15 -5.84 -2.08 -5.83 -2 -5.85 -1.94 -5.84 -1.86 -5.87 -1.79 -5.87 -1.72 -5.89 -1.65 -5.86 -1.58 -5.92 -1.5 -5.92 -1.45 -5.89 -1.35 -5.97 -1.31 -5.92 -1.22 -5.97 -1.15 -5.97 -1.1 -5.95 -1 -5.99 -0.95 -6.01 -0.88 -6.02 -0.81 -6 -0.73 -6.05 -0.66 -6.06 -0.6 -6.07 -0.52 -6.09 -0.47 -6.06 -0.38 -6.12 -0.31 -6.12 -0.25 -6.11 -0.18 -6.15 -0.1 -6.18 -0.03 0 -85.7 7.2 0.05 7.19 0.12 7.21 0.2 7.16 0.29 7.16 0.37 7.18 0.46 7.13 0.53 7.11 0.62 7.1 0.7 7.09 0.78 7.12 0.87 7.06 0.95 7.05 1.02 7.05 1.11 7.05 1.2 7.01 1.28 6.99 1.35 7.02 1.46 6.93 1.51 6.99 1.61 6.92 1.69 6.92 1.76 6.94 1.86 6.89 1.93 6.87 2.02 6.85 2.09 6.86 2.18 6.83 2.26 6.81 2.34 6.78 2.42 6.78 2.49 6.76 2.59 -0.01 0zm191.45 176.99l-68.3 -54.58 2.83 57.58 -4.2 -4.01 -4.26 -3.96 -4.3 -3.9 -4.34 -3.84 -4.41 -3.79 -4.43 -3.73 -4.48 -3.66 -4.56 -3.62 -4.58 -3.57 -4.62 -3.48 -4.68 -3.45 -4.76 -3.39 -4.78 -3.34 -4.81 -3.26 -4.86 -3.21 -4.96 -3.17 -4.98 -3.12 -5.03 -3.04 -5.1 -3.01 -5.12 -2.93 -5.2 -2.89 -5.26 -2.85 -5.24 -2.75 -5.35 -2.72 -5.4 -2.67 -5.43 -2.6 -5.53 -2.56 -5.57 -2.51 -5.58 -2.44 -5.65 -2.38 -5.73 -2.34 -5.76 -2.28 32.98 -79.52 6.74 2.66 6.67 2.72 6.65 2.8 6.6 2.88 6.51 2.93 6.45 3 6.45 3.08 6.36 3.15 6.31 3.2 6.3 3.31 6.18 3.35 6.14 3.41 6.12 3.51 6.02 3.55 6.01 3.64 5.92 3.7 5.86 3.75 5.84 3.85 5.79 3.92 5.7 3.98 5.62 4.03 5.6 4.11 5.56 4.2 5.48 4.25 5.4 4.3 5.38 4.4 5.31 4.45 5.25 4.53 5.18 4.58 5.14 4.66 5.06 4.72 5.02 4.79 2.83 57.58zm-2.83 -57.58l28.47 27.55 -25.64 30.03 -2.83 -57.58zm-149.06 100.89l83.59 -97.89 68.3 54.58 -83.59 97.89 -66.22 2.26 -2.08 -56.84zm68.3 54.58l-31.79 37.23 -34.43 -34.97 66.22 -2.26zm1037.03 -222.77l-712.75 0 0 -85.7 712.75 0 44.29 42.85 -44.29 42.85zm0 -85.7l44.29 0 0 42.85 -44.29 -42.85zm-44.29 166.27l0 -123.42 88.58 0 0 123.42 -44.29 42.85 -44.29 -42.85zm88.58 0l0 42.85 -44.29 0 44.29 -42.85zm-616.24 -42.85l571.95 0 0 85.7 -571.95 0 -44.29 -42.85 44.29 -42.85zm-44.29 42.85l0 -42.85 44.29 0 -44.29 42.85zm0 306.43l0 -306.43 88.58 0 0 306.43 -44.29 42.85 -44.29 -42.85zm44.29 42.85l-44.29 0 0 -42.85 44.29 42.85zm511.81 0l-511.81 0 0 -85.7 511.81 0 44.29 42.85 -44.29 42.85zm0 -85.7l44.29 0 0 42.85 -44.29 -42.85zm-44.29 166.27l0 -123.42 88.58 0 0 123.42 -44.29 42.85 -44.29 -42.85zm88.58 0l0 42.85 -44.29 0 44.29 -42.85zm-556.1 -42.85l511.81 0 0 85.7 -511.81 0 -44.29 -42.85 44.29 -42.85zm-44.29 42.85l0 -42.85 44.29 0 -44.29 42.85zm0 316.36l0 -316.36 88.58 0 0 316.36 -44.29 42.85 -44.29 -42.85zm44.29 42.85l-44.29 0 0 -42.85 44.29 42.85zm589.54 0l-589.54 0 0 -85.7 589.54 0 44.29 42.85 -44.29 42.85zm0 -85.7l44.29 0 0 42.85 -44.29 -42.85zm-44.29 166.27l0 -123.42 88.58 0 0 123.42 -44.29 42.85 -44.29 -42.85zm88.58 0l0 42.85 -44.29 0 44.29 -42.85zm-774.63 -42.85l730.34 0 0 85.7 -730.34 0 -44.29 -42.85 44.29 -42.85zm0 85.7l-44.29 0 0 -42.85 44.29 42.85zm44.29 -1035.9l0 993.05 -88.58 0 0 -993.05 44.29 -42.85 44.29 42.85zm-88.58 0l0 -42.85 44.29 0 -44.29 42.85zm1219.6 42.85l-140.8 0 0 -85.7 140.8 0 44.29 42.85 -44.29 42.85zm0 -85.7l44.29 0 0 42.85 -44.29 -42.85zm-44.29 912.48l0 -869.63 88.58 0 0 869.63 -44.29 42.85 -44.29 -42.85zm44.29 42.85l-44.29 0 0 -42.85 44.29 42.85zm448.76 0l-448.76 0 0 -85.7 448.76 0 44.29 42.85 -44.29 42.85zm0 -85.7l44.29 0 0 42.85 -44.29 -42.85zm-44.29 166.27l0 -123.42 88.58 0 0 123.42 -44.29 42.85 -44.29 -42.85zm88.58 0l0 42.85 -44.29 0 44.29 -42.85zm-633.85 -42.85l589.56 0 0 85.7 -589.56 0 -44.29 -42.85 44.29 -42.85zm0 85.7l-44.29 0 0 -42.85 44.29 42.85zm44.29 -1035.9l0 993.05 -88.58 0 0 -993.05 44.29 -42.85 44.29 42.85zm-88.58 0l0 -42.85 44.29 0 -44.29 42.85zm1602.36 42.85l-712.75 0 0 -85.7 712.75 0 44.29 42.85 -44.29 42.85zm0 -85.7l44.29 0 0 42.85 -44.29 -42.85zm-44.29 166.27l0 -123.42 88.58 0 0 123.42 -44.29 42.85 -44.29 -42.85zm88.58 0l0 42.85 -44.29 0 44.29 -42.85zm-616.24 -42.85l571.95 0 0 85.7 -571.95 0 -44.29 -42.85 44.29 -42.85zm-44.29 42.85l0 -42.85 44.29 0 -44.29 42.85zm0 306.43l0 -306.43 88.58 0 0 306.43 -44.29 42.85 -44.29 -42.85zm44.29 42.85l-44.29 0 0 -42.85 44.29 42.85zm511.82 0l-511.82 0 0 -85.7 511.82 0 44.29 42.85 -44.29 42.85zm0 -85.7l44.29 0 0 42.85 -44.29 -42.85zm-44.29 166.27l0 -123.42 88.58 0 0 123.42 -44.29 42.85 -44.29 -42.85zm88.58 0l0 42.85 -44.29 0 44.29 -42.85zm-556.11 -42.85l511.82 0 0 85.7 -511.82 0 -44.29 -42.85 44.29 -42.85zm-44.29 42.85l0 -42.85 44.29 0 -44.29 42.85zm0 316.36l0 -316.36 88.58 0 0 316.36 -44.29 42.85 -44.29 -42.85zm44.29 42.85l-44.29 0 0 -42.85 44.29 42.85zm589.55 0l-589.55 0 0 -85.7 589.55 0 44.29 42.85 -44.29 42.85zm0 -85.7l44.29 0 0 42.85 -44.29 -42.85zm-44.29 166.27l0 -123.42 88.58 0 0 123.42 -44.29 42.85 -44.29 -42.85zm88.58 0l0 42.85 -44.29 0 44.29 -42.85zm-774.64 -42.85l730.35 0 0 85.7 -730.35 0 -44.29 -42.85 44.29 -42.85zm0 85.7l-44.29 0 0 -42.85 44.29 42.85zm44.29 -1035.9l0 993.05 -88.58 0 0 -993.05 44.29 -42.85 44.29 42.85zm-88.58 0l0 -42.85 44.29 0 -44.29 42.85zm1478.66 948.46l-63.48 -59.78 0 0.01 4.09 -4.19 3.96 -4.28 3.83 -4.4 3.7 -4.5 3.59 -4.64 3.44 -4.7 3.3 -4.82 3.22 -4.98 3.08 -5.08 2.96 -5.19 2.83 -5.33 2.72 -5.46 2.59 -5.6 2.48 -5.73 2.35 -5.85 2.22 -5.98 2.09 -6.12 1.97 -6.28 1.85 -6.44 1.72 -6.55 1.58 -6.69 1.46 -6.87 1.33 -7.02 1.19 -7.13 1.05 -7.28 0.92 -7.47 0.79 -7.6 0.64 -7.73 0.5 -7.88 0.35 -8.06 0.22 -8.21 0.08 -8.33 88.58 0 -0.08 9.81 -0.26 9.67 -0.43 9.56 -0.6 9.48 -0.78 9.37 -0.95 9.24 -1.12 9.13 -1.31 9.06 -1.49 8.93 -1.67 8.8 -1.84 8.69 -2.04 8.61 -2.22 8.49 -2.41 8.36 -2.59 8.24 -2.79 8.16 -2.98 8.02 -3.17 7.91 -3.36 7.77 -3.55 7.64 -3.74 7.52 -3.93 7.39 -4.14 7.29 -4.32 7.12 -4.5 6.98 -4.72 6.88 -4.92 6.72 -5.07 6.54 -5.28 6.42 -5.45 6.26 -5.66 6.14 -5.83 5.95 0 0.01zm-256.13 93.11l0 -85.7 0 0 8.12 -0.07 7.98 -0.21 7.8 -0.35 7.66 -0.49 7.54 -0.63 7.42 -0.77 7.22 -0.89 7.09 -1.04 6.97 -1.17 6.82 -1.3 6.69 -1.43 6.52 -1.55 6.4 -1.68 6.27 -1.81 6.14 -1.94 5.97 -2.04 5.86 -2.18 5.77 -2.32 5.59 -2.41 5.5 -2.56 5.39 -2.67 5.24 -2.78 5.14 -2.92 5.01 -3.02 4.92 -3.17 4.82 -3.3 4.73 -3.43 4.62 -3.54 4.49 -3.66 4.41 -3.82 4.32 -3.95 4.23 -4.09 63.48 59.78 -5.97 5.77 -6.14 5.61 -6.29 5.42 -6.45 5.26 -6.58 5.06 -6.71 4.87 -6.86 4.68 -7 4.51 -7.17 4.34 -7.28 4.12 -7.44 3.96 -7.53 3.73 -7.66 3.56 -7.81 3.37 -7.89 3.16 -8.04 3 -8.17 2.8 -8.26 2.6 -8.37 2.41 -8.48 2.24 -8.62 2.05 -8.69 1.85 -8.8 1.68 -8.91 1.49 -9.03 1.32 -9.14 1.13 -9.18 0.95 -9.32 0.79 -9.46 0.61 -9.54 0.43 -9.62 0.25 -9.72 0.09 0 0zm-181.44 -41.56l40.24 -76.34 -0.01 0 4.12 1.99 4.11 1.92 4.12 1.85 4.2 1.81 4.14 1.72 4.16 1.65 4.28 1.63 4.2 1.54 4.21 1.46 4.27 1.41 4.3 1.36 4.29 1.28 4.3 1.21 4.35 1.17 4.37 1.1 4.41 1.04 4.37 0.97 4.42 0.9 4.46 0.85 4.48 0.79 4.52 0.73 4.5 0.66 4.57 0.6 4.58 0.54 4.52 0.47 4.64 0.41 4.68 0.35 4.68 0.28 4.72 0.23 4.67 0.16 4.77 0.09 4.8 0.03 0 85.7 -6 -0.05 -5.97 -0.11 -6.03 -0.2 -5.94 -0.29 -5.92 -0.36 -5.9 -0.45 -5.88 -0.51 -5.94 -0.61 -5.84 -0.7 -5.81 -0.76 -5.84 -0.86 -5.78 -0.93 -5.76 -1.01 -5.72 -1.09 -5.74 -1.18 -5.73 -1.27 -5.65 -1.34 -5.65 -1.42 -5.61 -1.49 -5.62 -1.59 -5.59 -1.68 -5.54 -1.74 -5.51 -1.83 -5.53 -1.92 -5.48 -2 -5.38 -2.05 -5.44 -2.15 -5.42 -2.26 -5.3 -2.29 -5.34 -2.39 -5.31 -2.48 -5.26 -2.55 -0.01 0zm-147.8 -166.12l74.78 45.94 -2.66 -49.57 3.16 3.83 3.17 3.72 3.25 3.73 3.26 3.65 3.25 3.55 3.3 3.51 3.36 3.47 3.37 3.41 3.37 3.31 3.44 3.29 3.46 3.24 3.48 3.15 3.5 3.11 3.54 3.04 3.58 3 3.59 2.93 3.63 2.87 3.68 2.84 3.7 2.78 3.71 2.7 3.74 2.65 3.78 2.6 3.83 2.55 3.86 2.51 3.85 2.42 3.91 2.38 3.93 2.33 4 2.28 3.99 2.22 4.03 2.16 4.08 2.11 4.12 2.07 -40.24 76.34 -5.2 -2.61 -5.14 -2.67 -5.15 -2.76 -5.09 -2.82 -5.02 -2.88 -5.01 -2.95 -4.95 -3.02 -4.93 -3.1 -4.86 -3.15 -4.81 -3.21 -4.8 -3.3 -4.74 -3.35 -4.71 -3.44 -4.64 -3.48 -4.6 -3.54 -4.57 -3.63 -4.53 -3.69 -4.46 -3.74 -4.44 -3.82 -4.4 -3.89 -4.34 -3.95 -4.28 -4 -4.24 -4.05 -4.23 -4.17 -4.15 -4.19 -4.1 -4.25 -4.08 -4.33 -4.05 -4.41 -3.96 -4.45 -3.91 -4.47 -3.91 -4.6 -3.84 -4.63 -2.66 -49.57zm2.66 49.57l-19.54 -23.87 16.88 -25.7 2.66 49.57zm141.05 -108.61l-68.93 104.98 -74.78 -45.94 68.93 -104.98 71.2 -4.71 3.58 50.65zm-74.78 -45.94l32.29 -49.18 38.91 44.47 -71.2 4.71zm164.12 69.35l-40.8 76.06 0 0 -4.16 -2.12 -4.09 -2.17 -4.1 -2.22 -4.1 -2.31 -4.02 -2.33 -4.02 -2.39 -3.99 -2.45 -4 -2.53 -3.94 -2.57 -3.88 -2.6 -3.87 -2.66 -3.88 -2.74 -3.87 -2.81 -3.78 -2.82 -3.79 -2.89 -3.76 -2.95 -3.72 -2.99 -3.7 -3.05 -3.69 -3.11 -3.65 -3.16 -3.62 -3.21 -3.6 -3.26 -3.57 -3.32 -3.51 -3.33 -3.55 -3.44 -3.49 -3.47 -3.44 -3.49 -3.47 -3.6 -3.41 -3.62 -3.36 -3.65 -3.37 -3.72 -3.34 -3.78 67.62 -55.36 2.72 3.08 2.75 3.04 2.78 3.01 2.77 2.94 2.75 2.86 2.82 2.85 2.79 2.79 2.79 2.7 2.85 2.71 2.83 2.62 2.84 2.58 2.86 2.53 2.87 2.48 2.87 2.43 2.88 2.37 2.9 2.33 2.92 2.29 2.91 2.23 2.96 2.2 2.89 2.11 2.94 2.06 2.99 2.06 3 2 2.98 1.95 2.96 1.87 3.01 1.85 3.02 1.81 3.06 1.77 3 1.69 3.06 1.66 3.09 1.63 3.06 1.56 0 0zm94.72 24.26l0 85.7 0 0 -4.28 -0.04 -4.34 -0.1 -4.28 -0.18 -4.28 -0.23 -4.34 -0.31 -4.27 -0.37 -4.35 -0.45 -4.26 -0.51 -4.27 -0.57 -4.32 -0.65 -4.27 -0.71 -4.25 -0.77 -4.31 -0.86 -4.23 -0.9 -4.23 -0.97 -4.31 -1.05 -4.22 -1.11 -4.21 -1.15 -4.25 -1.24 -4.22 -1.3 -4.19 -1.35 -4.26 -1.44 -4.23 -1.5 -4.15 -1.55 -4.17 -1.6 -4.14 -1.66 -4.16 -1.73 -4.21 -1.82 -4.16 -1.86 -4.11 -1.91 -4.12 -1.97 -4.13 -2.04 40.8 -76.06 3.11 1.54 3.12 1.49 3.13 1.45 3.06 1.38 3.01 1.3 3.08 1.27 3.08 1.24 3.05 1.18 3.07 1.13 2.97 1.06 2.96 1 3.01 0.97 3 0.92 2.95 0.86 2.99 0.83 2.96 0.77 2.89 0.71 2.97 0.67 2.95 0.64 2.87 0.56 2.93 0.53 2.91 0.49 2.86 0.43 2.91 0.39 2.9 0.35 2.83 0.29 2.89 0.25 2.82 0.21 2.88 0.15 2.88 0.12 2.8 0.06 2.88 0.02 0 0zm88.67 -31.78l66.1 57.06 0 0 -3.57 3.76 -3.7 3.66 -3.74 3.51 -3.87 3.41 -3.99 3.32 -4.12 3.22 -4.14 3.04 -4.28 2.96 -4.39 2.83 -4.44 2.7 -4.53 2.57 -4.56 2.42 -4.75 2.36 -4.77 2.18 -4.83 2.07 -4.92 1.93 -4.92 1.79 -5.08 1.7 -5.11 1.56 -5.17 1.44 -5.2 1.29 -5.26 1.19 -5.32 1.07 -5.38 0.95 -5.43 0.82 -5.46 0.72 -5.52 0.6 -5.56 0.49 -5.62 0.37 -5.67 0.27 -5.72 0.16 -5.75 0.06 0 -85.7 4.07 -0.04 3.98 -0.1 3.87 -0.19 3.78 -0.25 3.68 -0.33 3.6 -0.38 3.5 -0.46 3.41 -0.52 3.3 -0.59 3.22 -0.63 3.12 -0.71 3.06 -0.77 2.95 -0.82 2.85 -0.86 2.74 -0.92 2.76 -1.01 2.62 -1.03 2.55 -1.09 2.49 -1.14 2.35 -1.16 2.4 -1.28 2.29 -1.29 2.24 -1.36 2.15 -1.39 2.1 -1.46 2.1 -1.54 2 -1.56 1.97 -1.64 1.93 -1.71 1.94 -1.81 1.84 -1.82 1.81 -1.92 0 0zm31.29 -102.7l88.58 0 0 0 -0.04 5.95 -0.15 5.86 -0.23 5.8 -0.33 5.82 -0.43 5.69 -0.52 5.63 -0.63 5.65 -0.73 5.51 -0.82 5.47 -0.94 5.45 -1.04 5.38 -1.15 5.34 -1.25 5.23 -1.34 5.16 -1.47 5.15 -1.59 5.11 -1.68 4.98 -1.81 4.97 -1.93 4.92 -2.03 4.79 -2.16 4.76 -2.28 4.7 -2.37 4.58 -2.53 4.57 -2.62 4.43 -2.74 4.39 -2.9 4.33 -2.96 4.18 -3.11 4.14 -3.2 4 -3.33 3.96 -3.46 3.86 -66.1 -57.06 1.78 -1.98 1.73 -2.04 1.7 -2.14 1.63 -2.16 1.6 -2.26 1.52 -2.27 1.48 -2.37 1.46 -2.47 1.37 -2.49 1.37 -2.64 1.3 -2.66 1.24 -2.76 1.21 -2.87 1.15 -2.9 1.09 -3.01 1.06 -3.14 0.99 -3.17 0.93 -3.29 0.9 -3.42 0.83 -3.49 0.77 -3.56 0.7 -3.66 0.64 -3.73 0.58 -3.89 0.53 -3.99 0.45 -3.99 0.38 -4.17 0.33 -4.27 0.25 -4.28 0.17 -4.46 0.11 -4.56 0.04 -4.61 0 0zm88.58 -563.2l0 563.2 -88.58 0 0 -563.2 44.29 -42.85 44.29 42.85zm-44.29 -42.85l44.29 0 0 42.85 -44.29 -42.85zm-362.23 0l362.23 0 0 85.7 -362.23 0 -44.29 -42.85 44.29 -42.85zm0 85.7l-44.29 0 0 -42.85 44.29 42.85zm44.29 -167.69l0 124.84 -88.58 0 0 -124.84 44.29 -42.85 44.29 42.85zm-88.58 0l0 -42.85 44.29 0 -44.29 42.85zm548.78 42.85l-504.49 0 0 -85.7 504.49 0 44.29 42.85 -44.29 42.85zm0 -85.7l44.29 0 0 42.85 -44.29 -42.85zm-44.29 735.15l0 -692.3 88.58 0 0 692.3 0 0 -88.58 0zm1133.33 -671.58l-43.06 74.88 0 0 -7.14 -3.76 -7.22 -3.67 -7.23 -3.54 -7.24 -3.4 -7.31 -3.29 -7.34 -3.16 -7.4 -3.05 -7.44 -2.93 -7.47 -2.81 -7.51 -2.68 -7.57 -2.57 -7.6 -2.45 -7.64 -2.33 -7.7 -2.21 -7.74 -2.09 -7.79 -1.98 -7.82 -1.86 -7.85 -1.73 -7.92 -1.6 -8.01 -1.51 -8.01 -1.38 -8.06 -1.26 -8.11 -1.13 -8.2 -1.03 -8.22 -0.9 -8.24 -0.79 -8.33 -0.65 -8.38 -0.55 -8.43 -0.42 -8.48 -0.3 -8.54 -0.18 -8.58 -0.06 0 -85.7 9.88 0.08 9.84 0.2 9.8 0.36 9.75 0.48 9.72 0.63 9.67 0.77 9.66 0.91 9.58 1.06 9.52 1.19 9.49 1.33 9.48 1.48 9.41 1.62 9.33 1.75 9.32 1.9 9.29 2.05 9.22 2.18 9.17 2.32 9.12 2.47 9.08 2.61 9.02 2.75 8.98 2.89 8.91 3.03 8.89 3.18 8.81 3.31 8.76 3.45 8.72 3.59 8.66 3.74 8.61 3.87 8.58 4.02 8.49 4.16 8.42 4.27 8.4 4.44 0 0zm212.21 197.66l-75.92 44.16 0 -0.01 -4.18 -6.6 -4.25 -6.49 -4.35 -6.41 -4.47 -6.34 -4.53 -6.23 -4.59 -6.1 -4.73 -6.04 -4.81 -5.97 -4.9 -5.86 -4.98 -5.77 -5.07 -5.69 -5.17 -5.59 -5.25 -5.51 -5.36 -5.4 -5.46 -5.35 -5.53 -5.25 -5.63 -5.15 -5.73 -5.07 -5.81 -4.98 -5.93 -4.91 -6.01 -4.82 -6.09 -4.71 -6.21 -4.65 -6.33 -4.58 -6.39 -4.48 -6.49 -4.38 -6.6 -4.31 -6.7 -4.23 -6.78 -4.13 -6.91 -4.06 -7.02 -3.98 -7.09 -3.89 43.06 -74.88 8.29 4.53 8.18 4.66 8.07 4.74 8 4.87 7.88 4.97 7.76 5.07 7.69 5.2 7.57 5.3 7.43 5.38 7.35 5.49 7.27 5.63 7.13 5.72 7.03 5.81 6.93 5.94 6.81 6.03 6.71 6.15 6.61 6.25 6.46 6.33 6.38 6.46 6.27 6.57 6.15 6.65 6.05 6.77 5.92 6.85 5.82 6.98 5.69 7.05 5.59 7.16 5.51 7.3 5.35 7.37 5.23 7.44 5.15 7.57 5.03 7.67 4.9 7.76 0 -0.01zm78.2 276.72l-88.58 0 0 0 -0.07 -8 -0.19 -7.94 -0.32 -7.89 -0.45 -7.84 -0.58 -7.76 -0.71 -7.74 -0.84 -7.71 -0.96 -7.62 -1.1 -7.58 -1.21 -7.56 -1.34 -7.47 -1.48 -7.45 -1.59 -7.4 -1.74 -7.35 -1.84 -7.32 -1.99 -7.26 -2.1 -7.21 -2.23 -7.17 -2.37 -7.13 -2.5 -7.11 -2.61 -7.06 -2.74 -6.98 -2.88 -6.98 -3 -6.94 -3.13 -6.89 -3.26 -6.85 -3.4 -6.82 -3.52 -6.78 -3.65 -6.75 -3.78 -6.7 -3.91 -6.67 -4.05 -6.63 75.92 -44.16 4.79 7.87 4.65 7.91 4.5 7.98 4.35 8.03 4.2 8.08 4.04 8.14 3.9 8.19 3.75 8.25 3.6 8.3 3.44 8.34 3.3 8.42 3.13 8.46 2.98 8.47 2.83 8.57 2.69 8.61 2.52 8.65 2.37 8.7 2.22 8.74 2.06 8.79 1.91 8.84 1.76 8.87 1.6 8.95 1.45 8.94 1.3 9.02 1.14 9.08 0.98 9.07 0.85 9.14 0.68 9.2 0.53 9.22 0.38 9.25 0.23 9.3 0.07 9.34 0 0zm-78.08 277.95l-76.16 -43.76 0 0 4.05 -6.73 3.93 -6.77 3.79 -6.8 3.66 -6.82 3.53 -6.87 3.39 -6.89 3.27 -6.94 3.15 -6.98 3.01 -7.01 2.88 -7.05 2.75 -7.04 2.61 -7.12 2.5 -7.17 2.37 -7.2 2.24 -7.22 2.11 -7.27 1.98 -7.31 1.85 -7.36 1.74 -7.4 1.59 -7.44 1.48 -7.48 1.34 -7.5 1.22 -7.6 1.1 -7.62 0.96 -7.64 0.84 -7.73 0.71 -7.76 0.58 -7.78 0.45 -7.84 0.32 -7.91 0.19 -7.94 0.07 -8 88.58 0 -0.07 9.34 -0.23 9.3 -0.38 9.27 -0.53 9.22 -0.68 9.22 -0.85 9.14 -0.98 9.09 -1.14 9.1 -1.3 9.04 -1.44 8.96 -1.6 8.98 -1.76 8.9 -1.91 8.86 -2.06 8.82 -2.21 8.78 -2.38 8.73 -2.51 8.69 -2.68 8.66 -2.83 8.6 -2.98 8.53 -3.13 8.5 -3.29 8.48 -3.44 8.39 -3.59 8.35 -3.73 8.3 -3.89 8.26 -4.05 8.21 -4.19 8.15 -4.34 8.1 -4.49 8.04 -4.63 7.99 -4.79 7.95 0 0zm-212.15 199.89l-43.42 -74.7 0.01 0 7.09 -3.93 7.01 -4.02 6.9 -4.1 6.79 -4.18 6.7 -4.27 6.6 -4.36 6.49 -4.43 6.38 -4.52 6.32 -4.62 6.21 -4.71 6.1 -4.77 6.01 -4.88 5.94 -4.96 5.8 -5.03 5.74 -5.14 5.63 -5.22 5.54 -5.31 5.45 -5.4 5.36 -5.48 5.26 -5.57 5.17 -5.66 5.07 -5.75 4.99 -5.86 4.9 -5.93 4.82 -6.04 4.72 -6.11 4.61 -6.2 4.54 -6.31 4.46 -6.42 4.36 -6.49 4.25 -6.57 4.19 -6.71 76.16 43.76 -4.89 7.83 -5.03 7.77 -5.14 7.65 -5.24 7.54 -5.34 7.43 -5.49 7.38 -5.6 7.25 -5.68 7.14 -5.82 7.05 -5.91 6.92 -6.05 6.85 -6.15 6.74 -6.26 6.63 -6.38 6.54 -6.47 6.4 -6.6 6.33 -6.71 6.2 -6.8 6.1 -6.94 6.01 -7.02 5.88 -7.13 5.78 -7.26 5.69 -7.35 5.55 -7.44 5.46 -7.58 5.36 -7.69 5.25 -7.76 5.12 -7.88 5.03 -7.99 4.92 -8.08 4.8 -8.19 4.7 -8.29 4.59 0.01 0zm-293.76 72.89l0 -85.7 0 0 8.58 -0.06 8.54 -0.18 8.46 -0.3 8.4 -0.43 8.38 -0.55 8.35 -0.67 8.25 -0.78 8.19 -0.92 8.17 -1.03 8.12 -1.15 8.05 -1.27 8.02 -1.4 7.98 -1.51 7.89 -1.63 7.88 -1.75 7.83 -1.88 7.78 -1.99 7.72 -2.1 7.7 -2.24 7.64 -2.35 7.58 -2.47 7.57 -2.6 7.49 -2.71 7.47 -2.84 7.45 -2.96 7.39 -3.08 7.34 -3.2 7.28 -3.3 7.27 -3.46 7.25 -3.58 7.18 -3.68 7.14 -3.82 43.42 74.7 -8.4 4.48 -8.46 4.34 -8.47 4.18 -8.55 4.06 -8.64 3.94 -8.66 3.76 -8.73 3.64 -8.75 3.48 -8.81 3.36 -8.91 3.21 -8.91 3.06 -9 2.93 -9.02 2.77 -9.08 2.64 -9.14 2.5 -9.18 2.35 -9.21 2.2 -9.26 2.07 -9.35 1.93 -9.36 1.77 -9.4 1.64 -9.49 1.49 -9.48 1.35 -9.55 1.21 -9.61 1.06 -9.65 0.92 -9.65 0.77 -9.72 0.65 -9.78 0.49 -9.82 0.36 -9.84 0.2 -9.88 0.08 0 0zm-293.74 -72.89l43.4 -74.7 0.01 0 7.14 3.82 7.18 3.68 7.25 3.58 7.27 3.46 7.28 3.3 7.34 3.2 7.39 3.08 7.45 2.96 7.47 2.84 7.49 2.71 7.57 2.6 7.58 2.47 7.64 2.35 7.7 2.24 7.72 2.1 7.78 1.99 7.83 1.88 7.88 1.75 7.89 1.63 7.98 1.51 8.02 1.4 8.04 1.27 8.12 1.15 8.18 1.03 8.19 0.92 8.25 0.78 8.35 0.67 8.37 0.55 8.4 0.43 8.46 0.3 8.54 0.18 8.58 0.06 0 85.7 -9.88 -0.08 -9.84 -0.2 -9.82 -0.36 -9.78 -0.49 -9.71 -0.65 -9.65 -0.77 -9.65 -0.92 -9.61 -1.06 -9.54 -1.21 -9.5 -1.35 -9.48 -1.49 -9.4 -1.64 -9.36 -1.77 -9.35 -1.93 -9.26 -2.07 -9.21 -2.2 -9.18 -2.35 -9.14 -2.5 -9.08 -2.64 -9.02 -2.77 -9 -2.93 -8.91 -3.06 -8.91 -3.21 -8.81 -3.36 -8.75 -3.48 -8.73 -3.64 -8.66 -3.76 -8.64 -3.94 -8.55 -4.06 -8.47 -4.18 -8.46 -4.34 -8.4 -4.48 0.01 0zm-212.17 -199.89l76.16 -43.76 0 0 4.18 6.69 4.27 6.59 4.36 6.5 4.44 6.39 4.55 6.31 4.62 6.22 4.72 6.11 4.82 6.04 4.88 5.92 5.02 5.87 5.06 5.75 5.17 5.65 5.28 5.59 5.34 5.47 5.45 5.39 5.55 5.32 5.63 5.22 5.74 5.14 5.82 5.04 5.91 4.95 6.01 4.87 6.12 4.79 6.19 4.7 6.31 4.61 6.41 4.53 6.47 4.43 6.61 4.36 6.7 4.28 6.78 4.17 6.9 4.1 7.01 4.02 7.09 3.93 -43.4 74.7 -8.29 -4.59 -8.19 -4.7 -8.08 -4.8 -8 -4.93 -7.86 -5.02 -7.77 -5.12 -7.69 -5.25 -7.55 -5.35 -7.47 -5.47 -7.35 -5.56 -7.24 -5.67 -7.15 -5.79 -7.03 -5.89 -6.92 -6 -6.8 -6.1 -6.71 -6.2 -6.59 -6.32 -6.49 -6.41 -6.38 -6.55 -6.24 -6.61 -6.17 -6.75 -6.04 -6.85 -5.9 -6.91 -5.84 -7.06 -5.68 -7.14 -5.6 -7.25 -5.48 -7.36 -5.35 -7.43 -5.26 -7.57 -5.12 -7.64 -5.03 -7.75 -4.9 -7.85 0 0zm-78.07 -277.95l88.58 0 0 0 0.07 8 0.19 7.94 0.32 7.91 0.45 7.84 0.58 7.78 0.71 7.76 0.84 7.73 0.96 7.64 1.1 7.62 1.22 7.6 1.34 7.5 1.48 7.48 1.59 7.44 1.74 7.4 1.85 7.36 1.98 7.31 2.11 7.27 2.24 7.22 2.37 7.22 2.49 7.15 2.62 7.09 2.75 7.07 2.89 7.07 3 7.01 3.14 6.96 3.27 6.94 3.39 6.89 3.53 6.87 3.66 6.82 3.79 6.8 3.93 6.77 4.05 6.73 -76.16 43.76 -4.79 -7.95 -4.63 -7.99 -4.49 -8.04 -4.34 -8.1 -4.19 -8.15 -4.05 -8.21 -3.89 -8.26 -3.74 -8.32 -3.58 -8.35 -3.43 -8.37 -3.29 -8.45 -3.14 -8.53 -2.97 -8.55 -2.83 -8.58 -2.68 -8.66 -2.51 -8.69 -2.38 -8.73 -2.21 -8.78 -2.06 -8.82 -1.91 -8.86 -1.76 -8.9 -1.6 -8.98 -1.44 -8.96 -1.3 -9.04 -1.14 -9.1 -0.98 -9.09 -0.85 -9.14 -0.68 -9.22 -0.53 -9.22 -0.38 -9.27 -0.23 -9.3 -0.07 -9.34 0 0zm78.19 -276.72l75.92 44.16 0 -0.01 -4.05 6.64 -3.91 6.67 -3.78 6.7 -3.65 6.75 -3.52 6.78 -3.4 6.82 -3.26 6.85 -3.12 6.87 -3 6.94 -2.88 7 -2.75 7 -2.61 7.04 -2.49 7.08 -2.37 7.16 -2.23 7.17 -2.1 7.21 -1.99 7.26 -1.84 7.32 -1.74 7.35 -1.59 7.4 -1.48 7.45 -1.34 7.47 -1.21 7.56 -1.1 7.58 -0.96 7.62 -0.84 7.71 -0.71 7.74 -0.58 7.76 -0.45 7.84 -0.32 7.89 -0.19 7.94 -0.07 8 -88.58 0 0.07 -9.34 0.23 -9.3 0.38 -9.25 0.53 -9.22 0.68 -9.2 0.85 -9.14 0.98 -9.07 1.14 -9.08 1.3 -9.02 1.45 -8.94 1.6 -8.95 1.76 -8.87 1.91 -8.84 2.06 -8.79 2.22 -8.74 2.37 -8.7 2.52 -8.65 2.69 -8.61 2.83 -8.54 2.97 -8.5 3.15 -8.48 3.29 -8.4 3.44 -8.32 3.58 -8.3 3.76 -8.27 3.9 -8.19 4.04 -8.14 4.2 -8.08 4.35 -8.03 4.5 -7.98 4.65 -7.91 4.79 -7.86 0 -0.01zm211.39 -197.61l43.24 74.78 0.01 0 -7.05 3.88 -6.97 3.98 -6.86 4.06 -6.74 4.13 -6.67 4.23 -6.57 4.31 -6.44 4.38 -6.37 4.48 -6.3 4.59 -6.17 4.63 -6.06 4.72 -5.99 4.82 -5.89 4.9 -5.81 4.99 -5.7 5.07 -5.62 5.17 -5.51 5.24 -5.43 5.33 -5.33 5.42 -5.26 5.52 -5.15 5.59 -5.08 5.7 -4.97 5.77 -4.88 5.86 -4.8 5.95 -4.72 6.06 -4.61 6.13 -4.52 6.22 -4.44 6.32 -4.37 6.44 -4.27 6.51 -4.17 6.59 -75.92 -44.16 4.91 -7.77 5.03 -7.65 5.11 -7.54 5.24 -7.46 5.36 -7.38 5.49 -7.27 5.56 -7.14 5.68 -7.07 5.82 -6.98 5.91 -6.85 6.02 -6.76 6.13 -6.65 6.24 -6.56 6.35 -6.44 6.45 -6.35 6.59 -6.26 6.68 -6.13 6.78 -6.03 6.89 -5.93 6.99 -5.82 7.11 -5.72 7.22 -5.62 7.33 -5.51 7.4 -5.37 7.51 -5.3 7.66 -5.2 7.73 -5.07 7.83 -4.97 7.94 -4.87 8.04 -4.74 8.13 -4.66 8.25 -4.54 0.01 0zm294.4 -72.14l0 85.7 0 0 -8.68 0.06 -8.62 0.18 -8.57 0.3 -8.51 0.42 -8.45 0.55 -8.39 0.66 -8.33 0.78 -8.27 0.91 -8.26 1.02 -8.17 1.14 -8.09 1.26 -8.06 1.38 -8.04 1.5 -7.95 1.61 -7.88 1.73 -7.85 1.86 -7.81 1.97 -7.75 2.09 -7.69 2.21 -7.66 2.33 -7.59 2.45 -7.56 2.57 -7.51 2.68 -7.46 2.81 -7.41 2.92 -7.35 3.04 -7.33 3.17 -7.28 3.28 -7.2 3.39 -7.18 3.53 -7.16 3.66 -7.1 3.76 -43.24 -74.78 8.36 -4.44 8.38 -4.28 8.48 -4.17 8.56 -4.03 8.6 -3.88 8.63 -3.73 8.71 -3.6 8.77 -3.46 8.82 -3.31 8.87 -3.18 8.92 -3.03 8.99 -2.89 9.04 -2.75 9.09 -2.61 9.15 -2.47 9.19 -2.33 9.25 -2.18 9.32 -2.05 9.35 -1.89 9.38 -1.76 9.44 -1.62 9.53 -1.48 9.55 -1.32 9.56 -1.2 9.65 -1.05 9.71 -0.92 9.73 -0.76 9.79 -0.63 9.83 -0.48 9.87 -0.36 9.92 -0.2 9.96 -0.08 0 0zm-175.14 253.06l-44.22 -74.26 0 0 6.37 -3.48 6.37 -3.35 6.44 -3.27 6.5 -3.17 6.49 -3.03 6.55 -2.94 6.61 -2.84 6.6 -2.71 6.67 -2.61 6.7 -2.5 6.74 -2.4 6.77 -2.27 6.82 -2.18 6.84 -2.05 6.88 -1.95 6.9 -1.83 6.92 -1.72 7 -1.62 7.01 -1.5 7 -1.39 7.11 -1.28 7.09 -1.16 7.1 -1.05 7.15 -0.95 7.22 -0.83 7.21 -0.72 7.2 -0.6 7.27 -0.5 7.28 -0.39 7.32 -0.27 7.33 -0.17 7.37 -0.06 0 85.7 -5.99 0.04 -5.95 0.13 -5.92 0.23 -5.88 0.31 -5.85 0.4 -5.84 0.5 -5.79 0.56 -5.72 0.67 -5.71 0.75 -5.72 0.85 -5.65 0.92 -5.59 1.02 -5.62 1.11 -5.57 1.18 -5.5 1.28 -5.54 1.38 -5.48 1.45 -5.46 1.55 -5.42 1.63 -5.4 1.72 -5.37 1.81 -5.36 1.9 -5.32 1.98 -5.31 2.09 -5.3 2.17 -5.23 2.24 -5.25 2.36 -5.23 2.45 -5.18 2.51 -5.16 2.63 -5.19 2.73 -5.11 2.8 0 0zm-130.08 123.28l-75.9 -44.18 0 0.01 3.78 -5.98 3.86 -5.91 3.95 -5.83 4.05 -5.77 4.1 -5.67 4.21 -5.62 4.31 -5.56 4.34 -5.42 4.44 -5.38 4.55 -5.34 4.63 -5.24 4.71 -5.16 4.78 -5.07 4.85 -4.99 4.98 -4.96 5.03 -4.83 5.07 -4.74 5.24 -4.73 5.26 -4.59 5.34 -4.53 5.44 -4.44 5.51 -4.38 5.62 -4.31 5.65 -4.19 5.71 -4.1 5.82 -4.06 5.93 -3.98 5.96 -3.87 6.07 -3.82 6.13 -3.71 6.16 -3.62 6.28 -3.57 44.22 74.26 -5.1 2.89 -5.08 2.98 -4.97 3.01 -4.87 3.06 -4.84 3.15 -4.73 3.18 -4.68 3.26 -4.65 3.34 -4.57 3.39 -4.46 3.41 -4.41 3.5 -4.34 3.56 -4.28 3.63 -4.24 3.69 -4.1 3.71 -4.11 3.84 -4.03 3.87 -3.92 3.9 -3.89 4.01 -3.84 4.07 -3.75 4.12 -3.69 4.18 -3.61 4.22 -3.58 4.34 -3.54 4.42 -3.43 4.42 -3.37 4.52 -3.34 4.59 -3.25 4.65 -3.19 4.71 -3.14 4.79 -3.08 4.86 0 0.01zm-47.92 170.13l-88.58 0 0 0 0.05 -7.21 0.18 -7.21 0.3 -7.16 0.41 -7.1 0.52 -7.12 0.66 -7.09 0.76 -7.01 0.88 -7.01 1 -7 1.13 -6.95 1.24 -6.9 1.36 -6.87 1.47 -6.85 1.61 -6.84 1.72 -6.77 1.83 -6.74 1.97 -6.72 2.08 -6.67 2.18 -6.6 2.31 -6.58 2.44 -6.57 2.56 -6.54 2.67 -6.46 2.79 -6.43 2.9 -6.39 3.02 -6.34 3.14 -6.3 3.24 -6.25 3.38 -6.24 3.49 -6.19 3.6 -6.12 3.71 -6.08 75.9 44.18 -2.97 4.86 -2.86 4.88 -2.77 4.89 -2.66 4.92 -2.58 4.97 -2.48 4.98 -2.38 5.02 -2.3 5.03 -2.19 5.07 -2.11 5.1 -2 5.1 -1.9 5.13 -1.81 5.18 -1.74 5.24 -1.64 5.25 -1.53 5.26 -1.45 5.3 -1.36 5.35 -1.25 5.34 -1.17 5.41 -1.08 5.47 -0.98 5.48 -0.89 5.51 -0.8 5.54 -0.7 5.59 -0.62 5.67 -0.52 5.65 -0.42 5.68 -0.33 5.78 -0.24 5.8 -0.14 5.81 -0.05 5.87 0 0zm48.01 170.99l-76.08 43.9 0.01 0.01 -3.71 -6.12 -3.59 -6.17 -3.49 -6.21 -3.37 -6.27 -3.23 -6.27 -3.14 -6.35 -3.01 -6.37 -2.9 -6.4 -2.78 -6.47 -2.67 -6.49 -2.56 -6.55 -2.44 -6.61 -2.3 -6.61 -2.18 -6.6 -2.07 -6.69 -1.97 -6.75 -1.83 -6.76 -1.72 -6.78 -1.6 -6.85 -1.48 -6.87 -1.36 -6.88 -1.23 -6.92 -1.13 -6.94 -1 -7.02 -0.88 -7.02 -0.76 -7.01 -0.66 -7.11 -0.52 -7.13 -0.41 -7.1 -0.3 -7.15 -0.18 -7.22 -0.05 -7.21 88.58 0 0.05 5.87 0.14 5.82 0.24 5.79 0.33 5.8 0.42 5.69 0.52 5.65 0.62 5.69 0.7 5.6 0.8 5.54 0.89 5.54 0.99 5.5 1.08 5.48 1.16 5.43 1.26 5.37 1.36 5.38 1.45 5.34 1.53 5.27 1.65 5.27 1.74 5.28 1.82 5.23 1.9 5.15 2 5.13 2.11 5.15 2.2 5.09 2.3 5.08 2.39 5.07 2.48 5.01 2.59 5.01 2.67 4.97 2.77 4.95 2.87 4.93 2.97 4.9 0.01 0.01zm130.22 124.69l-44.68 74 0 0 -6.25 -3.6 -6.21 -3.69 -6.13 -3.77 -6.02 -3.83 -5.98 -3.93 -5.92 -4.04 -5.79 -4.08 -5.73 -4.16 -5.67 -4.26 -5.57 -4.32 -5.51 -4.41 -5.46 -4.52 -5.32 -4.56 -5.27 -4.64 -5.21 -4.76 -5.1 -4.81 -5.02 -4.89 -4.95 -4.97 -4.86 -5.05 -4.77 -5.12 -4.71 -5.2 -4.62 -5.29 -4.53 -5.35 -4.45 -5.44 -4.35 -5.49 -4.29 -5.59 -4.2 -5.66 -4.11 -5.71 -4.03 -5.81 -3.95 -5.88 -3.85 -5.93 -3.79 -6.03 76.08 -43.9 3.07 4.89 3.15 4.85 3.19 4.76 3.27 4.69 3.33 4.65 3.38 4.56 3.45 4.49 3.53 4.45 3.57 4.36 3.63 4.29 3.7 4.23 3.75 4.16 3.85 4.12 3.88 4.03 3.95 3.97 4.04 3.93 4.08 3.85 4.13 3.76 4.23 3.74 4.3 3.68 4.32 3.58 4.41 3.53 4.51 3.5 4.55 3.42 4.63 3.36 4.71 3.32 4.74 3.22 4.82 3.17 4.92 3.13 4.97 3.07 5.03 2.99 5.13 2.94 0 0zm176.38 45.93l0 85.7 0 0 -7.37 -0.06 -7.37 -0.17 -7.31 -0.28 -7.25 -0.39 -7.3 -0.5 -7.27 -0.62 -7.21 -0.74 -7.19 -0.84 -7.15 -0.96 -7.13 -1.07 -7.09 -1.18 -7.11 -1.29 -7.03 -1.42 -7.01 -1.52 -6.97 -1.63 -6.95 -1.74 -6.94 -1.88 -6.88 -1.97 -6.87 -2.09 -6.81 -2.21 -6.73 -2.3 -6.78 -2.43 -6.72 -2.55 -6.64 -2.64 -6.63 -2.75 -6.6 -2.88 -6.56 -2.97 -6.53 -3.1 -6.48 -3.21 -6.39 -3.29 -6.43 -3.42 -6.36 -3.53 44.68 -74 5.12 2.85 5.13 2.74 5.21 2.67 5.2 2.57 5.19 2.46 5.24 2.39 5.24 2.28 5.27 2.19 5.34 2.12 5.3 2.01 5.32 1.91 5.41 1.84 5.41 1.75 5.39 1.65 5.46 1.57 5.44 1.46 5.51 1.38 5.53 1.31 5.57 1.2 5.59 1.12 5.59 1.03 5.65 0.94 5.69 0.85 5.71 0.76 5.75 0.68 5.79 0.58 5.77 0.5 5.82 0.4 5.91 0.31 5.93 0.24 5.91 0.13 5.99 0.04 0 0zm174.65 -45.77l45.2 73.68 0 0 -6.27 3.55 -6.35 3.44 -6.33 3.29 -6.4 3.22 -6.48 3.11 -6.48 2.99 -6.55 2.88 -6.57 2.76 -6.58 2.65 -6.67 2.56 -6.72 2.43 -6.7 2.31 -6.76 2.21 -6.83 2.1 -6.83 1.98 -6.91 1.88 -6.9 1.74 -6.95 1.64 -6.98 1.52 -7 1.42 -7.08 1.3 -7.08 1.18 -7.1 1.07 -7.14 0.96 -7.16 0.84 -7.2 0.73 -7.26 0.63 -7.28 0.5 -7.25 0.39 -7.3 0.28 -7.38 0.17 -7.36 0.06 0 -85.7 5.98 -0.04 5.92 -0.13 5.9 -0.24 5.91 -0.31 5.8 -0.4 5.76 -0.49 5.76 -0.59 5.72 -0.68 5.68 -0.76 5.66 -0.85 5.62 -0.94 5.54 -1.02 5.56 -1.12 5.52 -1.2 5.47 -1.3 5.46 -1.38 5.39 -1.46 5.39 -1.56 5.33 -1.64 5.34 -1.75 5.34 -1.83 5.24 -1.91 5.23 -2 5.26 -2.11 5.19 -2.18 5.15 -2.28 5.16 -2.37 5.1 -2.45 5.1 -2.56 5.11 -2.67 5.03 -2.72 5.03 -2.83 0 0zm128.16 -124.63l76.34 43.46 0 0.01 -3.74 6.03 -3.8 5.93 -3.88 5.86 -3.97 5.79 -4.04 5.72 -4.16 5.69 -4.23 5.57 -4.27 5.47 -4.41 5.47 -4.48 5.36 -4.54 5.27 -4.62 5.19 -4.71 5.12 -4.79 5.06 -4.87 4.96 -4.96 4.91 -5.05 4.82 -5.1 4.73 -5.19 4.65 -5.26 4.57 -5.37 4.53 -5.44 4.42 -5.46 4.3 -5.59 4.27 -5.68 4.19 -5.71 4.08 -5.8 4.02 -5.91 3.95 -5.95 3.84 -6.02 3.77 -6.13 3.7 -6.17 3.6 -45.2 -73.68 5.03 -2.94 4.93 -2.98 4.9 -3.07 4.83 -3.12 4.71 -3.15 4.68 -3.24 4.65 -3.32 4.52 -3.33 4.45 -3.41 4.46 -3.52 4.34 -3.52 4.25 -3.57 4.22 -3.67 4.15 -3.73 4.1 -3.79 4.01 -3.84 3.96 -3.91 3.89 -3.98 3.83 -4.02 3.77 -4.12 3.72 -4.17 3.66 -4.25 3.58 -4.28 3.49 -4.33 3.49 -4.47 3.41 -4.51 3.32 -4.53 3.28 -4.64 3.23 -4.71 3.16 -4.78 3.12 -4.85 3.02 -4.89 0 0.01zm47.41 -171.21l88.58 0 0 0 -0.05 7.21 -0.18 7.19 -0.29 7.15 -0.41 7.13 -0.51 7.07 -0.64 7.07 -0.76 7.08 -0.87 7.01 -0.99 6.96 -1.1 6.95 -1.23 6.91 -1.33 6.89 -1.46 6.86 -1.57 6.79 -1.69 6.79 -1.82 6.79 -1.93 6.72 -2.04 6.65 -2.15 6.64 -2.29 6.64 -2.4 6.56 -2.5 6.52 -2.63 6.49 -2.73 6.44 -2.87 6.43 -2.98 6.38 -3.09 6.35 -3.21 6.28 -3.3 6.22 -3.43 6.21 -3.55 6.18 -3.65 6.11 -76.34 -43.46 2.93 -4.91 2.83 -4.92 2.73 -4.95 2.66 -5.02 2.55 -5 2.45 -5.01 2.36 -5.06 2.25 -5.05 2.17 -5.12 2.09 -5.15 1.98 -5.16 1.9 -5.2 1.79 -5.2 1.71 -5.24 1.62 -5.31 1.53 -5.3 1.42 -5.31 1.33 -5.37 1.25 -5.43 1.16 -5.44 1.07 -5.47 0.97 -5.51 0.88 -5.53 0.79 -5.6 0.71 -5.61 0.6 -5.62 0.5 -5.69 0.43 -5.75 0.33 -5.77 0.23 -5.79 0.14 -5.85 0.05 -5.87 0 0zm-47.33 -170.35l76.18 -43.74 0 0 3.66 6.08 3.55 6.13 3.44 6.19 3.31 6.2 3.21 6.25 3.09 6.3 2.99 6.35 2.87 6.41 2.73 6.41 2.64 6.46 2.51 6.52 2.39 6.51 2.3 6.61 2.16 6.64 2.04 6.64 1.93 6.69 1.82 6.76 1.69 6.78 1.57 6.77 1.46 6.85 1.34 6.88 1.23 6.9 1.1 6.94 0.99 6.95 0.87 7 0.76 7.07 0.63 7.07 0.52 7.05 0.41 7.13 0.29 7.16 0.18 7.18 0.05 7.21 -88.58 0 -0.05 -5.87 -0.14 -5.84 -0.23 -5.8 -0.33 -5.75 -0.42 -5.75 -0.51 -5.67 -0.6 -5.61 -0.71 -5.6 -0.79 -5.59 -0.88 -5.52 -0.97 -5.48 -1.06 -5.46 -1.16 -5.41 -1.25 -5.41 -1.33 -5.34 -1.42 -5.28 -1.53 -5.29 -1.62 -5.28 -1.7 -5.2 -1.78 -5.15 -1.91 -5.19 -1.97 -5.12 -2.08 -5.1 -2.17 -5.09 -2.25 -5.01 -2.35 -5.01 -2.45 -4.98 -2.55 -4.97 -2.65 -4.96 -2.72 -4.89 -2.83 -4.87 -2.92 -4.86 0 0zm-128.02 -123.21l44.76 -73.96 0 0 6.19 3.58 6.07 3.62 6.03 3.71 6 3.83 5.89 3.89 5.81 3.97 5.74 4.05 5.66 4.14 5.57 4.2 5.51 4.29 5.44 4.38 5.36 4.46 5.26 4.53 5.19 4.6 5.13 4.71 5.02 4.75 4.97 4.85 4.9 4.95 4.79 5 4.71 5.08 4.62 5.15 4.55 5.22 4.5 5.34 4.4 5.41 4.27 5.41 4.24 5.54 4.16 5.65 4.05 5.67 3.97 5.75 3.89 5.81 3.82 5.91 3.73 5.98 -76.18 43.74 -3.03 -4.86 -3.1 -4.79 -3.15 -4.73 -3.23 -4.67 -3.27 -4.59 -3.32 -4.49 -3.4 -4.44 -3.49 -4.43 -3.5 -4.31 -3.56 -4.22 -3.65 -4.2 -3.72 -4.13 -3.77 -4.06 -3.83 -4 -3.86 -3.91 -3.95 -3.85 -4.04 -3.83 -4.07 -3.73 -4.15 -3.68 -4.22 -3.63 -4.26 -3.54 -4.34 -3.5 -4.41 -3.43 -4.47 -3.38 -4.54 -3.3 -4.62 -3.27 -4.67 -3.19 -4.73 -3.13 -4.78 -3.05 -4.89 -3.01 -4.99 -2.98 -5.01 -2.88 0 0zm-174.87 -45.2l0 -85.7 0 0 7.36 0.06 7.34 0.17 7.3 0.27 7.29 0.39 7.25 0.5 7.19 0.61 7.2 0.71 7.19 0.84 7.14 0.94 7.07 1.05 7.08 1.16 7.07 1.29 6.98 1.39 6.98 1.5 6.97 1.63 6.87 1.72 6.88 1.83 6.84 1.96 6.79 2.06 6.76 2.18 6.74 2.28 6.69 2.4 6.64 2.51 6.62 2.62 6.54 2.72 6.55 2.84 6.48 2.95 6.43 3.05 6.44 3.18 6.36 3.27 6.3 3.37 6.29 3.49 -44.76 73.96 -5.01 -2.79 -5.08 -2.71 -5.08 -2.63 -5.06 -2.5 -5.15 -2.43 -5.16 -2.35 -5.15 -2.24 -5.22 -2.16 -5.22 -2.08 -5.26 -1.97 -5.27 -1.9 -5.3 -1.8 -5.34 -1.72 -5.37 -1.62 -5.38 -1.54 -5.42 -1.45 -5.49 -1.38 -5.45 -1.27 -5.52 -1.18 -5.58 -1.11 -5.55 -1.01 -5.62 -0.92 -5.69 -0.85 -5.68 -0.76 -5.69 -0.66 -5.76 -0.57 -5.83 -0.49 -5.83 -0.4 -5.87 -0.31 -5.9 -0.23 -5.96 -0.13 -5.98 -0.04 0 0z"/>
   </g>
   <path id="_1" class="fil0" d="M12604.98 16506.35c-47.9,-29.32 -97.52,-51.31 -148.85,-65.97 -51.33,-14.66 -98.51,-21.99 -141.52,-21.99 -59.64,0 -107.31,11.11 -142.99,33.34 -35.69,22.23 -53.53,52.73 -53.53,91.5 0,35 10.75,63.61 32.26,85.83 21.51,22.23 47.91,39.72 79.2,52.49 31.28,12.77 74.79,27.66 130.52,44.69 69.42,20.81 125.64,40.67 168.65,59.58 43.03,18.92 79.68,47.05 109.99,84.41 30.31,37.36 45.47,86.78 45.47,148.25 0,56.75 -15.89,106.4 -47.67,148.96 -31.77,42.56 -76.26,75.42 -133.45,98.59 -57.2,23.18 -122.94,34.76 -197.25,34.76 -75.29,0 -148.62,-14.18 -219.99,-42.56 -71.37,-28.37 -132.96,-66.2 -184.78,-113.49l63.06 -117.75c48.88,46.35 103.88,82.05 164.99,107.11 61.1,25.06 120.5,37.59 178.19,37.59 68.43,0 122.45,-13 162.05,-39.01 39.59,-26.01 59.39,-61.24 59.39,-105.69 0,-34.99 -10.75,-63.84 -32.26,-86.54 -21.51,-22.69 -48.64,-40.66 -81.39,-53.9 -32.76,-13.24 -77,-27.9 -132.73,-43.98 -68.43,-19.86 -124.16,-39.25 -167.19,-58.17 -43.01,-18.91 -79.43,-46.81 -109.26,-83.7 -29.81,-36.88 -44.72,-85.59 -44.72,-146.12 0,-52.96 15.15,-99.78 45.46,-140.44 30.31,-40.67 72.84,-71.88 127.59,-93.64 54.75,-21.75 118.3,-32.62 190.65,-32.62 61.59,0 121.98,8.74 181.12,26.24 59.15,17.5 111.71,40.91 157.66,70.22l-58.67 122.01zm380.43 -207.12l140.8 0 0 993.05 -140.8 0 0 -993.05zm1241.29 0l139.32 0 0 993.05 -142.24 0 -586.62 -768.91 0 768.91 -140.8 0 0 -993.05 142.25 0 588.09 770.32 0 -770.32zm1254.5 238.33c-39.11,-39.72 -84.57,-70.7 -136.39,-92.92 -51.82,-22.23 -105.1,-33.34 -159.86,-33.34 -72.34,0 -138.83,17.02 -199.44,51.07 -60.62,34.05 -108.53,80.15 -143.73,138.32 -35.2,58.16 -52.79,122.24 -52.79,192.23 0,69.04 17.59,132.88 52.79,191.51 35.2,58.64 83.11,104.98 143.73,139.03 60.61,34.05 127.1,51.07 199.44,51.07 53.78,0 106.57,-10.64 158.4,-31.92 51.81,-21.28 97.76,-50.36 137.85,-87.24l85.06 89.37c-51.81,49.18 -111.95,87.72 -180.38,115.62 -68.45,27.9 -137.86,41.85 -208.26,41.85 -97.77,0 -187.22,-22.46 -268.37,-67.39 -81.15,-44.92 -145.2,-106.16 -192.13,-183.71 -46.92,-77.55 -70.39,-163.15 -70.39,-256.78 0,-92.68 23.71,-177.56 71.13,-254.64 47.41,-77.08 112.19,-137.85 194.31,-182.3 82.14,-44.45 172.57,-66.68 271.32,-66.68 71.38,0 140.55,13.01 207.51,39.02 66.98,26 124.91,62.65 173.79,109.94l-83.59 97.89zm358.43 -238.33l712.75 0 0 123.42 -571.95 0 0 306.43 511.81 0 0 123.42 -511.81 0 0 316.36 589.54 0 0 123.42 -730.34 0 0 -993.05zm1034.51 0l140.8 0 0 869.63 448.76 0 0 123.42 -589.56 0 0 -993.05zm845.32 0l712.75 0 0 123.42 -571.95 0 0 306.43 511.82 0 0 123.42 -511.82 0 0 316.36 589.55 0 0 123.42 -730.35 0 0 -993.05zm1483.28 692.3c0,97.41 -26.89,172.84 -80.65,226.27 -53.78,53.44 -128.57,80.15 -224.39,80.15 -57.69,0 -111.45,-12.29 -161.32,-36.88 -49.86,-24.59 -93.37,-59.58 -130.53,-104.98l68.93 -104.98c32.27,36.88 67.71,65.02 106.33,84.41 38.62,19.39 76.99,29.08 115.12,29.08 52.8,0 93.37,-15.37 121.72,-46.1 28.36,-30.74 42.53,-74.48 42.53,-131.23l0 -563.2 -362.23 0 0 -124.84 504.49 0 0 692.3zm795.46 -700.82c98.75,0 189.43,22.23 272.05,66.68 82.62,44.45 147.88,105.22 195.78,182.3 47.91,77.08 71.87,161.96 71.87,254.64 0,92.69 -23.96,178.04 -71.87,256.07 -47.9,78.03 -113.16,139.5 -195.78,184.42 -82.62,44.93 -173.3,67.39 -272.05,67.39 -98.74,0 -189.42,-22.46 -272.04,-67.39 -82.61,-44.92 -147.87,-106.39 -195.79,-184.42 -47.9,-78.03 -71.86,-163.38 -71.86,-256.07 0,-92.68 23.96,-177.56 71.86,-254.64 47.92,-77.08 112.93,-137.85 195.05,-182.3 82.14,-44.45 173.06,-66.68 272.78,-66.68zm1.47 122.01c-71.37,0 -137.61,17.02 -198.72,51.07 -61.11,34.05 -109.75,80.15 -145.92,138.32 -36.18,58.16 -54.26,122.24 -54.26,192.22 0,69.99 18.08,134.3 54.26,192.94 36.17,58.64 84.81,105.22 145.92,139.74 61.11,34.52 127.35,51.78 198.72,51.78 71.37,0 137.12,-17.26 197.25,-51.78 60.13,-34.52 108.04,-81.1 143.73,-139.74 35.68,-58.64 53.53,-122.95 53.53,-192.94 0,-69.98 -17.85,-134.06 -53.53,-192.22 -35.69,-58.17 -83.6,-104.27 -143.73,-138.32 -60.13,-34.05 -125.88,-51.07 -197.25,-51.07z"/>
  </g>
 </g>
</svg>
