<?xml version="1.0" encoding="UTF-8"?>
<!DOCTYPE svg PUBLIC "-//W3C//DTD SVG 1.1//EN" "http://www.w3.org/Graphics/SVG/1.1/DTD/svg11.dtd">
<!-- Creator: CorelDRAW -->
<svg xmlns="http://www.w3.org/2000/svg" xml:space="preserve" width="215.9mm" height="279.4mm" version="1.1" style="shape-rendering:geometricPrecision; text-rendering:geometricPrecision; image-rendering:optimizeQuality; fill-rule:evenodd; clip-rule:evenodd"
viewBox="0 0 21590 27940"
 xmlns:xlink="http://www.w3.org/1999/xlink"
 xmlns:xodm="http://www.corel.com/coreldraw/odm/2003">
 <defs>
  <style type="text/css">
   <![CDATA[
    .fil2 {fill:black;fill-rule:nonzero}
    .fil5 {fill:#159C53;fill-rule:nonzero}
    .fil4 {fill:#5CC098;fill-rule:nonzero}
    .fil3 {fill:#6ABD50;fill-rule:nonzero}
    .fil0 {fill:white;fill-rule:nonzero}
    .fil1 {fill:white;fill-rule:nonzero}
   ]]>
  </style>
 </defs>
 <g id="Capa_x0020_1">
  <metadata id="CorelCorpID_0Corel-Layer"/>
  <g id="_2629839840432">
   <path class="fil0" d="M15501.49 13201.13c0,2595.07 -2111.41,4706.49 -4706.49,4706.49 -2595.08,0 -4706.49,-2111.42 -4706.49,-4706.49 0,-2595.08 2111.41,-4706.5 4706.49,-4706.5 2595.08,0 4706.49,2111.42 4706.49,4706.5zm-4706.49 -5154.21c-2841.89,0 -5154.2,2312.01 -5154.2,5154.21 0,2841.89 2312.31,5154.2 5154.2,5154.2 2841.89,0 5154.2,-2312.31 5154.2,-5154.2 0,-2842.2 -2312.31,-5154.21 -5154.2,-5154.21z"/>
   <path class="fil0" d="M12649.03 13221.37l-3.35 -0.82 1.79 -2.83c124.45,-191.44 175.95,-412.8 148.34,-640.19 -58.28,-480.01 -476.81,-841.82 -973.87,-841.82l-1396.94 0 0 626.49 -4.17 -4.69c-392.03,-439.82 -953.48,-664.08 -1540.6,-615.55 -901.97,74.58 -1629.84,811.9 -1692.81,1715.44 -36.54,519.9 138.89,1015.7 493.64,1396.19 349.98,375.22 844.21,590.55 1355.93,590.55 899.88,0 1686.85,-669.59 1830.21,-1557.64l3.65 -23.38 -23.38 0.53c-243.91,5.5 -464.23,142.83 -575.06,358.39 -265.42,516.78 -810.79,810.34 -1389.57,747.59 -660.07,-71.45 -1189.43,-626.27 -1231.18,-1290.35 -24.42,-387.57 108.15,-756.46 373.35,-1039 261.78,-278.9 630.74,-438.48 1011.98,-438.48 467.43,0 900.7,233.64 1159.05,625.45 128.1,194.27 338.22,310.09 562.41,310.09l132.64 0 0 -935.54 934.27 0c268.85,0 493.12,202.16 510.46,459.99 9.15,138.37 -37.81,269.97 -132.34,371.04 -93.26,99.82 -224.79,157.06 -360.55,157.06l-594.49 0 0.82 20.46c12.36,249.72 217.64,445.33 468.18,445.33l651.73 0c348.41,0 645.92,262.6 677.4,597.39 17.64,188.54 -42.28,369.19 -169.33,508.3 -125.27,137.63 -303.31,216.67 -488.95,216.67l-1317.89 0c-250.24,0 -455.82,195.61 -468.18,445.55l-0.74 20.55 1758.75 0c603.95,0 1110.16,-458.5 1152.44,-1044.06 39.89,-554.3 -323.19,-1050.02 -863.64,-1178.71z"/>
   <path class="fil0" d="M13431.68 11736.08l-20.46 -1.04 0 1387.78c0,142.84 64.08,275.92 175.36,365.46 77.78,62.23 170.97,97.44 270.19,102.2l20.54 1.04 0 -1387.49c0,-250.54 -195.91,-455.82 -445.63,-467.95z"/>
   <path class="fil0" d="M12935.45 11890.38c65.87,54.55 149.38,87.38 234.98,92.14l20.76 1.34 0 -603.42c0,-214.81 -167.77,-392.55 -382.06,-404.91l-20.76 -1.04 0 603.42c0,121.25 53.59,235.28 147.08,312.47z"/>
   <path class="fil0" d="M13692.12 11375.53c78.53,-76.67 121.85,-179.31 121.85,-289.1l0 -506.21 -20.47 1.04c-214.59,11.32 -382.36,188.24 -382.36,403.05l0 506.51 20.47 -1.04c97.73,-5.28 190.1,-45.7 260.51,-114.25z"/>
   <path class="fil0" d="M14319.06 12237.68c65.95,-65.88 102.13,-153.33 102.13,-246.52l0 -464.83 -20.99 1.34c-182.21,12.35 -325.35,165.16 -325.35,347.89l0 464.83 20.99 -1.34c84.04,-5.51 163.38,-41.46 223.22,-101.37z"/>
   <g>
    <path class="fil1" d="M6770.65 19022.83l25.68 -87.14 0.01 0 5.33 1.61 5.29 1.64 5.29 1.69 5.29 1.76 5.26 1.79 5.25 1.84 5.24 1.88 5.22 1.94 5.21 1.99 5.24 2.05 5.19 2.08 5.18 2.13 5.16 2.19 5.11 2.21 5.18 2.28 5.16 2.35 5.08 2.36 5.1 2.41 5.08 2.47 5.13 2.54 5.05 2.57 5 2.58 5.07 2.67 5.04 2.72 5 2.75 5.03 2.83 4.97 2.85 4.92 2.87 4.97 2.95 4.97 3.01 4.93 3.04 4.9 3.08 -48.5 76.78 -4.3 -2.7 -4.31 -2.66 -4.27 -2.59 -4.31 -2.55 -4.38 -2.55 -4.33 -2.49 -4.31 -2.41 -4.34 -2.39 -4.34 -2.34 -4.33 -2.29 -4.42 -2.28 -4.37 -2.23 -4.33 -2.14 -4.4 -2.13 -4.4 -2.09 -4.44 -2.06 -4.38 -1.99 -4.38 -1.94 -4.47 -1.93 -4.44 -1.87 -4.44 -1.83 -4.45 -1.8 -4.42 -1.73 -4.47 -1.69 -4.48 -1.66 -4.48 -1.62 -4.49 -1.58 -4.5 -1.53 -4.49 -1.48 -4.53 -1.45 -4.53 -1.42 -4.51 -1.35 0.01 0zm-132.1 -21.45l0 -90.86 0 0 4.63 0.02 4.65 0.08 4.67 0.12 4.75 0.18 4.7 0.24 4.73 0.27 4.75 0.33 4.71 0.38 4.84 0.42 4.8 0.48 4.82 0.52 4.89 0.59 4.81 0.61 4.88 0.67 4.95 0.73 4.9 0.77 4.94 0.81 4.94 0.87 4.98 0.91 4.99 0.96 5 1 5.03 1.06 5.05 1.1 5.12 1.16 5.08 1.2 5.07 1.23 5.16 1.29 5.15 1.35 5.18 1.38 5.22 1.45 5.14 1.46 5.25 1.53 -25.68 87.14 -4.59 -1.33 -4.64 -1.32 -4.5 -1.25 -4.5 -1.2 -4.49 -1.17 -4.42 -1.11 -4.47 -1.09 -4.4 -1.04 -4.32 -0.98 -4.33 -0.94 -4.31 -0.9 -4.28 -0.86 -4.23 -0.82 -4.22 -0.77 -4.18 -0.73 -4.16 -0.69 -4.12 -0.65 -4.03 -0.59 -4.06 -0.55 -4.07 -0.53 -3.95 -0.47 -3.96 -0.42 -3.94 -0.4 -3.84 -0.34 -3.93 -0.3 -3.83 -0.27 -3.81 -0.23 -3.78 -0.18 -3.69 -0.14 -3.71 -0.1 -3.69 -0.06 -3.65 -0.02 0 0zm-121.89 28.12l-49.1 -76.4 -0.01 0.01 4.38 -2.77 4.45 -2.64 4.47 -2.53 4.65 -2.49 4.66 -2.34 4.63 -2.22 4.81 -2.19 4.9 -2.09 4.91 -1.97 4.95 -1.87 5.06 -1.8 5.11 -1.69 5.11 -1.6 5.28 -1.54 5.28 -1.42 5.3 -1.32 5.39 -1.26 5.41 -1.15 5.52 -1.09 5.62 -1 5.58 -0.9 5.67 -0.84 5.74 -0.74 5.76 -0.66 5.85 -0.59 5.91 -0.5 5.96 -0.43 6.02 -0.34 6.08 -0.27 6.09 -0.19 6.2 -0.12 6.25 -0.03 0 90.86 -5.13 0.03 -5.04 0.1 -5.01 0.15 -4.86 0.21 -4.78 0.28 -4.7 0.33 -4.61 0.4 -4.53 0.45 -4.48 0.52 -4.34 0.56 -4.27 0.62 -4.22 0.68 -4.04 0.72 -4 0.79 -3.95 0.85 -3.83 0.88 -3.78 0.96 -3.66 0.98 -3.52 1.02 -3.53 1.1 -3.41 1.13 -3.3 1.18 -3.27 1.23 -3.15 1.27 -3.04 1.29 -2.97 1.35 -3.01 1.44 -2.84 1.44 -2.71 1.45 -2.73 1.55 -2.63 1.56 -2.54 1.59 -0.01 0.01zm-34.01 58.82l-90.72 0 0 0 0.07 -5.09 0.21 -5.12 0.37 -5.1 0.52 -5.02 0.66 -5 0.82 -4.95 0.98 -4.99 1.15 -4.94 1.28 -4.78 1.46 -4.87 1.63 -4.79 1.76 -4.68 1.94 -4.63 2.07 -4.55 2.27 -4.55 2.41 -4.43 2.52 -4.29 2.69 -4.25 2.86 -4.2 2.99 -4.08 3.1 -3.94 3.21 -3.84 3.37 -3.78 3.49 -3.67 3.62 -3.57 3.72 -3.47 3.81 -3.34 3.9 -3.24 4.04 -3.16 4.14 -3.07 4.25 -2.97 4.32 -2.86 49.1 76.4 -2.42 1.6 -2.29 1.61 -2.18 1.61 -2.06 1.62 -1.98 1.64 -1.87 1.64 -1.74 1.61 -1.64 1.63 -1.53 1.61 -1.45 1.62 -1.39 1.66 -1.3 1.66 -1.19 1.62 -1.1 1.6 -1.05 1.67 -1.02 1.73 -0.91 1.67 -0.83 1.67 -0.81 1.77 -0.74 1.79 -0.7 1.86 -0.63 1.83 -0.56 1.87 -0.54 2.06 -0.47 2 -0.4 2.05 -0.36 2.19 -0.3 2.24 -0.24 2.34 -0.17 2.34 -0.11 2.44 -0.03 2.57 0 0zm20.8 59.95l-66.24 62.1 0.01 0 -2.8 -3.07 -2.68 -3.09 -2.65 -3.2 -2.54 -3.25 -2.46 -3.31 -2.36 -3.35 -2.3 -3.43 -2.26 -3.59 -2.09 -3.52 -1.98 -3.54 -1.91 -3.6 -1.88 -3.76 -1.73 -3.76 -1.63 -3.73 -1.59 -3.91 -1.45 -3.87 -1.35 -3.86 -1.27 -3.93 -1.21 -4.08 -1.06 -3.96 -1 -4.03 -0.9 -4.08 -0.8 -4.05 -0.74 -4.2 -0.63 -4.16 -0.54 -4.19 -0.46 -4.21 -0.36 -4.17 -0.29 -4.25 -0.21 -4.28 -0.12 -4.3 -0.04 -4.32 90.72 0 0.02 2.6 0.08 2.54 0.11 2.48 0.17 2.43 0.22 2.43 0.24 2.31 0.3 2.25 0.33 2.2 0.36 2.08 0.44 2.15 0.44 2.04 0.5 2.01 0.54 2.02 0.53 1.8 0.61 1.87 0.65 1.88 0.67 1.77 0.67 1.67 0.77 1.75 0.77 1.66 0.78 1.56 0.87 1.66 0.92 1.62 0.93 1.58 0.9 1.43 1 1.49 1.06 1.51 1.1 1.47 1.12 1.43 1.17 1.42 1.26 1.45 1.26 1.39 0.01 0zm65.63 44.86l-35.28 83.7 0.01 0.01 -3.5 -1.5 -3.47 -1.55 -3.38 -1.54 -3.41 -1.61 -3.35 -1.64 -3.36 -1.69 -3.36 -1.74 -3.26 -1.75 -3.27 -1.8 -3.24 -1.84 -3.18 -1.87 -3.16 -1.9 -3.15 -1.95 -3.09 -1.98 -3.09 -2.02 -3.05 -2.08 -3.03 -2.1 -2.99 -2.15 -2.92 -2.14 -2.89 -2.19 -2.9 -2.26 -2.9 -2.32 -2.79 -2.3 -2.81 -2.37 -2.75 -2.41 -2.7 -2.41 -2.73 -2.51 -2.62 -2.48 -2.59 -2.51 -2.63 -2.63 -2.51 -2.59 -2.52 -2.64 66.24 -62.1 1.64 1.74 1.71 1.75 1.65 1.65 1.75 1.69 1.76 1.68 1.73 1.59 1.82 1.63 1.81 1.57 1.83 1.55 1.89 1.56 1.84 1.48 1.92 1.48 1.97 1.49 2 1.48 1.99 1.43 2.01 1.4 2.05 1.38 2.07 1.36 2.13 1.36 2.11 1.31 2.18 1.32 2.22 1.29 2.2 1.26 2.25 1.24 2.3 1.23 2.26 1.18 2.34 1.17 2.39 1.16 2.39 1.13 2.48 1.14 2.45 1.09 2.48 1.06 0.01 0.01zm129.46 45.84l-26.86 86.78 -0.23 -0.07 -5.38 -1.71 -5.32 -1.69 -5.23 -1.69 -5.2 -1.67 -5.09 -1.66 -5.02 -1.64 -4.99 -1.64 -4.87 -1.62 -4.85 -1.62 -4.72 -1.59 -4.68 -1.58 -4.63 -1.59 -4.52 -1.55 -4.47 -1.55 -4.41 -1.55 -4.35 -1.53 -4.25 -1.52 -4.14 -1.49 -4.15 -1.49 -4.07 -1.5 -3.97 -1.46 -3.9 -1.46 -3.81 -1.44 -3.82 -1.45 -3.75 -1.44 -3.61 -1.41 -3.56 -1.4 -3.5 -1.4 -3.4 -1.37 -3.43 -1.39 -3.35 -1.39 -3.21 -1.36 35.28 -83.7 2.87 1.2 2.87 1.19 2.95 1.21 3.12 1.25 3.16 1.26 3.26 1.28 3.35 1.31 3.35 1.3 3.44 1.31 3.59 1.34 3.64 1.36 3.73 1.38 3.77 1.38 3.83 1.39 4 1.43 4.03 1.44 4.09 1.45 4.15 1.45 4.25 1.47 4.36 1.51 4.37 1.49 4.5 1.52 4.58 1.55 4.61 1.54 4.73 1.56 4.75 1.58 4.88 1.58 4.95 1.62 5 1.61 5.09 1.63 5.18 1.65 5.24 1.67 -0.23 -0.07zm-26.86 86.78l-0.46 -0.14 0.23 0.07 0.23 0.07zm204.9 -21.57l-37.52 82.72 -0.02 0 -3.9 -1.77 -4.05 -1.79 -4.1 -1.81 -4.17 -1.79 -4.26 -1.82 -4.34 -1.81 -4.43 -1.83 -4.51 -1.84 -4.64 -1.86 -4.7 -1.87 -4.76 -1.86 -4.85 -1.88 -4.94 -1.88 -5.06 -1.9 -5.1 -1.91 -5.2 -1.91 -5.27 -1.92 -5.35 -1.92 -5.43 -1.94 -5.56 -1.94 -5.61 -1.96 -5.64 -1.94 -5.81 -1.97 -5.89 -1.99 -5.93 -1.98 -5.99 -1.98 -6.09 -1.98 -6.23 -2.01 -6.28 -2.02 -6.32 -2.01 -6.41 -2.02 -6.54 -2.04 26.86 -86.78 6.72 2.1 6.67 2.08 6.62 2.11 6.48 2.08 6.39 2.07 6.37 2.08 6.31 2.08 6.21 2.08 6.09 2.05 6.03 2.05 6.02 2.06 5.89 2.06 5.8 2.04 5.75 2.04 5.69 2.04 5.59 2.04 5.52 2.03 5.46 2.03 5.34 2.02 5.3 2.02 5.23 2.02 5.16 2.02 5.06 2.01 4.98 2 4.93 2 4.87 2.01 4.78 2.01 4.72 2 4.63 2.01 4.56 1.99 4.45 1.99 4.44 1.99 -0.02 0zm129.57 102.81l-71.36 56.1 0 0 -2.53 -3.17 -2.59 -3.17 -2.61 -3.1 -2.57 -2.98 -2.63 -2.94 -2.73 -2.97 -2.7 -2.86 -2.71 -2.79 -2.73 -2.72 -2.8 -2.71 -2.87 -2.69 -2.84 -2.61 -2.85 -2.52 -2.88 -2.47 -2.91 -2.42 -2.99 -2.41 -3 -2.35 -3.06 -2.31 -3.04 -2.25 -3.04 -2.15 -3.16 -2.17 -3.17 -2.12 -3.15 -2.02 -3.2 -2 -3.25 -1.95 -3.27 -1.89 -3.33 -1.86 -3.36 -1.82 -3.42 -1.78 -3.39 -1.7 -3.44 -1.65 -3.51 -1.64 37.52 -82.72 4.71 2.18 4.72 2.27 4.67 2.36 4.58 2.38 4.56 2.46 4.51 2.52 4.49 2.61 4.45 2.67 4.42 2.74 4.37 2.82 4.29 2.86 4.24 2.91 4.26 3.03 4.18 3.07 4.1 3.11 4.08 3.19 4.01 3.23 4.03 3.34 3.96 3.41 3.93 3.48 3.84 3.51 3.75 3.53 3.76 3.63 3.73 3.72 3.69 3.79 3.6 3.82 3.51 3.83 3.55 3.96 3.51 4.06 3.39 4.04 3.35 4.09 3.33 4.19 0 0zm56.24 185.24l-90.72 0 0 0 -0.05 -5.39 -0.11 -5.31 -0.2 -5.17 -0.28 -5.12 -0.36 -5.03 -0.43 -4.94 -0.51 -4.84 -0.58 -4.75 -0.66 -4.66 -0.72 -4.54 -0.81 -4.49 -0.87 -4.38 -0.94 -4.26 -1.01 -4.21 -1.09 -4.13 -1.15 -4.05 -1.22 -3.96 -1.27 -3.85 -1.35 -3.78 -1.4 -3.68 -1.48 -3.63 -1.53 -3.53 -1.59 -3.42 -1.7 -3.45 -1.72 -3.32 -1.77 -3.21 -1.86 -3.18 -1.88 -3.06 -1.99 -3.03 -2.08 -3.04 -2.09 -2.88 -2.18 -2.85 71.36 -56.1 3.56 4.65 3.45 4.78 3.28 4.76 3.21 4.91 3.12 5.04 2.96 5.08 2.87 5.19 2.72 5.24 2.58 5.25 2.51 5.42 2.37 5.47 2.26 5.53 2.14 5.62 2.01 5.66 1.91 5.75 1.78 5.8 1.67 5.85 1.55 5.91 1.45 5.99 1.34 6.08 1.21 6.12 1.11 6.17 1 6.26 0.88 6.28 0.78 6.35 0.67 6.4 0.57 6.46 0.46 6.53 0.36 6.58 0.26 6.67 0.15 6.69 0.05 6.75 0 0zm-57.39 184.54l-73.56 -53.2 0 0 2.48 -3.51 2.4 -3.54 2.32 -3.58 2.24 -3.62 2.15 -3.63 2.08 -3.67 1.97 -3.66 1.9 -3.74 1.86 -3.81 1.76 -3.81 1.66 -3.79 1.59 -3.88 1.54 -3.95 1.44 -3.93 1.37 -4.01 1.31 -4.07 1.21 -4.05 1.13 -4.09 1.06 -4.21 1 -4.21 0.89 -4.23 0.85 -4.37 0.76 -4.37 0.67 -4.37 0.6 -4.46 0.53 -4.57 0.45 -4.57 0.36 -4.59 0.28 -4.68 0.21 -4.74 0.12 -4.78 0.04 -4.85 90.72 0 -0.06 6.39 -0.16 6.36 -0.27 6.32 -0.38 6.3 -0.5 6.29 -0.61 6.23 -0.71 6.15 -0.82 6.16 -0.95 6.15 -1.06 6.07 -1.15 5.99 -1.29 6.05 -1.4 5.97 -1.5 5.87 -1.63 5.91 -1.75 5.87 -1.85 5.75 -1.95 5.73 -2.1 5.73 -2.18 5.61 -2.31 5.6 -2.44 5.59 -2.54 5.49 -2.62 5.39 -2.76 5.4 -2.89 5.36 -2.98 5.29 -3.09 5.21 -3.2 5.16 -3.3 5.1 -3.42 5.06 -3.52 4.99 0 0zm-155.94 119.84l-35.04 -83.8 0 0 4.84 -2.07 4.78 -2.14 4.69 -2.17 4.62 -2.22 4.55 -2.27 4.41 -2.29 4.37 -2.36 4.31 -2.41 4.21 -2.45 4.13 -2.49 4.07 -2.54 3.96 -2.57 3.88 -2.62 3.86 -2.7 3.74 -2.7 3.65 -2.75 3.64 -2.83 3.53 -2.85 3.45 -2.89 3.37 -2.93 3.35 -3.02 3.23 -3.01 3.15 -3.06 3.14 -3.16 3.04 -3.16 2.95 -3.2 2.94 -3.3 2.83 -3.3 2.78 -3.38 2.73 -3.42 2.63 -3.45 2.59 -3.53 73.56 53.2 -3.59 4.87 -3.69 4.83 -3.77 4.74 -3.84 4.66 -3.97 4.62 -4 4.5 -4.13 4.48 -4.22 4.4 -4.26 4.28 -4.39 4.26 -4.47 4.17 -4.51 4.06 -4.63 4.03 -4.73 3.95 -4.77 3.85 -4.84 3.77 -4.95 3.73 -5.04 3.64 -5.06 3.54 -5.2 3.5 -5.26 3.41 -5.33 3.34 -5.39 3.25 -5.49 3.19 -5.53 3.09 -5.61 3.04 -5.73 2.97 -5.75 2.87 -5.84 2.82 -5.91 2.73 -5.98 2.66 -6.06 2.59 0 0zm-219.53 40.39l0 -90.86 0 0 6.66 -0.04 6.61 -0.09 6.47 -0.17 6.5 -0.24 6.42 -0.3 6.37 -0.37 6.32 -0.43 6.19 -0.49 6.2 -0.58 6.14 -0.62 6.08 -0.71 6.04 -0.75 5.89 -0.82 5.92 -0.9 5.85 -0.95 5.8 -1.03 5.75 -1.07 5.61 -1.14 5.64 -1.22 5.56 -1.27 5.52 -1.34 5.46 -1.4 5.35 -1.45 5.34 -1.53 5.33 -1.6 5.22 -1.63 5.15 -1.71 5.15 -1.78 5.04 -1.82 5.02 -1.9 4.97 -1.96 4.92 -2.02 35.04 83.8 -6.12 2.52 -6.15 2.42 -6.22 2.36 -6.3 2.28 -6.31 2.18 -6.39 2.11 -6.44 2.03 -6.41 1.92 -6.52 1.87 -6.61 1.79 -6.6 1.68 -6.64 1.62 -6.7 1.53 -6.74 1.46 -6.85 1.38 -6.83 1.29 -6.88 1.21 -6.93 1.13 -6.96 1.06 -7.09 0.98 -7.06 0.89 -7.1 0.81 -7.16 0.74 -7.2 0.66 -7.31 0.59 -7.28 0.49 -7.33 0.43 -7.38 0.34 -7.42 0.28 -7.53 0.19 -7.51 0.11 -7.56 0.04 0 0zm-242.54 -48.54l34.5 -84.04 -0.01 0 6.36 2.58 6.37 2.48 6.42 2.43 6.39 2.33 6.35 2.23 6.42 2.16 6.44 2.09 6.41 2 6.43 1.91 6.44 1.84 6.43 1.74 6.46 1.68 6.45 1.58 6.46 1.5 6.49 1.43 6.49 1.34 6.48 1.25 6.52 1.19 6.51 1.09 6.54 1.02 6.53 0.94 6.53 0.84 6.58 0.78 6.56 0.69 6.57 0.61 6.62 0.52 6.59 0.46 6.6 0.35 6.65 0.29 6.66 0.2 6.64 0.13 6.66 0.04 0 90.86 -7.78 -0.04 -7.78 -0.15 -7.74 -0.24 -7.73 -0.33 -7.74 -0.43 -7.73 -0.52 -7.68 -0.62 -7.71 -0.71 -7.7 -0.81 -7.66 -0.9 -7.67 -1 -7.67 -1.1 -7.62 -1.18 -7.63 -1.29 -7.6 -1.37 -7.6 -1.47 -7.59 -1.58 -7.55 -1.65 -7.56 -1.76 -7.55 -1.86 -7.52 -1.94 -7.51 -2.04 -7.5 -2.14 -7.47 -2.23 -7.47 -2.32 -7.42 -2.41 -7.42 -2.5 -7.45 -2.61 -7.41 -2.71 -7.34 -2.77 -7.37 -2.88 -7.36 -2.98 -0.01 0zm-212.27 -183.26l80.56 41.8 -9.15 -53.95 4.58 4.29 4.68 4.25 4.72 4.2 4.75 4.12 4.84 4.1 4.86 4.02 4.92 3.96 5.02 3.95 5.03 3.87 5.08 3.8 5.19 3.78 5.2 3.71 5.28 3.66 5.33 3.62 5.38 3.55 5.43 3.5 5.5 3.45 5.58 3.42 5.61 3.34 5.68 3.3 5.71 3.24 5.77 3.17 5.89 3.16 5.91 3.09 5.98 3.04 6.01 2.99 6.08 2.92 6.14 2.88 6.22 2.82 6.27 2.78 6.33 2.72 6.39 2.67 -34.5 84.04 -7.25 -3.03 -7.21 -3.1 -7.13 -3.16 -7.08 -3.22 -7.04 -3.3 -6.98 -3.36 -6.93 -3.43 -6.84 -3.48 -6.79 -3.55 -6.71 -3.6 -6.71 -3.69 -6.63 -3.76 -6.56 -3.8 -6.51 -3.9 -6.42 -3.92 -6.4 -4.01 -6.33 -4.08 -6.28 -4.15 -6.19 -4.2 -6.14 -4.26 -6.1 -4.35 -5.99 -4.38 -6 -4.48 -5.91 -4.55 -5.82 -4.57 -5.78 -4.66 -5.74 -4.74 -5.64 -4.78 -5.61 -4.86 -5.52 -4.92 -5.46 -4.97 -5.42 -5.05 -9.15 -53.95zm9.15 53.95l-24.89 -23.52 15.74 -30.43 9.15 53.95zm135.99 -137l-64.58 124.85 -80.56 -41.8 64.58 -124.85 72.03 -11.54 8.53 53.34zm-80.56 -41.8l28.22 -54.55 43.81 43.01 -72.03 11.54zm226.95 92.64l-35.4 83.66 0 0 -6.33 -2.73 -6.32 -2.82 -6.27 -2.88 -6.21 -2.95 -6.21 -3.03 -6.15 -3.11 -6.07 -3.15 -6.08 -3.24 -6.05 -3.33 -5.97 -3.37 -5.95 -3.46 -5.92 -3.53 -5.87 -3.61 -5.84 -3.68 -5.76 -3.72 -5.74 -3.8 -5.72 -3.9 -5.68 -3.96 -5.63 -4.04 -5.56 -4.08 -5.55 -4.17 -5.51 -4.25 -5.42 -4.28 -5.41 -4.36 -5.4 -4.47 -5.31 -4.5 -5.3 -4.59 -5.25 -4.66 -5.2 -4.72 -5.16 -4.79 -5.11 -4.85 -5.07 -4.93 63.5 -64.88 4.35 4.21 4.39 4.17 4.4 4.09 4.46 4.04 4.45 3.96 4.5 3.89 4.55 3.86 4.54 3.75 4.61 3.72 4.66 3.68 4.65 3.59 4.67 3.51 4.74 3.48 4.75 3.4 4.78 3.34 4.8 3.26 4.86 3.22 4.9 3.18 4.92 3.1 4.95 3.03 4.96 2.97 5.01 2.9 5.07 2.87 5.07 2.79 5.1 2.72 5.19 2.69 5.17 2.61 5.21 2.55 5.25 2.49 5.29 2.44 5.3 2.36 5.37 2.31 0 0zm164.79 36.26l0 90.86 0 0 -6.19 -0.04 -6.17 -0.14 -6.17 -0.21 -6.22 -0.3 -6.22 -0.39 -6.24 -0.48 -6.19 -0.56 -6.21 -0.64 -6.24 -0.74 -6.25 -0.82 -6.27 -0.91 -6.21 -0.99 -6.23 -1.06 -6.28 -1.16 -6.26 -1.25 -6.24 -1.32 -6.24 -1.4 -6.29 -1.5 -6.29 -1.58 -6.3 -1.67 -6.25 -1.74 -6.25 -1.81 -6.3 -1.91 -6.3 -2 -6.31 -2.08 -6.27 -2.15 -6.28 -2.22 -6.3 -2.32 -6.29 -2.39 -6.33 -2.48 -6.31 -2.57 -6.29 -2.63 35.4 -83.66 5.43 2.27 5.39 2.19 5.35 2.1 5.39 2.05 5.34 1.96 5.34 1.9 5.33 1.83 5.27 1.74 5.26 1.66 5.24 1.59 5.27 1.53 5.23 1.46 5.18 1.37 5.17 1.3 5.15 1.22 5.18 1.16 5.16 1.1 5.1 1.01 5.08 0.94 5.11 0.88 5.09 0.81 5.03 0.73 5.03 0.66 5 0.58 5.03 0.52 5.01 0.46 4.96 0.38 4.94 0.31 4.94 0.24 4.95 0.17 4.95 0.1 4.89 0.04 0 0zm140.48 -33.51l50.96 75.16 0 0.01 -4.79 3.16 -4.87 3.06 -4.98 2.96 -5.07 2.83 -5.12 2.72 -5.21 2.6 -5.29 2.5 -5.38 2.39 -5.44 2.28 -5.54 2.18 -5.64 2.08 -5.66 1.95 -5.76 1.86 -5.81 1.74 -5.89 1.66 -6.01 1.55 -6.02 1.44 -6.1 1.34 -6.17 1.25 -6.25 1.15 -6.32 1.05 -6.37 0.96 -6.5 0.87 -6.52 0.76 -6.55 0.67 -6.7 0.6 -6.76 0.48 -6.77 0.4 -6.87 0.32 -6.98 0.22 -7.01 0.13 -7.09 0.04 0 -90.86 5.97 -0.04 5.87 -0.11 5.72 -0.18 5.67 -0.26 5.59 -0.32 5.42 -0.4 5.32 -0.46 5.29 -0.55 5.16 -0.6 5 -0.67 4.95 -0.74 4.84 -0.81 4.73 -0.87 4.63 -0.93 4.52 -1 4.44 -1.06 4.29 -1.11 4.21 -1.18 4.13 -1.24 4.02 -1.3 3.92 -1.35 3.8 -1.4 3.7 -1.46 3.64 -1.52 3.52 -1.57 3.43 -1.62 3.35 -1.68 3.26 -1.72 3.15 -1.77 3.04 -1.8 3.01 -1.88 2.89 -1.92 0 0.01zm40.94 -74.49l90.72 0 0 0 -0.08 5.64 -0.23 5.56 -0.38 5.59 -0.55 5.56 -0.7 5.52 -0.88 5.47 -1.03 5.39 -1.2 5.4 -1.38 5.36 -1.54 5.28 -1.7 5.18 -1.87 5.18 -2.05 5.1 -2.19 4.98 -2.38 4.97 -2.55 4.89 -2.69 4.78 -2.86 4.69 -3.02 4.62 -3.16 4.48 -3.29 4.4 -3.45 4.3 -3.58 4.19 -3.72 4.09 -3.87 4.02 -3.97 3.87 -4.08 3.76 -4.24 3.69 -4.37 3.6 -4.44 3.46 -4.57 3.37 -4.68 3.26 -50.96 -75.16 2.8 -1.96 2.69 -1.99 2.56 -1.98 2.41 -1.98 2.28 -1.99 2.22 -2.06 2.09 -2.03 1.95 -2.02 1.86 -2.05 1.76 -2.07 1.67 -2.08 1.57 -2.08 1.48 -2.12 1.38 -2.1 1.3 -2.15 1.23 -2.16 1.13 -2.17 1.06 -2.21 1.01 -2.32 0.93 -2.3 0.85 -2.34 0.8 -2.46 0.72 -2.46 0.64 -2.5 0.58 -2.58 0.51 -2.71 0.44 -2.73 0.36 -2.8 0.29 -2.88 0.2 -2.97 0.13 -3.1 0.04 -3.14 0 0zm-21.13 -61.06l66.9 -61.38 -0.02 -0.01 2.78 3.1 2.66 3.13 2.63 3.24 2.53 3.3 2.39 3.27 2.37 3.41 2.29 3.48 2.2 3.54 2.1 3.58 1.98 3.57 1.87 3.6 1.86 3.75 1.74 3.8 1.62 3.76 1.57 3.89 1.44 3.88 1.34 3.86 1.27 3.98 1.19 4.05 1.06 3.96 1 4.07 0.89 4.08 0.81 4.04 0.73 4.23 0.63 4.15 0.55 4.2 0.45 4.21 0.36 4.16 0.3 4.27 0.2 4.27 0.12 4.3 0.04 4.32 -90.72 0 -0.02 -2.6 -0.08 -2.54 -0.12 -2.49 -0.16 -2.43 -0.22 -2.44 -0.25 -2.33 -0.29 -2.26 -0.33 -2.23 -0.37 -2.09 -0.43 -2.18 -0.45 -2.08 -0.5 -2.01 -0.54 -2.04 -0.55 -1.87 -0.61 -1.88 -0.66 -1.9 -0.68 -1.82 -0.69 -1.73 -0.78 -1.8 -0.76 -1.66 -0.8 -1.63 -0.91 -1.72 -0.92 -1.67 -0.92 -1.58 -0.96 -1.54 -1.01 -1.54 -1.05 -1.51 -1.17 -1.59 -1.13 -1.48 -1.19 -1.46 -1.28 -1.51 -1.28 -1.44 -0.02 -0.01zm-67.39 -45.93l34.98 -83.84 0 0 3.62 1.54 3.6 1.59 3.55 1.61 3.55 1.66 3.51 1.7 3.42 1.71 3.42 1.76 3.47 1.85 3.33 1.83 3.33 1.87 3.31 1.93 3.24 1.94 3.3 2.04 3.22 2.06 3.13 2.05 3.11 2.11 3.09 2.14 3.08 2.2 3.08 2.28 2.97 2.26 2.89 2.26 2.98 2.38 2.93 2.44 2.78 2.38 2.79 2.44 2.79 2.52 2.78 2.59 2.7 2.6 2.63 2.59 2.59 2.64 2.56 2.66 2.56 2.76 -66.9 61.38 -1.6 -1.72 -1.68 -1.76 -1.71 -1.74 -1.73 -1.71 -1.72 -1.66 -1.72 -1.59 -1.79 -1.62 -1.85 -1.62 -1.92 -1.64 -1.83 -1.52 -1.86 -1.5 -2.03 -1.58 -1.99 -1.52 -1.96 -1.44 -2.04 -1.46 -2.09 -1.46 -2.13 -1.43 -2.17 -1.43 -2.16 -1.38 -2.14 -1.32 -2.28 -1.36 -2.27 -1.33 -2.33 -1.31 -2.37 -1.31 -2.33 -1.23 -2.42 -1.24 -2.5 -1.25 -2.47 -1.2 -2.51 -1.18 -2.57 -1.17 -2.58 -1.13 -2.64 -1.12 0 0zm-131.46 -45.04l26.06 -87.02 -0.07 -0.03 5.42 1.62 5.33 1.62 5.25 1.59 5.24 1.61 5.13 1.59 5.06 1.58 4.99 1.57 4.94 1.56 4.9 1.56 4.8 1.56 4.73 1.53 4.7 1.55 4.6 1.52 4.54 1.52 4.47 1.52 4.41 1.5 4.37 1.5 4.28 1.5 4.21 1.48 4.18 1.49 4.1 1.48 4.01 1.46 3.94 1.45 3.87 1.45 3.84 1.44 3.83 1.46 3.68 1.43 3.64 1.42 3.63 1.45 3.5 1.41 3.45 1.42 3.41 1.41 -34.98 83.84 -2.95 -1.23 -3.05 -1.24 -3.14 -1.27 -3.13 -1.25 -3.28 -1.28 -3.36 -1.31 -3.35 -1.28 -3.5 -1.32 -3.59 -1.33 -3.66 -1.35 -3.71 -1.36 -3.78 -1.36 -3.84 -1.37 -3.93 -1.38 -4.02 -1.4 -4.05 -1.4 -4.15 -1.42 -4.23 -1.42 -4.3 -1.44 -4.38 -1.46 -4.42 -1.45 -4.51 -1.47 -4.6 -1.48 -4.62 -1.48 -4.74 -1.5 -4.81 -1.51 -4.88 -1.52 -4.95 -1.53 -4.98 -1.53 -5.11 -1.55 -5.15 -1.56 -5.22 -1.56 -0.07 -0.03zm0.07 0.03l-0.07 -0.03 4.93 1.48 -4.86 -1.45zm-177.02 -63.86l37.52 -82.72 0.02 0 3.92 1.77 4.01 1.79 4.04 1.77 4.14 1.78 4.26 1.8 4.33 1.8 4.39 1.81 4.47 1.8 4.59 1.83 4.66 1.83 4.74 1.84 4.83 1.85 4.88 1.84 4.94 1.84 5.08 1.87 5.12 1.86 5.23 1.86 5.3 1.88 5.37 1.87 5.47 1.89 5.52 1.88 5.64 1.9 5.7 1.9 5.76 1.89 5.88 1.91 5.91 1.91 6.02 1.91 6.11 1.93 6.16 1.92 6.27 1.93 6.32 1.93 6.41 1.94 -26.06 87.02 -6.65 -2 -6.6 -2.01 -6.49 -2.01 -6.46 -2 -6.35 -2.01 -6.28 -1.99 -6.23 -2.01 -6.12 -1.99 -6.1 -2.01 -5.98 -2 -5.9 -1.98 -5.88 -2 -5.75 -1.99 -5.73 -1.99 -5.62 -2 -5.55 -1.98 -5.5 -2 -5.4 -1.97 -5.38 -2 -5.28 -2 -5.19 -1.99 -5.12 -1.98 -5.04 -1.99 -4.97 -1.97 -4.93 -2 -4.87 -1.99 -4.77 -2 -4.68 -1.98 -4.66 -2 -4.6 -2.01 -4.47 -1.99 -4.42 -1.99 0.02 0zm-128.89 -102.13l71.48 -55.96 -0.01 -0.01 2.47 3.12 2.52 3.08 2.57 3.06 2.57 2.98 2.57 2.9 2.62 2.84 2.69 2.84 2.69 2.77 2.72 2.72 2.76 2.67 2.78 2.61 2.8 2.56 2.82 2.49 2.88 2.46 2.94 2.44 2.93 2.37 2.95 2.31 3 2.26 3.03 2.22 3.08 2.18 3.1 2.13 3.14 2.09 3.14 2.01 3.21 1.99 3.28 1.97 3.25 1.88 3.29 1.84 3.39 1.83 3.37 1.76 3.4 1.69 3.49 1.68 3.49 1.63 -37.52 82.72 -4.73 -2.19 -4.65 -2.24 -4.68 -2.35 -4.61 -2.4 -4.51 -2.43 -4.53 -2.52 -4.51 -2.62 -4.38 -2.63 -4.39 -2.71 -4.36 -2.81 -4.3 -2.85 -4.24 -2.91 -4.2 -2.98 -4.15 -3.04 -4.12 -3.12 -4.09 -3.19 -4.01 -3.23 -3.94 -3.28 -3.92 -3.36 -3.9 -3.45 -3.82 -3.48 -3.78 -3.55 -3.72 -3.61 -3.68 -3.66 -3.63 -3.73 -3.55 -3.76 -3.56 -3.88 -3.51 -3.94 -3.43 -3.96 -3.35 -4 -3.34 -4.08 -3.29 -4.16 -0.01 -0.01zm-55.43 -182.91l90.72 0 0 0 0.04 5.29 0.12 5.21 0.19 5.1 0.28 5.02 0.35 4.98 0.42 4.83 0.5 4.75 0.57 4.62 0.65 4.58 0.72 4.52 0.8 4.42 0.84 4.31 0.92 4.18 1 4.13 1.06 4.04 1.14 4 1.18 3.86 1.26 3.8 1.31 3.71 1.39 3.64 1.44 3.55 1.51 3.46 1.59 3.46 1.62 3.32 1.67 3.21 1.75 3.17 1.85 3.16 1.87 3.05 1.96 3 2 2.94 2.04 2.82 2.15 2.82 -71.48 55.96 -3.49 -4.58 -3.42 -4.74 -3.26 -4.76 -3.14 -4.84 -3.05 -4.95 -2.89 -4.98 -2.83 -5.11 -2.71 -5.23 -2.58 -5.26 -2.43 -5.28 -2.35 -5.4 -2.22 -5.49 -2.11 -5.52 -1.99 -5.61 -1.88 -5.66 -1.76 -5.74 -1.64 -5.76 -1.54 -5.86 -1.42 -5.93 -1.32 -6.02 -1.2 -6.03 -1.08 -6.06 -0.98 -6.12 -0.89 -6.22 -0.77 -6.3 -0.66 -6.33 -0.56 -6.39 -0.45 -6.4 -0.36 -6.5 -0.25 -6.56 -0.16 -6.61 -0.04 -6.67 0 0zm55.13 -175.49l73.6 53.14 0 0 -2.36 3.35 -2.28 3.36 -2.18 3.36 -2.12 3.43 -2.05 3.45 -1.96 3.46 -1.89 3.48 -1.81 3.52 -1.73 3.54 -1.66 3.55 -1.58 3.62 -1.52 3.63 -1.41 3.62 -1.37 3.69 -1.31 3.79 -1.21 3.74 -1.13 3.75 -1.09 3.88 -1 3.88 -0.93 3.92 -0.86 3.93 -0.78 4 -0.72 4.04 -0.63 4.04 -0.56 4.13 -0.49 4.19 -0.42 4.21 -0.34 4.28 -0.27 4.32 -0.2 4.32 -0.11 4.4 -0.04 4.47 -90.72 0 0.06 -6.03 0.15 -6 0.26 -6.02 0.37 -5.94 0.48 -5.92 0.58 -5.89 0.69 -5.85 0.8 -5.83 0.91 -5.84 1.02 -5.76 1.12 -5.72 1.24 -5.73 1.35 -5.66 1.46 -5.62 1.55 -5.54 1.67 -5.59 1.81 -5.52 1.87 -5.41 1.99 -5.43 2.13 -5.42 2.22 -5.33 2.32 -5.26 2.44 -5.27 2.55 -5.2 2.65 -5.14 2.75 -5.1 2.86 -5.04 2.95 -4.97 3.06 -4.93 3.18 -4.92 3.28 -4.84 3.36 -4.77 0 0zm150.23 -114.72l34.48 84.04 -0.01 0.01 -4.62 1.93 -4.52 1.98 -4.44 2.02 -4.41 2.09 -4.28 2.1 -4.2 2.16 -4.15 2.2 -4.05 2.25 -4.01 2.3 -3.92 2.34 -3.86 2.39 -3.77 2.42 -3.65 2.43 -3.63 2.53 -3.59 2.57 -3.44 2.56 -3.39 2.63 -3.34 2.68 -3.27 2.73 -3.19 2.76 -3.14 2.82 -3.08 2.86 -2.99 2.89 -2.94 2.95 -2.88 2.99 -2.8 3.02 -2.73 3.07 -2.69 3.14 -2.63 3.19 -2.54 3.2 -2.51 3.29 -2.44 3.32 -73.6 -53.14 3.46 -4.7 3.53 -4.63 3.64 -4.58 3.71 -4.49 3.79 -4.42 3.89 -4.37 3.98 -4.3 4.04 -4.21 4.12 -4.13 4.23 -4.09 4.28 -3.98 4.36 -3.92 4.47 -3.86 4.53 -3.77 4.6 -3.7 4.69 -3.63 4.8 -3.58 4.81 -3.45 4.89 -3.39 5.05 -3.37 5.05 -3.24 5.12 -3.17 5.2 -3.1 5.25 -3.02 5.37 -2.97 5.41 -2.88 5.5 -2.82 5.58 -2.74 5.59 -2.65 5.7 -2.6 5.78 -2.52 5.82 -2.45 -0.01 0.01zm212.49 -38.01l0 90.86 0 0 -6.46 0.03 -6.44 0.1 -6.37 0.15 -6.28 0.22 -6.22 0.28 -6.16 0.35 -6.17 0.41 -6.04 0.47 -5.99 0.53 -5.96 0.59 -5.9 0.66 -5.8 0.7 -5.74 0.78 -5.74 0.83 -5.62 0.9 -5.6 0.96 -5.5 1 -5.46 1.08 -5.47 1.15 -5.33 1.18 -5.27 1.25 -5.26 1.31 -5.17 1.36 -5.1 1.42 -5.08 1.49 -5.03 1.55 -4.93 1.59 -4.87 1.65 -4.86 1.73 -4.81 1.77 -4.71 1.82 -4.67 1.88 -34.48 -84.04 5.89 -2.38 5.97 -2.3 5.97 -2.21 6.02 -2.13 6.11 -2.07 6.17 -1.99 6.17 -1.89 6.22 -1.83 6.32 -1.76 6.35 -1.68 6.36 -1.59 6.45 -1.53 6.51 -1.44 6.47 -1.35 6.58 -1.3 6.64 -1.22 6.66 -1.14 6.74 -1.06 6.74 -0.99 6.82 -0.92 6.88 -0.84 6.88 -0.76 6.94 -0.69 7.01 -0.63 7.06 -0.53 7.03 -0.47 7.16 -0.41 7.2 -0.32 7.24 -0.26 7.25 -0.17 7.3 -0.12 7.38 -0.03 0 0zm198.75 29.82l-26.52 86.88 0 0 -5.29 -1.59 -5.28 -1.54 -5.29 -1.48 -5.35 -1.45 -5.3 -1.4 -5.27 -1.32 -5.32 -1.29 -5.36 -1.24 -5.32 -1.19 -5.33 -1.13 -5.38 -1.09 -5.34 -1.04 -5.31 -0.97 -5.36 -0.93 -5.4 -0.89 -5.37 -0.83 -5.38 -0.78 -5.42 -0.74 -5.39 -0.68 -5.35 -0.63 -5.4 -0.57 -5.46 -0.54 -5.41 -0.48 -5.43 -0.42 -5.43 -0.38 -5.44 -0.33 -5.49 -0.28 -5.45 -0.23 -5.43 -0.18 -5.48 -0.12 -5.51 -0.07 -5.49 -0.03 0 -90.86 6.33 0.03 6.29 0.09 6.32 0.14 6.35 0.2 6.31 0.27 6.25 0.32 6.3 0.37 6.29 0.44 6.27 0.5 6.27 0.56 6.22 0.6 6.26 0.67 6.29 0.73 6.23 0.8 6.2 0.84 6.22 0.9 6.23 0.97 6.16 1.01 6.2 1.07 6.23 1.15 6.18 1.2 6.14 1.25 6.17 1.31 6.16 1.37 6.1 1.42 6.14 1.47 6.17 1.56 6.12 1.6 6.07 1.65 6.11 1.72 6.1 1.78 6.07 1.83 0 0zm189.32 137.06l-82.26 -38.32 16.15 57.08 -4.07 -2.66 -4.07 -2.61 -4.11 -2.57 -4.19 -2.55 -4.25 -2.55 -4.23 -2.49 -4.27 -2.44 -4.36 -2.45 -4.38 -2.39 -4.4 -2.37 -4.43 -2.32 -4.53 -2.31 -4.53 -2.28 -4.54 -2.22 -4.61 -2.2 -4.66 -2.17 -4.71 -2.15 -4.75 -2.11 -4.79 -2.08 -4.81 -2.04 -4.81 -2 -4.92 -1.98 -4.97 -1.95 -4.99 -1.92 -4.99 -1.87 -5.08 -1.85 -5.13 -1.83 -5.13 -1.77 -5.2 -1.76 -5.21 -1.71 -5.29 -1.68 -5.32 -1.66 26.52 -86.88 6 1.86 5.95 1.9 5.95 1.95 5.88 1.98 5.87 2.03 5.79 2.07 5.78 2.09 5.77 2.17 5.69 2.18 5.63 2.23 5.62 2.26 5.63 2.32 5.55 2.36 5.51 2.4 5.45 2.43 5.43 2.47 5.38 2.51 5.37 2.56 5.36 2.62 5.27 2.64 5.21 2.67 5.23 2.74 5.18 2.77 5.1 2.81 5.06 2.83 5.07 2.9 5.03 2.95 4.93 2.95 4.91 3.01 4.91 3.07 4.87 3.11 4.79 3.14 16.15 57.08zm-16.15 -57.08l32.64 21.57 -16.49 35.51 -16.15 -57.08zm-126.18 148.12l60.07 -129.36 82.26 38.32 -60.07 129.36 -65.38 19.23 -16.88 -57.55zm82.26 38.32l-21.76 46.87 -43.62 -27.64 65.38 -19.23zm532.01 -193.35l-144.19 0 0 -90.86 144.19 0 45.36 45.43 -45.36 45.43zm0 -90.86l45.36 0 0 45.43 -45.36 -45.43zm-45.36 1098.38l0 -1052.95 90.72 0 0 1052.95 -45.36 45.43 -45.36 -45.43zm90.72 0l0 45.43 -45.36 0 45.36 -45.43zm-189.55 -45.43l144.19 0 0 90.86 -144.19 0 -45.36 -45.43 45.36 -45.43zm0 90.86l-45.36 0 0 -45.43 45.36 45.43zm45.36 -1098.38l0 1052.95 -90.72 0 0 -1052.95 45.36 -45.43 45.36 45.43zm-90.72 0l0 -45.43 45.36 0 -45.36 45.43zm1498.64 45.43l-142.69 0 0 -90.86 142.69 0 45.36 45.43 -45.36 45.43zm0 -90.86l45.36 0 0 45.43 -45.36 -45.43zm-45.36 1098.38l0 -1052.95 90.72 0 0 1052.95 -45.36 45.43 -45.36 -45.43zm90.72 0l0 45.43 -45.36 0 45.36 -45.43zm-191.05 -45.43l145.69 0 0 90.86 -145.69 0 -36.5 -18.45 36.5 -72.41zm0 90.86l-22.9 0 -13.6 -18.45 36.5 18.45zm-564.27 -887.69l600.77 815.28 -73 53.96 -600.77 -815.28 -8.86 -26.98 81.86 -26.98zm-81.86 26.98l0 -138.07 81.86 111.09 -81.86 26.98zm0 815.28l0 -815.28 90.72 0 0 815.28 -45.36 45.43 -45.36 -45.43zm90.72 0l0 45.43 -45.36 0 45.36 -45.43zm-189.56 -45.43l144.2 0 0 90.86 -144.2 0 -45.36 -45.43 45.36 -45.43zm0 90.86l-45.36 0 0 -45.43 45.36 45.43zm45.36 -1098.38l0 1052.95 -90.72 0 0 -1052.95 45.36 -45.43 45.36 45.43zm-90.72 0l0 -45.43 45.36 0 -45.36 45.43zm191.05 45.43l-145.69 0 0 -90.86 145.69 0 36.49 18.44 -36.49 72.42zm0 -90.86l22.89 0 13.6 18.44 -36.49 -18.44zm565.79 889.21l-602.28 -816.79 72.98 -53.98 602.28 816.79 8.87 26.99 -81.85 26.99zm81.85 -26.99l0 137.99 -81.85 -111 81.85 -26.99zm0 -816.79l0 816.79 -90.72 0 0 -816.79 45.36 -45.43 45.36 45.43zm-90.72 0l0 -45.43 45.36 0 -45.36 45.43zm1211.39 195.71l36.78 -83.06 0 0 5.47 2.47 5.38 2.51 5.35 2.57 5.39 2.66 5.3 2.72 5.24 2.76 5.22 2.83 5.17 2.89 5.1 2.92 5.11 3.01 5.09 3.1 5.01 3.13 4.95 3.18 4.94 3.26 4.9 3.33 4.81 3.34 4.83 3.44 4.77 3.51 4.7 3.54 4.69 3.62 4.62 3.67 4.59 3.72 4.56 3.8 4.52 3.86 4.47 3.92 4.4 3.96 4.36 4.02 4.34 4.08 4.27 4.14 4.23 4.18 4.22 4.27 4.15 4.32 -65.7 62.66 -3.39 -3.52 -3.42 -3.47 -3.47 -3.44 -3.51 -3.38 -3.5 -3.32 -3.58 -3.28 -3.6 -3.24 -3.61 -3.16 -3.64 -3.12 -3.68 -3.06 -3.73 -3.04 -3.76 -2.97 -3.77 -2.92 -3.84 -2.88 -3.85 -2.83 -3.87 -2.76 -3.95 -2.76 -3.94 -2.67 -3.98 -2.62 -4.05 -2.6 -4.07 -2.55 -4.05 -2.46 -4.13 -2.43 -4.2 -2.42 -4.21 -2.35 -4.22 -2.29 -4.3 -2.26 -4.3 -2.2 -4.31 -2.14 -4.41 -2.11 -4.44 -2.07 -4.45 -2.01 0 0zm-145.31 -31.44l0 -90.86 0 0 5.85 0.03 5.85 0.13 5.8 0.18 5.83 0.27 5.83 0.35 5.82 0.42 5.81 0.51 5.8 0.58 5.75 0.65 5.77 0.73 5.78 0.81 5.71 0.88 5.75 0.96 5.8 1.05 5.72 1.13 5.61 1.17 5.72 1.26 5.74 1.36 5.63 1.42 5.67 1.49 5.66 1.59 5.63 1.64 5.63 1.74 5.58 1.79 5.6 1.88 5.58 1.95 5.58 2.03 5.51 2.09 5.55 2.17 5.56 2.27 5.47 2.31 5.5 2.4 -36.78 83.06 -4.46 -1.94 -4.51 -1.91 -4.42 -1.81 -4.47 -1.75 -4.51 -1.71 -4.48 -1.63 -4.48 -1.57 -4.48 -1.5 -4.52 -1.45 -4.49 -1.38 -4.51 -1.32 -4.48 -1.25 -4.51 -1.19 -4.55 -1.14 -4.46 -1.06 -4.52 -1 -4.63 -0.97 -4.52 -0.89 -4.48 -0.81 -4.55 -0.76 -4.59 -0.7 -4.56 -0.65 -4.57 -0.57 -4.61 -0.53 -4.58 -0.46 -4.59 -0.39 -4.6 -0.34 -4.61 -0.27 -4.61 -0.21 -4.68 -0.16 -4.63 -0.09 -4.65 -0.03 0 0zm-181.49 48.01l-45.56 -78.58 0 0 6.48 -3.69 6.51 -3.58 6.59 -3.48 6.61 -3.35 6.65 -3.24 6.69 -3.12 6.75 -3.01 6.79 -2.88 6.81 -2.77 6.89 -2.67 6.91 -2.54 6.95 -2.42 6.97 -2.29 7.02 -2.19 7.1 -2.07 7.1 -1.94 7.09 -1.82 7.21 -1.72 7.21 -1.59 7.23 -1.47 7.31 -1.36 7.28 -1.23 7.34 -1.12 7.41 -1 7.41 -0.88 7.44 -0.76 7.51 -0.64 7.49 -0.52 7.5 -0.41 7.56 -0.3 7.62 -0.17 7.62 -0.06 0 90.86 -6.24 0.04 -6.16 0.15 -6.16 0.24 -6.16 0.33 -6.07 0.42 -6.01 0.52 -6 0.62 -5.95 0.7 -5.89 0.8 -5.88 0.9 -5.88 0.99 -5.77 1.06 -5.77 1.19 -5.75 1.25 -5.65 1.36 -5.71 1.46 -5.64 1.54 -5.56 1.63 -5.56 1.73 -5.55 1.83 -5.51 1.92 -5.47 2 -5.41 2.09 -5.43 2.21 -5.39 2.3 -5.35 2.39 -5.33 2.48 -5.31 2.58 -5.27 2.67 -5.23 2.76 -5.23 2.88 -5.2 2.97 0 0zm-130.82 130.32l-78.3 -45.9 0 0 3.78 -6.34 3.86 -6.29 3.97 -6.21 4.03 -6.1 4.13 -6.04 4.23 -5.98 4.3 -5.88 4.39 -5.8 4.48 -5.73 4.58 -5.66 4.67 -5.57 4.73 -5.46 4.82 -5.4 4.95 -5.35 5 -5.23 5.06 -5.13 5.17 -5.07 5.27 -5 5.35 -4.9 5.4 -4.8 5.5 -4.73 5.6 -4.65 5.67 -4.56 5.77 -4.48 5.81 -4.36 5.9 -4.31 6.03 -4.23 6.04 -4.1 6.15 -4.04 6.24 -3.96 6.3 -3.86 6.38 -3.78 45.56 78.58 -5.18 3.06 -5.12 3.14 -5.02 3.18 -4.95 3.26 -4.92 3.34 -4.77 3.35 -4.74 3.45 -4.69 3.52 -4.57 3.56 -4.53 3.64 -4.44 3.69 -4.38 3.77 -4.34 3.84 -4.23 3.88 -4.15 3.94 -4.11 4.03 -4.06 4.11 -3.98 4.15 -3.87 4.19 -3.84 4.3 -3.79 4.38 -3.69 4.41 -3.62 4.48 -3.58 4.57 -3.51 4.64 -3.44 4.7 -3.37 4.76 -3.31 4.86 -3.27 4.94 -3.17 4.97 -3.12 5.05 -3.06 5.16 0 0zm-47.86 180.87l-90.72 0 0 0 0.05 -7.63 0.18 -7.63 0.3 -7.54 0.39 -7.53 0.54 -7.55 0.64 -7.47 0.76 -7.44 0.88 -7.41 1 -7.39 1.11 -7.33 1.23 -7.32 1.35 -7.27 1.48 -7.27 1.59 -7.21 1.71 -7.16 1.83 -7.13 1.94 -7.08 2.07 -7.06 2.18 -7.02 2.3 -6.97 2.42 -6.96 2.55 -6.89 2.64 -6.82 2.78 -6.83 2.89 -6.76 3 -6.72 3.14 -6.7 3.24 -6.62 3.34 -6.57 3.46 -6.53 3.59 -6.51 3.7 -6.45 78.3 45.9 -2.96 5.15 -2.85 5.17 -2.76 5.21 -2.68 5.25 -2.58 5.28 -2.46 5.26 -2.38 5.32 -2.29 5.36 -2.18 5.35 -2.1 5.44 -2.01 5.45 -1.9 5.44 -1.82 5.51 -1.72 5.54 -1.63 5.58 -1.54 5.62 -1.45 5.65 -1.35 5.68 -1.27 5.71 -1.16 5.73 -1.07 5.79 -0.99 5.84 -0.89 5.87 -0.8 5.91 -0.7 5.95 -0.62 6 -0.52 6.03 -0.42 6.05 -0.33 6.11 -0.24 6.2 -0.14 6.17 -0.05 6.25 0 0zm47.94 180.26l-78.46 45.62 0 0 -3.68 -6.47 -3.58 -6.53 -3.47 -6.58 -3.32 -6.58 -3.24 -6.63 -3.13 -6.72 -2.99 -6.72 -2.88 -6.76 -2.78 -6.83 -2.64 -6.83 -2.54 -6.87 -2.42 -6.95 -2.3 -6.95 -2.17 -7 -2.07 -7.01 -1.94 -7.07 -1.83 -7.1 -1.71 -7.14 -1.59 -7.16 -1.48 -7.23 -1.35 -7.24 -1.23 -7.25 -1.11 -7.3 -1 -7.31 -0.88 -7.36 -0.77 -7.39 -0.64 -7.4 -0.53 -7.48 -0.4 -7.46 -0.3 -7.46 -0.18 -7.55 -0.05 -7.55 90.72 0 0.05 6.15 0.14 6.07 0.24 6.1 0.32 6.04 0.43 5.96 0.52 5.96 0.61 5.93 0.7 5.88 0.8 5.85 0.89 5.82 0.99 5.79 1.07 5.76 1.16 5.67 1.27 5.7 1.35 5.66 1.45 5.62 1.54 5.59 1.63 5.57 1.73 5.54 1.82 5.51 1.9 5.45 2.02 5.47 2.1 5.45 2.18 5.37 2.3 5.38 2.39 5.36 2.47 5.3 2.58 5.31 2.7 5.32 2.75 5.24 2.86 5.21 2.98 5.23 0 0zm130.74 130.93l-45.56 78.58 0 0 -6.38 -3.78 -6.33 -3.88 -6.24 -3.96 -6.14 -4.04 -6.07 -4.14 -6 -4.22 -5.93 -4.32 -5.83 -4.4 -5.74 -4.48 -5.69 -4.58 -5.6 -4.68 -5.5 -4.74 -5.44 -4.84 -5.35 -4.94 -5.24 -5 -5.17 -5.09 -5.08 -5.17 -5.01 -5.27 -4.95 -5.38 -4.81 -5.43 -4.73 -5.49 -4.68 -5.62 -4.57 -5.7 -4.47 -5.74 -4.4 -5.85 -4.31 -5.93 -4.22 -6.02 -4.12 -6.08 -4.04 -6.15 -3.96 -6.26 -3.86 -6.31 -3.78 -6.4 78.46 -45.62 3.06 5.18 3.12 5.11 3.18 5.02 3.26 4.97 3.32 4.9 3.38 4.8 3.43 4.73 3.5 4.65 3.59 4.62 3.63 4.52 3.68 4.42 3.79 4.41 3.85 4.33 3.87 4.22 3.97 4.17 4.04 4.11 4.11 4.05 4.18 3.98 4.23 3.9 4.3 3.84 4.38 3.78 4.44 3.7 4.51 3.64 4.6 3.58 4.67 3.52 4.71 3.44 4.8 3.38 4.89 3.32 4.96 3.26 5.02 3.2 5.09 3.12 5.18 3.06 0 0zm181.49 48.01l0 90.86 0 0 -7.62 -0.06 -7.62 -0.17 -7.56 -0.3 -7.5 -0.41 -7.49 -0.52 -7.51 -0.64 -7.44 -0.76 -7.41 -0.88 -7.41 -1 -7.34 -1.12 -7.28 -1.23 -7.31 -1.36 -7.23 -1.47 -7.21 -1.59 -7.21 -1.72 -7.09 -1.82 -7.1 -1.94 -7.1 -2.07 -7.02 -2.19 -6.97 -2.29 -6.95 -2.42 -6.91 -2.54 -6.89 -2.67 -6.81 -2.77 -6.79 -2.88 -6.75 -3.01 -6.69 -3.12 -6.65 -3.24 -6.61 -3.35 -6.59 -3.48 -6.51 -3.58 -6.48 -3.69 45.56 -78.58 5.2 2.97 5.23 2.88 5.23 2.76 5.27 2.67 5.31 2.58 5.33 2.48 5.35 2.39 5.39 2.3 5.43 2.21 5.41 2.09 5.47 2 5.51 1.92 5.55 1.83 5.56 1.73 5.56 1.63 5.64 1.54 5.71 1.46 5.65 1.36 5.75 1.25 5.77 1.19 5.77 1.06 5.88 0.99 5.88 0.9 5.89 0.8 5.95 0.7 6 0.62 6.01 0.52 6.07 0.42 6.16 0.33 6.16 0.24 6.16 0.15 6.24 0.04 0 0zm144.47 -30.23l35.46 83.64 -0.01 0 -5.46 2.28 -5.46 2.22 -5.53 2.16 -5.5 2.06 -5.5 2.01 -5.52 1.93 -5.52 1.86 -5.58 1.8 -5.56 1.71 -5.56 1.65 -5.61 1.58 -5.58 1.49 -5.59 1.43 -5.61 1.36 -5.6 1.28 -5.66 1.22 -5.64 1.13 -5.58 1.06 -5.7 1.01 -5.69 0.91 -5.62 0.84 -5.71 0.79 -5.68 0.69 -5.68 0.63 -5.74 0.55 -5.69 0.48 -5.71 0.4 -5.71 0.33 -5.71 0.26 -5.72 0.18 -5.77 0.12 -5.73 0.03 0 -90.86 4.59 -0.03 4.53 -0.08 4.58 -0.16 4.57 -0.2 4.57 -0.27 4.55 -0.32 4.55 -0.38 4.5 -0.43 4.54 -0.51 4.54 -0.55 4.49 -0.61 4.56 -0.68 4.49 -0.73 4.48 -0.79 4.56 -0.86 4.52 -0.91 4.46 -0.96 4.52 -1.04 4.51 -1.08 4.49 -1.15 4.52 -1.21 4.45 -1.26 4.52 -1.33 4.48 -1.39 4.46 -1.44 4.5 -1.52 4.5 -1.57 4.5 -1.63 4.5 -1.7 4.45 -1.74 4.5 -1.82 4.5 -1.88 -0.01 0zm192.29 -81.46l-66.74 61.54 64.63 2.15 -4.23 3.98 -4.28 3.95 -4.33 3.89 -4.33 3.82 -4.41 3.79 -4.44 3.74 -4.48 3.68 -4.52 3.63 -4.54 3.55 -4.57 3.51 -4.64 3.47 -4.67 3.42 -4.74 3.38 -4.76 3.31 -4.75 3.22 -4.82 3.21 -4.89 3.16 -4.88 3.08 -4.93 3.03 -4.95 2.97 -5.04 2.96 -5.06 2.88 -5.07 2.82 -5.15 2.77 -5.14 2.71 -5.14 2.63 -5.26 2.63 -5.31 2.57 -5.28 2.48 -5.31 2.43 -5.38 2.4 -5.42 2.34 -35.46 -83.64 4.5 -1.94 4.46 -1.98 4.47 -2.05 4.42 -2.08 4.33 -2.09 4.3 -2.15 4.34 -2.23 4.3 -2.25 4.19 -2.27 4.21 -2.34 4.16 -2.36 4.1 -2.4 4.11 -2.47 4.07 -2.51 4.06 -2.56 3.97 -2.56 3.96 -2.63 3.97 -2.7 3.9 -2.71 3.84 -2.74 3.83 -2.8 3.8 -2.85 3.79 -2.91 3.76 -2.95 3.7 -2.97 3.68 -3.02 3.64 -3.06 3.61 -3.11 3.61 -3.18 3.55 -3.19 3.52 -3.25 3.51 -3.3 64.63 2.15zm-64.63 -2.15l33.4 -31.82 31.23 33.97 -64.63 -2.15zm85 158.45l-87.11 -94.76 66.74 -61.54 87.11 94.76 -1.6 63.2 -65.14 -1.66zm66.74 -61.54l29.76 32.38 -31.36 30.82 1.6 -63.2zm-200.5 195.23l-35.24 -83.72 0 0 6.08 -2.61 6.02 -2.66 6 -2.74 5.91 -2.77 5.87 -2.85 5.83 -2.9 5.77 -2.96 5.77 -3.04 5.67 -3.07 5.6 -3.13 5.61 -3.22 5.54 -3.26 5.46 -3.3 5.44 -3.39 5.41 -3.45 5.36 -3.51 5.3 -3.56 5.24 -3.61 5.21 -3.69 5.15 -3.73 5.08 -3.79 5.09 -3.89 5.05 -3.95 4.96 -3.96 4.92 -4.05 4.9 -4.13 4.85 -4.17 4.78 -4.22 4.75 -4.3 4.71 -4.36 4.65 -4.4 4.62 -4.5 63.54 64.86 -5.38 5.22 -5.45 5.18 -5.49 5.08 -5.55 5.02 -5.62 4.96 -5.65 4.87 -5.7 4.79 -5.78 4.75 -5.84 4.68 -5.85 4.57 -5.91 4.51 -6 4.47 -6.05 4.39 -6.09 4.31 -6.16 4.25 -6.2 4.16 -6.24 4.09 -6.29 4.01 -6.34 3.95 -6.44 3.9 -6.46 3.8 -6.49 3.72 -6.58 3.67 -6.63 3.59 -6.63 3.5 -6.73 3.46 -6.75 3.36 -6.83 3.31 -6.89 3.23 -6.9 3.14 -6.96 3.08 -7.02 3.01 0 0zm-230.89 47.94l0 -90.86 0 0 6.19 -0.04 6.15 -0.11 6.16 -0.21 6.17 -0.27 6.13 -0.36 6.16 -0.44 6.15 -0.51 6.11 -0.59 6.14 -0.68 6.14 -0.75 6.1 -0.83 6.13 -0.91 6.12 -0.99 6.09 -1.07 6.11 -1.15 6.12 -1.23 6.09 -1.31 6.11 -1.39 6.11 -1.47 6.07 -1.55 6.11 -1.64 6.1 -1.71 6.08 -1.79 6.1 -1.88 6.1 -1.95 6.06 -2.03 6.11 -2.13 6.09 -2.19 6.08 -2.28 6.1 -2.37 6.09 -2.45 6.08 -2.52 35.24 83.72 -7.06 2.94 -7.07 2.83 -7.08 2.75 -7.1 2.66 -7.09 2.57 -7.11 2.47 -7.14 2.39 -7.14 2.29 -7.14 2.2 -7.18 2.11 -7.16 2.01 -7.17 1.92 -7.21 1.83 -7.19 1.73 -7.21 1.65 -7.23 1.55 -7.22 1.45 -7.23 1.37 -7.27 1.27 -7.24 1.17 -7.25 1.09 -7.3 0.99 -7.28 0.89 -7.26 0.8 -7.33 0.71 -7.29 0.61 -7.3 0.52 -7.33 0.42 -7.31 0.33 -7.32 0.23 -7.35 0.15 -7.33 0.04 0 0zm-297.39 -77.45l45.06 -78.86 0 0 7.18 4.04 7.2 3.89 7.27 3.78 7.28 3.64 7.33 3.51 7.4 3.39 7.43 3.26 7.46 3.12 7.51 3 7.55 2.87 7.61 2.74 7.63 2.61 7.7 2.49 7.73 2.36 7.82 2.24 7.83 2.11 7.86 1.97 7.96 1.86 7.97 1.73 8.04 1.59 8.08 1.48 8.13 1.34 8.2 1.22 8.24 1.08 8.31 0.97 8.36 0.84 8.38 0.71 8.45 0.57 8.54 0.46 8.57 0.32 8.63 0.2 8.68 0.06 0 90.86 -10.04 -0.08 -9.99 -0.22 -9.97 -0.38 -9.88 -0.52 -9.87 -0.67 -9.84 -0.83 -9.78 -0.98 -9.71 -1.13 -9.68 -1.28 -9.64 -1.44 -9.59 -1.58 -9.54 -1.74 -9.5 -1.89 -9.45 -2.05 -9.36 -2.18 -9.38 -2.35 -9.29 -2.51 -9.22 -2.64 -9.19 -2.8 -9.14 -2.95 -9.09 -3.11 -9.03 -3.26 -8.97 -3.41 -8.93 -3.56 -8.86 -3.72 -8.81 -3.86 -8.74 -4.01 -8.69 -4.15 -8.66 -4.32 -8.57 -4.46 -8.52 -4.61 -8.46 -4.76 0 0zm-213.37 -211.28l78.3 -45.9 0 0 4.19 7.05 4.29 6.94 4.36 6.84 4.47 6.75 4.55 6.64 4.65 6.56 4.73 6.45 4.84 6.37 4.9 6.24 5.01 6.16 5.1 6.08 5.2 5.97 5.29 5.9 5.38 5.78 5.46 5.69 5.55 5.59 5.67 5.51 5.75 5.42 5.84 5.32 5.96 5.26 6.03 5.14 6.12 5.03 6.24 4.97 6.34 4.89 6.43 4.78 6.52 4.69 6.63 4.61 6.72 4.51 6.83 4.44 6.91 4.33 7.03 4.24 7.14 4.17 -45.06 78.86 -8.34 -4.87 -8.25 -4.98 -8.15 -5.11 -8.03 -5.2 -7.94 -5.33 -7.83 -5.45 -7.72 -5.55 -7.61 -5.68 -7.5 -5.77 -7.38 -5.87 -7.32 -6.03 -7.19 -6.14 -7.04 -6.2 -6.98 -6.34 -6.85 -6.46 -6.73 -6.55 -6.65 -6.69 -6.52 -6.79 -6.4 -6.9 -6.29 -7 -6.18 -7.11 -6.06 -7.22 -5.97 -7.32 -5.84 -7.46 -5.72 -7.53 -5.61 -7.65 -5.49 -7.74 -5.39 -7.86 -5.27 -7.97 -5.16 -8.06 -5.03 -8.18 -4.93 -8.27 0 0zm-78.3 -295.21l90.72 0 0 0 0.07 8.59 0.19 8.55 0.32 8.45 0.46 8.42 0.59 8.4 0.7 8.29 0.85 8.23 0.97 8.23 1.09 8.15 1.23 8.08 1.35 8.04 1.49 7.99 1.61 7.94 1.74 7.9 1.86 7.84 1.98 7.77 2.13 7.75 2.25 7.71 2.37 7.63 2.5 7.58 2.64 7.57 2.76 7.51 2.88 7.45 3.02 7.41 3.15 7.38 3.28 7.35 3.4 7.27 3.53 7.24 3.68 7.21 3.8 7.19 3.92 7.11 4.07 7.08 -78.3 45.9 -4.81 -8.38 -4.66 -8.47 -4.5 -8.47 -4.36 -8.57 -4.21 -8.62 -4.06 -8.69 -3.9 -8.73 -3.75 -8.78 -3.6 -8.85 -3.46 -8.93 -3.28 -8.95 -3.14 -8.99 -3 -9.1 -2.83 -9.13 -2.67 -9.15 -2.53 -9.23 -2.38 -9.29 -2.22 -9.32 -2.06 -9.38 -1.91 -9.42 -1.75 -9.47 -1.61 -9.52 -1.45 -9.6 -1.29 -9.61 -1.15 -9.63 -0.99 -9.73 -0.84 -9.79 -0.67 -9.76 -0.54 -9.84 -0.38 -9.91 -0.23 -9.93 -0.07 -9.97 0 0zm79.22 -293.23l77.96 46.46 0 0 -4.1 7.04 -3.98 7.09 -3.82 7.08 -3.69 7.15 -3.58 7.2 -3.45 7.25 -3.31 7.27 -3.17 7.3 -3.04 7.35 -2.91 7.39 -2.79 7.45 -2.66 7.49 -2.51 7.5 -2.4 7.58 -2.27 7.62 -2.14 7.67 -2.01 7.7 -1.88 7.74 -1.75 7.81 -1.62 7.85 -1.49 7.91 -1.37 7.95 -1.23 7.99 -1.11 8.04 -0.97 8.12 -0.86 8.17 -0.71 8.19 -0.59 8.28 -0.46 8.33 -0.33 8.35 -0.19 8.41 -0.07 8.5 -90.72 0 0.07 -9.88 0.23 -9.87 0.39 -9.83 0.54 -9.75 0.69 -9.72 0.85 -9.69 1 -9.63 1.15 -9.58 1.31 -9.56 1.47 -9.53 1.63 -9.45 1.77 -9.39 1.94 -9.37 2.09 -9.31 2.24 -9.28 2.41 -9.22 2.56 -9.17 2.71 -9.1 2.86 -9.06 3.03 -9.02 3.18 -8.95 3.33 -8.91 3.49 -8.85 3.64 -8.79 3.81 -8.76 3.95 -8.67 4.09 -8.61 4.24 -8.56 4.41 -8.53 4.58 -8.48 4.7 -8.37 4.86 -8.34 0 0zm215.84 -209.7l44.3 79.28 0 0.01 -7.22 4.12 -7.12 4.21 -7.02 4.3 -6.9 4.38 -6.8 4.47 -6.73 4.58 -6.61 4.65 -6.49 4.74 -6.42 4.84 -6.3 4.91 -6.21 5.02 -6.11 5.1 -6.01 5.2 -5.93 5.29 -5.81 5.36 -5.72 5.47 -5.63 5.55 -5.52 5.64 -5.44 5.75 -5.33 5.83 -5.25 5.93 -5.16 6.02 -5.06 6.12 -4.98 6.23 -4.88 6.31 -4.76 6.37 -4.69 6.5 -4.61 6.61 -4.5 6.69 -4.41 6.79 -4.33 6.91 -4.23 6.98 -77.96 -46.46 4.99 -8.24 5.09 -8.11 5.21 -8.03 5.34 -7.93 5.43 -7.79 5.55 -7.72 5.7 -7.63 5.8 -7.49 5.9 -7.37 6.02 -7.28 6.14 -7.18 6.25 -7.07 6.37 -6.95 6.48 -6.85 6.6 -6.74 6.71 -6.63 6.82 -6.51 6.95 -6.42 7.03 -6.27 7.15 -6.18 7.27 -6.06 7.37 -5.96 7.5 -5.85 7.58 -5.72 7.71 -5.62 7.81 -5.49 7.89 -5.38 8.04 -5.29 8.14 -5.16 8.22 -5.04 8.34 -4.93 8.44 -4.82 0 0.01zm300.01 -76.49l0 90.86 0 0 -8.79 0.07 -8.74 0.19 -8.7 0.32 -8.59 0.44 -8.59 0.58 -8.53 0.7 -8.41 0.83 -8.43 0.96 -8.37 1.08 -8.29 1.2 -8.23 1.34 -8.19 1.46 -8.16 1.59 -8.11 1.71 -8.02 1.84 -7.99 1.96 -7.94 2.09 -7.91 2.22 -7.86 2.35 -7.78 2.46 -7.73 2.59 -7.71 2.72 -7.65 2.84 -7.63 2.99 -7.58 3.1 -7.52 3.22 -7.48 3.36 -7.45 3.49 -7.39 3.6 -7.35 3.74 -7.32 3.88 -7.27 3.99 -44.3 -79.28 8.55 -4.71 8.6 -4.54 8.67 -4.42 8.73 -4.26 8.77 -4.11 8.84 -3.96 8.9 -3.82 8.94 -3.66 8.99 -3.51 9.07 -3.38 9.11 -3.22 9.17 -3.07 9.24 -2.92 9.26 -2.75 9.31 -2.62 9.38 -2.47 9.43 -2.32 9.48 -2.16 9.51 -2.01 9.56 -1.87 9.63 -1.72 9.67 -1.56 9.73 -1.42 9.75 -1.26 9.79 -1.12 9.89 -0.97 9.89 -0.8 9.93 -0.68 10.01 -0.52 10.02 -0.36 10.06 -0.23 10.13 -0.07 0 0zm229.43 44.63l-33.8 84.32 0.01 0 -5.96 -2.35 -5.97 -2.28 -5.94 -2.19 -5.98 -2.12 -5.99 -2.05 -6 -1.98 -6.01 -1.9 -6.02 -1.82 -6.02 -1.75 -6.04 -1.68 -6.03 -1.59 -6.06 -1.52 -6.06 -1.46 -6.08 -1.37 -6.09 -1.3 -6.07 -1.22 -6.12 -1.15 -6.13 -1.08 -6.13 -1 -6.15 -0.93 -6.17 -0.85 -6.17 -0.79 -6.16 -0.7 -6.2 -0.63 -6.25 -0.56 -6.19 -0.49 -6.22 -0.4 -6.28 -0.33 -6.28 -0.27 -6.25 -0.18 -6.3 -0.11 -6.32 -0.04 0 -90.86 7.38 0.04 7.36 0.13 7.39 0.22 7.34 0.31 7.3 0.39 7.34 0.48 7.35 0.57 7.25 0.66 7.28 0.73 7.3 0.84 7.25 0.91 7.23 1.01 7.23 1.09 7.21 1.18 7.19 1.26 7.18 1.35 7.21 1.44 7.15 1.54 7.14 1.61 7.12 1.7 7.1 1.78 7.11 1.89 7.08 1.96 7.06 2.05 7.04 2.14 7.03 2.22 7 2.3 6.99 2.39 6.98 2.48 6.98 2.57 6.93 2.66 6.92 2.73 0.01 0zm196.05 187.67l-69.94 -57.86 2.9 61.06 -4.31 -4.26 -4.34 -4.18 -4.42 -4.15 -4.47 -4.09 -4.48 -4.01 -4.55 -3.94 -4.61 -3.9 -4.64 -3.83 -4.7 -3.77 -4.73 -3.7 -4.82 -3.67 -4.82 -3.58 -4.91 -3.53 -4.96 -3.49 -4.99 -3.4 -5.06 -3.36 -5.1 -3.29 -5.15 -3.24 -5.21 -3.18 -5.26 -3.12 -5.32 -3.07 -5.36 -2.99 -5.41 -2.94 -5.48 -2.89 -5.53 -2.83 -5.58 -2.78 -5.61 -2.69 -5.69 -2.65 -5.76 -2.61 -5.77 -2.52 -5.86 -2.47 -5.91 -2.42 33.8 -84.32 6.89 2.82 6.84 2.89 6.81 2.98 6.72 3.03 6.69 3.11 6.65 3.21 6.58 3.26 6.51 3.33 6.46 3.41 6.41 3.48 6.36 3.57 6.3 3.63 6.24 3.7 6.19 3.78 6.13 3.84 6.08 3.93 6.02 4 5.97 4.08 5.88 4.13 5.85 4.21 5.8 4.3 5.72 4.35 5.69 4.44 5.6 4.51 5.56 4.57 5.49 4.66 5.43 4.72 5.4 4.81 5.29 4.85 5.24 4.91 5.22 5.02 5.13 5.08 2.9 61.06zm-2.9 -61.06l29.17 29.21 -26.27 31.85 -2.9 -61.06zm-152.65 106.99l85.61 -103.79 69.94 57.86 -85.61 103.79 -67.82 2.4 -2.12 -60.26zm69.94 57.86l-32.56 39.47 -35.26 -37.07 67.82 -2.4zm1101.39 -236.21l-729.95 0 0 -90.86 729.95 0 45.36 45.43 -45.36 45.43zm0 -90.86l45.36 0 0 45.43 -45.36 -45.43zm-45.36 176.3l0 -130.87 90.72 0 0 130.87 -45.36 45.43 -45.36 -45.43zm90.72 0l0 45.43 -45.36 0 45.36 -45.43zm-631.12 -45.43l585.76 0 0 90.86 -585.76 0 -45.36 -45.43 45.36 -45.43zm-45.36 45.43l0 -45.43 45.36 0 -45.36 45.43zm0 324.91l0 -324.91 90.72 0 0 324.91 -45.36 45.43 -45.36 -45.43zm45.36 45.43l-45.36 0 0 -45.43 45.36 45.43zm524.17 0l-524.17 0 0 -90.86 524.17 0 45.36 45.43 -45.36 45.43zm0 -90.86l45.36 0 0 45.43 -45.36 -45.43zm-45.36 176.29l0 -130.86 90.72 0 0 130.86 -45.36 45.43 -45.36 -45.43zm90.72 0l0 45.43 -45.36 0 45.36 -45.43zm-569.53 -45.43l524.17 0 0 90.86 -524.17 0 -45.36 -45.43 45.36 -45.43zm-45.36 45.43l0 -45.43 45.36 0 -45.36 45.43zm0 335.44l0 -335.44 90.72 0 0 335.44 -45.36 45.43 -45.36 -45.43zm45.36 45.43l-45.36 0 0 -45.43 45.36 45.43zm603.78 0l-603.78 0 0 -90.86 603.78 0 45.36 45.43 -45.36 45.43zm0 -90.86l45.36 0 0 45.43 -45.36 -45.43zm-45.36 176.3l0 -130.87 90.72 0 0 130.87 -45.36 45.43 -45.36 -45.43zm90.72 0l0 45.43 -45.36 0 45.36 -45.43zm-793.33 -45.43l747.97 0 0 90.86 -747.97 0 -45.36 -45.43 45.36 -45.43zm0 90.86l-45.36 0 0 -45.43 45.36 45.43zm45.36 -1098.38l0 1052.95 -90.72 0 0 -1052.95 45.36 -45.43 45.36 45.43zm-90.72 0l0 -45.43 45.36 0 -45.36 45.43zm1288.37 45.43l-144.19 0 0 -90.86 144.19 0 45.36 45.43 -45.36 45.43zm0 -90.86l45.36 0 0 45.43 -45.36 -45.43zm-45.36 967.51l0 -922.08 90.72 0 0 922.08 -45.36 45.43 -45.36 -45.43zm45.36 45.43l-45.36 0 0 -45.43 45.36 45.43zm459.58 0l-459.58 0 0 -90.86 459.58 0 45.36 45.43 -45.36 45.43zm0 -90.86l45.36 0 0 45.43 -45.36 -45.43zm-45.36 176.3l0 -130.87 90.72 0 0 130.87 -45.36 45.43 -45.36 -45.43zm90.72 0l0 45.43 -45.36 0 45.36 -45.43zm-649.13 -45.43l603.77 0 0 90.86 -603.77 0 -45.36 -45.43 45.36 -45.43zm0 90.86l-45.36 0 0 -45.43 45.36 45.43zm45.36 -1098.38l0 1052.95 -90.72 0 0 -1052.95 45.36 -45.43 45.36 45.43zm-90.72 0l0 -45.43 45.36 0 -45.36 45.43zm1680.37 45.43l-729.94 0 0 -90.86 729.94 0 45.36 45.43 -45.36 45.43zm0 -90.86l45.36 0 0 45.43 -45.36 -45.43zm-45.36 176.3l0 -130.87 90.72 0 0 130.87 -45.36 45.43 -45.36 -45.43zm90.72 0l0 45.43 -45.36 0 45.36 -45.43zm-631.11 -45.43l585.75 0 0 90.86 -585.75 0 -45.36 -45.43 45.36 -45.43zm-45.36 45.43l0 -45.43 45.36 0 -45.36 45.43zm0 324.91l0 -324.91 90.72 0 0 324.91 -45.36 45.43 -45.36 -45.43zm45.36 45.43l-45.36 0 0 -45.43 45.36 45.43zm524.17 0l-524.17 0 0 -90.86 524.17 0 45.36 45.43 -45.36 45.43zm0 -90.86l45.36 0 0 45.43 -45.36 -45.43zm-45.36 176.29l0 -130.86 90.72 0 0 130.86 -45.36 45.43 -45.36 -45.43zm90.72 0l0 45.43 -45.36 0 45.36 -45.43zm-569.53 -45.43l524.17 0 0 90.86 -524.17 0 -45.36 -45.43 45.36 -45.43zm-45.36 45.43l0 -45.43 45.36 0 -45.36 45.43zm0 335.44l0 -335.44 90.72 0 0 335.44 -45.36 45.43 -45.36 -45.43zm45.36 45.43l-45.36 0 0 -45.43 45.36 45.43zm603.77 0l-603.77 0 0 -90.86 603.77 0 45.36 45.43 -45.36 45.43zm0 -90.86l45.36 0 0 45.43 -45.36 -45.43zm-45.36 176.3l0 -130.87 90.72 0 0 130.87 -45.36 45.43 -45.36 -45.43zm90.72 0l0 45.43 -45.36 0 45.36 -45.43zm-793.32 -45.43l747.96 0 0 90.86 -747.96 0 -45.36 -45.43 45.36 -45.43zm0 90.86l-45.36 0 0 -45.43 45.36 45.43zm45.36 -1098.38l0 1052.95 -90.72 0 0 -1052.95 45.36 -45.43 45.36 45.43zm-90.72 0l0 -45.43 45.36 0 -45.36 45.43zm1553.66 1005.67l-65 -63.38 0 0 4.18 -4.43 4.06 -4.56 3.93 -4.66 3.79 -4.77 3.66 -4.89 3.53 -5.01 3.41 -5.13 3.27 -5.25 3.16 -5.39 3.03 -5.53 2.91 -5.64 2.78 -5.79 2.66 -5.92 2.52 -6.04 2.41 -6.24 2.28 -6.35 2.14 -6.5 2.03 -6.66 1.88 -6.78 1.76 -6.97 1.63 -7.12 1.49 -7.25 1.36 -7.45 1.23 -7.58 1.08 -7.72 0.94 -7.88 0.79 -8.06 0.66 -8.22 0.51 -8.38 0.38 -8.54 0.22 -8.66 0.07 -8.86 90.72 0 -0.09 10.38 -0.26 10.28 -0.44 10.16 -0.61 10.02 -0.8 9.92 -0.97 9.8 -1.16 9.72 -1.34 9.6 -1.53 9.46 -1.7 9.31 -1.89 9.25 -2.09 9.1 -2.26 8.99 -2.48 8.9 -2.65 8.74 -2.86 8.64 -3.06 8.51 -3.23 8.34 -3.44 8.26 -3.64 8.12 -3.84 7.99 -4.03 7.84 -4.23 7.69 -4.42 7.55 -4.63 7.43 -4.83 7.27 -5.01 7.11 -5.22 6.97 -5.41 6.81 -5.59 6.64 -5.78 6.48 -5.98 6.33 0 0zm-262.3 98.73l0 -90.86 0 0 8.32 -0.07 8.13 -0.23 8.02 -0.38 7.89 -0.52 7.69 -0.66 7.55 -0.82 7.45 -0.96 7.28 -1.09 7.1 -1.23 6.98 -1.38 6.84 -1.51 6.69 -1.65 6.56 -1.79 6.43 -1.92 6.26 -2.04 6.13 -2.18 6.04 -2.32 5.87 -2.44 5.72 -2.56 5.65 -2.71 5.5 -2.83 5.36 -2.95 5.28 -3.1 5.16 -3.23 5.02 -3.34 4.92 -3.49 4.85 -3.64 4.71 -3.75 4.61 -3.89 4.53 -4.05 4.43 -4.19 4.33 -4.33 65 63.38 -6.13 6.13 -6.27 5.93 -6.43 5.75 -6.59 5.57 -6.75 5.37 -6.87 5.16 -7.04 4.99 -7.2 4.78 -7.3 4.57 -7.46 4.38 -7.6 4.19 -7.74 3.97 -7.83 3.77 -8 3.58 -8.11 3.36 -8.2 3.16 -8.37 2.98 -8.48 2.76 -8.55 2.56 -8.7 2.37 -8.81 2.17 -8.9 1.97 -9.02 1.78 -9.16 1.59 -9.22 1.39 -9.31 1.2 -9.47 1.02 -9.57 0.82 -9.63 0.64 -9.74 0.46 -9.89 0.27 -9.96 0.09 0 0zm-185.82 -44.07l41.22 -80.94 -0.01 0 4.22 2.12 4.19 2.02 4.25 1.97 4.27 1.91 4.24 1.82 4.32 1.77 4.3 1.71 4.29 1.61 4.36 1.57 4.42 1.51 4.35 1.43 4.38 1.35 4.44 1.3 4.45 1.23 4.48 1.17 4.49 1.1 4.5 1.04 4.49 0.95 4.62 0.91 4.59 0.84 4.58 0.76 4.63 0.7 4.68 0.64 4.65 0.57 4.68 0.5 4.74 0.43 4.81 0.37 4.8 0.31 4.78 0.24 4.82 0.17 4.88 0.09 4.91 0.04 0 90.86 -6.15 -0.04 -6.12 -0.13 -6.14 -0.21 -6.12 -0.3 -6.08 -0.39 -6.01 -0.47 -6.02 -0.55 -6.04 -0.64 -6.03 -0.73 -5.96 -0.82 -5.95 -0.9 -5.96 -1 -5.89 -1.08 -5.84 -1.15 -5.89 -1.25 -5.86 -1.34 -5.81 -1.42 -5.78 -1.51 -5.75 -1.59 -5.72 -1.68 -5.74 -1.77 -5.71 -1.87 -5.6 -1.93 -5.62 -2.01 -5.65 -2.13 -5.56 -2.19 -5.52 -2.27 -5.54 -2.38 -5.47 -2.45 -5.45 -2.53 -5.45 -2.64 -5.38 -2.7 -0.01 0zm-151.35 -176.14l76.58 48.72 -2.73 -52.56 3.26 4.06 3.27 4 3.27 3.88 3.32 3.84 3.37 3.8 3.4 3.75 3.4 3.65 3.45 3.59 3.48 3.55 3.5 3.47 3.55 3.43 3.57 3.37 3.6 3.29 3.61 3.22 3.64 3.16 3.73 3.14 3.7 3.05 3.74 2.98 3.79 2.95 3.8 2.87 3.84 2.81 3.88 2.76 3.91 2.71 3.91 2.62 4.02 2.61 4 2.53 3.98 2.44 4.09 2.41 4.14 2.38 4.12 2.29 4.17 2.24 4.21 2.19 -41.22 80.94 -5.33 -2.77 -5.29 -2.84 -5.26 -2.93 -5.16 -2.96 -5.15 -3.05 -5.18 -3.16 -5.06 -3.21 -5 -3.25 -5.01 -3.36 -4.93 -3.41 -4.9 -3.48 -4.86 -3.57 -4.82 -3.63 -4.75 -3.69 -4.74 -3.78 -4.68 -3.85 -4.59 -3.88 -4.6 -3.98 -4.55 -4.06 -4.5 -4.13 -4.43 -4.17 -4.39 -4.23 -4.36 -4.33 -4.3 -4.37 -4.27 -4.47 -4.22 -4.53 -4.16 -4.57 -4.11 -4.64 -4.08 -4.72 -4.05 -4.82 -3.97 -4.84 -3.92 -4.9 -2.73 -52.56zm2.73 52.56l-20.01 -25.31 17.28 -27.25 2.73 52.56zm144.44 -115.16l-70.59 111.32 -76.58 -48.72 70.59 -111.32 72.92 -4.99 3.66 53.71zm-76.58 -48.72l33.07 -52.15 39.85 47.16 -72.92 4.99zm168.08 73.54l-41.8 80.64 0.01 0.01 -4.23 -2.24 -4.23 -2.31 -4.2 -2.36 -4.18 -2.43 -4.15 -2.49 -4.1 -2.54 -4.06 -2.58 -4.07 -2.66 -4.09 -2.75 -3.97 -2.77 -3.97 -2.82 -3.97 -2.91 -3.9 -2.92 -3.95 -3.04 -3.88 -3.08 -3.79 -3.08 -3.84 -3.19 -3.85 -3.29 -3.72 -3.26 -3.69 -3.29 -3.75 -3.44 -3.72 -3.49 -3.65 -3.52 -3.59 -3.53 -3.6 -3.61 -3.6 -3.71 -3.55 -3.74 -3.48 -3.74 -3.51 -3.83 -3.5 -3.94 -3.42 -3.93 -3.42 -3.99 69.26 -58.7 2.8 3.29 2.82 3.23 2.8 3.14 2.83 3.11 2.88 3.1 2.85 3 2.84 2.91 2.9 2.91 2.93 2.89 2.89 2.78 2.88 2.71 2.89 2.64 2.99 2.67 2.98 2.62 2.89 2.47 2.96 2.45 3.03 2.46 2.98 2.36 2.95 2.28 3.04 2.28 3.01 2.21 3.05 2.16 3.07 2.13 3.01 2.03 3.05 2 3.12 1.98 3.1 1.92 3.09 1.85 3.1 1.81 3.12 1.76 3.13 1.71 3.17 1.66 0.01 0.01zm97 25.73l0 90.86 0 0 -4.4 -0.04 -4.4 -0.1 -4.41 -0.18 -4.41 -0.26 -4.4 -0.32 -4.45 -0.4 -4.4 -0.48 -4.33 -0.53 -4.39 -0.61 -4.39 -0.68 -4.43 -0.76 -4.39 -0.83 -4.31 -0.88 -4.43 -0.98 -4.36 -1.04 -4.28 -1.08 -4.41 -1.19 -4.33 -1.24 -4.32 -1.31 -4.33 -1.38 -4.3 -1.43 -4.32 -1.52 -4.32 -1.58 -4.27 -1.64 -4.27 -1.7 -4.33 -1.8 -4.22 -1.82 -4.26 -1.9 -4.27 -1.99 -4.2 -2.02 -4.23 -2.09 -4.24 -2.17 41.8 -80.64 3.18 1.63 3.17 1.57 3.22 1.54 3.13 1.45 3.14 1.4 3.18 1.38 3.07 1.28 3.13 1.24 3.11 1.2 3.06 1.12 3.08 1.08 3.08 1.03 3.05 0.98 3.06 0.91 3.03 0.88 2.97 0.79 3.08 0.78 3 0.72 2.93 0.64 3.05 0.62 2.97 0.57 2.93 0.5 2.95 0.46 2.97 0.41 3.01 0.37 2.94 0.32 2.89 0.26 2.92 0.22 2.93 0.16 2.93 0.12 2.92 0.08 2.92 0.02 0 0zm90.82 -33.71l67.68 60.5 0.01 -0.01 -3.65 3.98 -3.77 3.88 -3.85 3.73 -3.97 3.64 -4.09 3.51 -4.19 3.4 -4.29 3.26 -4.34 3.1 -4.52 3.03 -4.54 2.85 -4.58 2.7 -4.77 2.62 -4.87 2.5 -4.88 2.31 -4.89 2.15 -5.03 2.06 -5.14 1.94 -5.16 1.78 -5.16 1.63 -5.33 1.54 -5.34 1.38 -5.38 1.26 -5.44 1.12 -5.5 1.01 -5.6 0.89 -5.56 0.74 -5.64 0.65 -5.75 0.52 -5.74 0.39 -5.8 0.29 -5.85 0.16 -5.89 0.06 0 -90.86 4.17 -0.04 4.07 -0.12 3.98 -0.19 3.88 -0.27 3.73 -0.34 3.68 -0.41 3.64 -0.5 3.44 -0.53 3.38 -0.63 3.3 -0.68 3.22 -0.76 3.12 -0.8 2.97 -0.86 3 -0.95 2.86 -0.98 2.72 -1.02 2.69 -1.1 2.67 -1.19 2.56 -1.21 2.41 -1.22 2.35 -1.3 2.4 -1.42 2.3 -1.43 2.18 -1.47 2.2 -1.58 2.11 -1.6 2.05 -1.66 2.03 -1.75 1.97 -1.8 1.97 -1.91 1.89 -1.94 1.87 -2.04 0.01 -0.01zm32.04 -108.89l90.72 0 0 0 -0.04 6.3 -0.15 6.23 -0.24 6.18 -0.34 6.11 -0.44 6.05 -0.54 6 -0.64 5.94 -0.75 5.91 -0.85 5.78 -0.95 5.76 -1.07 5.73 -1.17 5.59 -1.27 5.57 -1.39 5.51 -1.5 5.44 -1.62 5.39 -1.73 5.31 -1.87 5.31 -1.97 5.18 -2.07 5.07 -2.2 5.03 -2.33 4.97 -2.45 4.91 -2.59 4.84 -2.7 4.72 -2.79 4.6 -2.93 4.56 -3.08 4.5 -3.17 4.37 -3.29 4.27 -3.41 4.17 -3.54 4.09 -67.68 -60.5 1.82 -2.11 1.77 -2.17 1.73 -2.25 1.69 -2.31 1.6 -2.34 1.57 -2.44 1.55 -2.56 1.48 -2.6 1.41 -2.64 1.37 -2.73 1.33 -2.85 1.28 -2.93 1.25 -3.07 1.19 -3.1 1.11 -3.15 1.07 -3.31 1.02 -3.39 0.96 -3.5 0.91 -3.59 0.85 -3.69 0.79 -3.83 0.73 -3.85 0.65 -3.98 0.61 -4.14 0.53 -4.15 0.46 -4.3 0.4 -4.4 0.32 -4.49 0.26 -4.61 0.18 -4.7 0.11 -4.81 0.04 -4.9 0 0zm90.72 -597.17l0 597.17 -90.72 0 0 -597.17 45.36 -45.43 45.36 45.43zm-45.36 -45.43l45.36 0 0 45.43 -45.36 -45.43zm-370.98 0l370.98 0 0 90.86 -370.98 0 -45.36 -45.43 45.36 -45.43zm0 90.86l-45.36 0 0 -45.43 45.36 45.43zm45.36 -177.8l0 132.37 -90.72 0 0 -132.37 45.36 -45.43 45.36 45.43zm-90.72 0l0 -45.43 45.36 0 -45.36 45.43zm562.03 45.43l-516.67 0 0 -90.86 516.67 0 45.36 45.43 -45.36 45.43zm0 -90.86l45.36 0 0 45.43 -45.36 -45.43zm-45.36 779.49l0 -734.06 90.72 0 0 734.06 0 0 -90.72 0zm1200.01 -712.08l-44.1 79.4 0 0 -7.32 -4 -7.38 -3.88 -7.38 -3.74 -7.44 -3.61 -7.52 -3.5 -7.5 -3.36 -7.55 -3.22 -7.64 -3.11 -7.67 -2.99 -7.68 -2.85 -7.73 -2.72 -7.78 -2.59 -7.83 -2.46 -7.88 -2.35 -7.94 -2.22 -7.97 -2.09 -8 -1.97 -8.06 -1.83 -8.13 -1.71 -8.18 -1.6 -8.2 -1.46 -8.26 -1.33 -8.3 -1.21 -8.38 -1.08 -8.44 -0.96 -8.44 -0.83 -8.53 -0.7 -8.59 -0.58 -8.6 -0.44 -8.7 -0.32 -8.75 -0.19 -8.79 -0.07 0 -90.86 10.13 0.07 10.07 0.23 10.02 0.36 10.02 0.52 9.93 0.68 9.89 0.8 9.9 0.97 9.8 1.12 9.76 1.26 9.74 1.41 9.68 1.57 9.66 1.72 9.56 1.86 9.53 2.01 9.5 2.17 9.46 2.31 9.39 2.47 9.34 2.62 9.28 2.75 9.25 2.92 9.2 3.07 9.15 3.22 9.1 3.37 9.01 3.51 8.96 3.65 8.95 3.82 8.88 3.96 8.78 4.1 8.78 4.25 8.72 4.42 8.62 4.54 8.6 4.7 0 0zm217.34 209.58l-77.76 46.82 0.01 0 -4.28 -6.99 -4.37 -6.9 -4.47 -6.81 -4.54 -6.69 -4.63 -6.58 -4.75 -6.53 -4.83 -6.4 -4.9 -6.3 -5.02 -6.21 -5.12 -6.14 -5.2 -6.03 -5.29 -5.92 -5.4 -5.85 -5.47 -5.75 -5.56 -5.63 -5.68 -5.56 -5.78 -5.48 -5.86 -5.38 -5.96 -5.28 -6.05 -5.19 -6.16 -5.11 -6.28 -5.03 -6.34 -4.91 -6.46 -4.84 -6.55 -4.75 -6.65 -4.65 -6.78 -4.59 -6.84 -4.47 -6.95 -4.38 -7.07 -4.31 -7.17 -4.21 -7.28 -4.13 44.1 -79.4 8.48 4.81 8.39 4.93 8.27 5.03 8.19 5.16 8.08 5.29 7.94 5.37 7.85 5.49 7.75 5.61 7.64 5.72 7.54 5.85 7.4 5.95 7.32 6.05 7.21 6.19 7.08 6.28 6.98 6.4 6.86 6.5 6.76 6.62 6.66 6.75 6.53 6.85 6.4 6.93 6.31 7.08 6.18 7.17 6.06 7.26 5.96 7.39 5.86 7.5 5.71 7.6 5.61 7.69 5.51 7.82 5.38 7.93 5.25 8.01 5.15 8.12 5.02 8.23 0.01 0zm80.08 293.41l-90.72 0 0 0 -0.07 -8.47 -0.2 -8.41 -0.33 -8.38 -0.46 -8.31 -0.6 -8.25 -0.72 -8.21 -0.85 -8.15 -0.99 -8.09 -1.11 -8.04 -1.25 -8 -1.38 -7.95 -1.51 -7.88 -1.64 -7.85 -1.77 -7.81 -1.89 -7.74 -2.03 -7.7 -2.15 -7.65 -2.29 -7.6 -2.43 -7.58 -2.54 -7.5 -2.69 -7.49 -2.82 -7.46 -2.93 -7.37 -3.07 -7.34 -3.21 -7.31 -3.33 -7.25 -3.49 -7.25 -3.6 -7.19 -3.74 -7.15 -3.88 -7.11 -4 -7.07 -4.15 -7.03 77.76 -46.82 4.91 8.35 4.76 8.39 4.6 8.45 4.46 8.53 4.3 8.57 4.13 8.61 4.01 8.69 3.83 8.75 3.69 8.8 3.53 8.87 3.36 8.9 3.21 8.95 3.06 9.02 2.89 9.06 2.75 9.12 2.59 9.19 2.43 9.22 2.27 9.28 2.11 9.31 1.96 9.37 1.79 9.42 1.64 9.45 1.49 9.52 1.33 9.56 1.17 9.61 1.01 9.65 0.86 9.67 0.7 9.75 0.54 9.77 0.39 9.8 0.24 9.87 0.07 9.91 0 0zm-79.96 294.71l-78 -46.4 0 0 4.16 -7.14 4.01 -7.16 3.88 -7.21 3.75 -7.25 3.61 -7.27 3.49 -7.33 3.35 -7.36 3.21 -7.37 3.08 -7.42 2.94 -7.47 2.83 -7.52 2.68 -7.54 2.55 -7.57 2.43 -7.65 2.3 -7.67 2.15 -7.69 2.03 -7.75 1.9 -7.79 1.77 -7.86 1.64 -7.89 1.51 -7.93 1.38 -7.99 1.25 -8.02 1.12 -8.07 0.99 -8.12 0.85 -8.17 0.72 -8.23 0.6 -8.27 0.46 -8.31 0.33 -8.4 0.2 -8.42 0.07 -8.47 90.72 0 -0.07 9.91 -0.24 9.88 -0.39 9.8 -0.54 9.79 -0.7 9.75 -0.86 9.69 -1.01 9.67 -1.17 9.62 -1.32 9.59 -1.49 9.54 -1.64 9.47 -1.79 9.45 -1.96 9.41 -2.11 9.34 -2.26 9.31 -2.43 9.27 -2.59 9.23 -2.74 9.15 -2.89 9.11 -3.05 9.07 -3.22 9.02 -3.35 8.94 -3.52 8.91 -3.68 8.88 -3.83 8.81 -3.99 8.74 -4.13 8.69 -4.29 8.65 -4.45 8.59 -4.6 8.53 -4.75 8.48 -4.9 8.42 0 0zm-217.28 211.95l-44.46 -79.2 0 0 7.27 -4.17 7.18 -4.26 7.07 -4.35 6.95 -4.43 6.84 -4.52 6.75 -4.61 6.66 -4.72 6.57 -4.81 6.43 -4.87 6.36 -5 6.28 -5.08 6.15 -5.16 6.04 -5.24 5.97 -5.36 5.88 -5.45 5.76 -5.53 5.69 -5.64 5.57 -5.71 5.47 -5.81 5.41 -5.92 5.29 -6 5.19 -6.1 5.13 -6.21 5.02 -6.29 4.91 -6.38 4.83 -6.5 4.76 -6.6 4.64 -6.69 4.55 -6.77 4.46 -6.88 4.38 -7 4.28 -7.09 78 46.4 -5.02 8.31 -5.14 8.22 -5.26 8.12 -5.37 8.01 -5.5 7.89 -5.6 7.8 -5.71 7.66 -5.85 7.6 -5.96 7.47 -6.05 7.35 -6.19 7.26 -6.31 7.14 -6.39 7.02 -6.53 6.93 -6.65 6.81 -6.75 6.7 -6.88 6.59 -6.96 6.45 -7.07 6.36 -7.22 6.26 -7.33 6.14 -7.4 6 -7.52 5.9 -7.67 5.81 -7.73 5.65 -7.84 5.56 -7.97 5.45 -8.08 5.34 -8.19 5.21 -8.27 5.09 -8.38 4.98 -8.49 4.87 0 0zm-300.84 77.28l0 -90.86 0 0 8.79 -0.07 8.73 -0.19 8.67 -0.32 8.65 -0.46 8.56 -0.57 8.49 -0.71 8.46 -0.84 8.44 -0.97 8.36 -1.09 8.3 -1.22 8.25 -1.35 8.21 -1.48 8.15 -1.6 8.11 -1.73 8.08 -1.86 7.99 -1.98 7.96 -2.12 7.94 -2.24 7.86 -2.36 7.84 -2.5 7.77 -2.62 7.73 -2.75 7.69 -2.87 7.65 -3.01 7.62 -3.14 7.55 -3.26 7.53 -3.4 7.49 -3.52 7.43 -3.65 7.4 -3.78 7.36 -3.91 7.32 -4.05 44.46 79.2 -8.6 4.75 -8.64 4.59 -8.7 4.46 -8.79 4.31 -8.81 4.14 -8.85 4 -8.95 3.86 -8.98 3.7 -9.03 3.55 -9.09 3.41 -9.15 3.25 -9.21 3.1 -9.24 2.94 -9.3 2.8 -9.34 2.64 -9.4 2.5 -9.47 2.34 -9.48 2.18 -9.55 2.05 -9.59 1.88 -9.65 1.74 -9.69 1.57 -9.74 1.44 -9.78 1.27 -9.8 1.13 -9.88 0.98 -9.93 0.83 -9.96 0.67 -9.97 0.52 -10.05 0.38 -10.09 0.23 -10.13 0.07 0 0zm-300.82 -77.28l44.44 -79.2 0.01 0 7.32 4.05 7.36 3.91 7.4 3.78 7.43 3.65 7.49 3.52 7.53 3.4 7.55 3.26 7.62 3.14 7.65 3.01 7.69 2.87 7.73 2.75 7.77 2.62 7.84 2.5 7.86 2.36 7.94 2.24 7.96 2.12 7.99 1.98 8.08 1.86 8.11 1.73 8.15 1.6 8.2 1.48 8.26 1.34 8.3 1.23 8.36 1.09 8.43 0.97 8.46 0.84 8.49 0.71 8.57 0.57 8.65 0.46 8.67 0.32 8.72 0.19 8.79 0.07 0 90.86 -10.13 -0.07 -10.08 -0.23 -10.05 -0.38 -9.97 -0.52 -9.97 -0.67 -9.93 -0.83 -9.88 -0.98 -9.79 -1.13 -9.78 -1.27 -9.74 -1.43 -9.7 -1.58 -9.64 -1.74 -9.59 -1.88 -9.55 -2.05 -9.48 -2.18 -9.47 -2.34 -9.4 -2.5 -9.34 -2.64 -9.3 -2.8 -9.24 -2.94 -9.21 -3.1 -9.15 -3.25 -9.09 -3.41 -9.03 -3.55 -8.98 -3.7 -8.95 -3.86 -8.85 -4 -8.81 -4.14 -8.79 -4.31 -8.7 -4.46 -8.64 -4.59 -8.6 -4.75 0.01 0zm-217.29 -211.95l78 -46.4 0 0 4.28 7.09 4.38 7 4.46 6.88 4.55 6.77 4.66 6.7 4.73 6.59 4.83 6.48 4.94 6.42 5 6.28 5.12 6.2 5.19 6.1 5.29 6 5.39 5.91 5.49 5.81 5.59 5.73 5.68 5.65 5.75 5.51 5.87 5.44 5.97 5.36 6.07 5.26 6.14 5.16 6.27 5.07 6.36 5 6.43 4.87 6.56 4.8 6.67 4.72 6.76 4.62 6.84 4.52 6.95 4.43 7.07 4.35 7.18 4.26 7.26 4.17 -44.44 79.2 -8.5 -4.87 -8.38 -4.98 -8.27 -5.09 -8.19 -5.21 -8.08 -5.34 -7.96 -5.44 -7.85 -5.56 -7.74 -5.66 -7.67 -5.81 -7.52 -5.9 -7.41 -6.01 -7.32 -6.14 -7.19 -6.24 -7.09 -6.36 -6.97 -6.46 -6.89 -6.61 -6.74 -6.69 -6.63 -6.79 -6.53 -6.93 -6.41 -7.03 -6.31 -7.14 -6.19 -7.26 -6.06 -7.36 -5.96 -7.48 -5.82 -7.56 -5.73 -7.68 -5.61 -7.81 -5.48 -7.88 -5.37 -8.01 -5.26 -8.12 -5.14 -8.22 -5.02 -8.31 0 0zm-79.96 -294.71l90.72 0 0 0 0.07 8.47 0.2 8.42 0.33 8.4 0.46 8.31 0.6 8.27 0.72 8.23 0.85 8.17 0.99 8.12 1.12 8.07 1.25 8.02 1.38 7.99 1.51 7.93 1.64 7.89 1.77 7.86 1.9 7.79 2.03 7.75 2.15 7.69 2.3 7.67 2.43 7.65 2.55 7.57 2.68 7.54 2.83 7.52 2.94 7.47 3.08 7.42 3.21 7.37 3.35 7.36 3.49 7.33 3.61 7.27 3.75 7.25 3.88 7.21 4.01 7.16 4.16 7.14 -78 46.4 -4.9 -8.42 -4.75 -8.48 -4.6 -8.53 -4.45 -8.59 -4.29 -8.65 -4.13 -8.69 -3.99 -8.74 -3.83 -8.81 -3.68 -8.88 -3.52 -8.91 -3.35 -8.94 -3.22 -9.02 -3.05 -9.07 -2.89 -9.11 -2.74 -9.15 -2.59 -9.23 -2.43 -9.27 -2.26 -9.31 -2.11 -9.34 -1.96 -9.41 -1.79 -9.45 -1.64 -9.47 -1.49 -9.54 -1.32 -9.59 -1.17 -9.62 -1.01 -9.67 -0.86 -9.69 -0.7 -9.75 -0.54 -9.79 -0.39 -9.8 -0.24 -9.88 -0.07 -9.91 0 0zm80.08 -293.41l77.76 46.82 -0.01 0 -4.14 7.03 -4 7.07 -3.88 7.11 -3.74 7.15 -3.6 7.19 -3.49 7.25 -3.33 7.25 -3.21 7.31 -3.07 7.34 -2.93 7.37 -2.82 7.46 -2.69 7.49 -2.54 7.5 -2.43 7.58 -2.29 7.6 -2.15 7.65 -2.03 7.7 -1.89 7.74 -1.77 7.81 -1.64 7.85 -1.51 7.88 -1.38 7.95 -1.25 8 -1.11 8.04 -0.99 8.09 -0.85 8.15 -0.72 8.21 -0.6 8.25 -0.46 8.31 -0.33 8.38 -0.2 8.41 -0.07 8.47 -90.72 0 0.07 -9.91 0.24 -9.87 0.39 -9.8 0.54 -9.77 0.7 -9.75 0.86 -9.67 1.01 -9.65 1.17 -9.61 1.33 -9.56 1.49 -9.52 1.64 -9.45 1.79 -9.42 1.96 -9.37 2.11 -9.31 2.27 -9.28 2.43 -9.22 2.59 -9.19 2.75 -9.12 2.89 -9.06 3.06 -9.02 3.21 -8.95 3.36 -8.9 3.53 -8.87 3.69 -8.8 3.83 -8.75 4.01 -8.69 4.13 -8.61 4.3 -8.57 4.46 -8.53 4.6 -8.45 4.76 -8.39 4.92 -8.35 -0.01 0zm216.49 -209.52l44.3 79.28 0 0.01 -7.23 4.12 -7.13 4.21 -7.02 4.3 -6.92 4.39 -6.8 4.47 -6.74 4.59 -6.64 4.66 -6.51 4.73 -6.42 4.84 -6.32 4.92 -6.23 5.02 -6.12 5.1 -6.04 5.21 -5.95 5.29 -5.83 5.37 -5.75 5.47 -5.66 5.57 -5.56 5.65 -5.47 5.75 -5.36 5.83 -5.28 5.94 -5.2 6.04 -5.1 6.12 -5 6.22 -4.91 6.3 -4.81 6.41 -4.75 6.53 -4.63 6.59 -4.55 6.71 -4.46 6.8 -4.36 6.89 -4.28 7.01 -77.76 -46.82 5.02 -8.21 5.14 -8.13 5.26 -8.02 5.37 -7.91 5.49 -7.81 5.59 -7.69 5.71 -7.59 5.83 -7.5 5.94 -7.38 6.06 -7.28 6.16 -7.16 6.28 -7.06 6.4 -6.95 6.51 -6.85 6.62 -6.73 6.72 -6.61 6.83 -6.51 6.97 -6.41 7.05 -6.27 7.16 -6.17 7.28 -6.06 7.39 -5.96 7.5 -5.84 7.6 -5.72 7.73 -5.63 7.8 -5.48 7.9 -5.37 8.04 -5.29 8.14 -5.15 8.22 -5.04 8.35 -4.93 8.43 -4.82 0 0.01zm301.5 -76.49l0 90.86 0 0 -8.88 0.07 -8.85 0.19 -8.79 0.32 -8.68 0.44 -8.66 0.59 -8.62 0.69 -8.5 0.83 -8.5 0.96 -8.43 1.09 -8.37 1.2 -8.3 1.34 -8.24 1.46 -8.23 1.59 -8.15 1.72 -8.09 1.83 -8.03 1.96 -7.98 2.09 -7.95 2.23 -7.9 2.34 -7.81 2.46 -7.78 2.59 -7.73 2.72 -7.67 2.85 -7.65 2.98 -7.6 3.11 -7.54 3.22 -7.49 3.35 -7.45 3.49 -7.4 3.6 -7.35 3.74 -7.31 3.87 -7.27 3.99 -44.3 -79.28 8.55 -4.71 8.61 -4.55 8.69 -4.42 8.74 -4.26 8.79 -4.11 8.87 -3.97 8.92 -3.82 8.96 -3.65 9.01 -3.52 9.11 -3.37 9.15 -3.22 9.2 -3.07 9.27 -2.92 9.3 -2.76 9.35 -2.61 9.42 -2.47 9.49 -2.32 9.53 -2.17 9.57 -2 9.61 -1.87 9.68 -1.72 9.74 -1.56 9.79 -1.42 9.81 -1.25 9.86 -1.12 9.96 -0.97 9.96 -0.81 10 -0.67 10.1 -0.52 10.11 -0.36 10.13 -0.23 10.22 -0.07 0 0zm-179.37 268.31l-45.28 -78.74 0 0 6.5 -3.68 6.55 -3.57 6.61 -3.47 6.63 -3.34 6.66 -3.23 6.72 -3.11 6.74 -3 6.77 -2.88 6.81 -2.77 6.9 -2.66 6.9 -2.54 6.94 -2.41 6.95 -2.29 7 -2.19 7.07 -2.07 7.08 -1.94 7.06 -1.82 7.17 -1.72 7.17 -1.58 7.2 -1.49 7.27 -1.35 7.23 -1.23 7.29 -1.12 7.35 -1 7.35 -0.88 7.37 -0.77 7.44 -0.64 7.44 -0.52 7.42 -0.41 7.49 -0.3 7.53 -0.17 7.54 -0.06 0 90.86 -6.14 0.04 -6.07 0.15 -6.07 0.24 -6.06 0.33 -6 0.42 -5.92 0.52 -5.93 0.61 -5.89 0.7 -5.83 0.8 -5.83 0.9 -5.83 0.99 -5.73 1.07 -5.74 1.17 -5.69 1.26 -5.65 1.36 -5.68 1.46 -5.62 1.54 -5.55 1.63 -5.56 1.73 -5.55 1.83 -5.52 1.93 -5.48 2 -5.42 2.1 -5.43 2.21 -5.43 2.3 -5.4 2.4 -5.36 2.49 -5.34 2.59 -5.33 2.68 -5.27 2.77 -5.29 2.89 -5.26 2.98 0 0zm-133.21 130.71l-77.74 -46.84 0 0 3.88 -6.35 3.96 -6.24 4.03 -6.17 4.14 -6.13 4.23 -6.04 4.3 -5.94 4.38 -5.85 4.48 -5.81 4.57 -5.71 4.63 -5.62 4.75 -5.57 4.84 -5.49 4.88 -5.37 4.97 -5.28 5.07 -5.23 5.17 -5.16 5.22 -5.03 5.32 -4.98 5.42 -4.9 5.47 -4.79 5.56 -4.72 5.63 -4.62 5.72 -4.55 5.84 -4.49 5.89 -4.37 5.92 -4.26 6.03 -4.21 6.14 -4.13 6.2 -4.03 6.25 -3.93 6.35 -3.86 6.43 -3.78 45.28 78.74 -5.23 3.06 -5.15 3.14 -5.11 3.21 -5.02 3.27 -4.92 3.31 -4.87 3.39 -4.84 3.48 -4.73 3.51 -4.62 3.55 -4.58 3.65 -4.53 3.72 -4.46 3.78 -4.39 3.85 -4.3 3.88 -4.24 3.98 -4.2 4.05 -4.09 4.08 -4.05 4.17 -3.99 4.26 -3.94 4.31 -3.84 4.35 -3.77 4.43 -3.73 4.52 -3.65 4.57 -3.58 4.63 -3.54 4.75 -3.48 4.8 -3.39 4.84 -3.32 4.91 -3.29 5.03 -3.22 5.1 -3.14 5.13 0 0zm-49.08 180.4l-90.72 0 0 0 0.05 -7.66 0.19 -7.63 0.3 -7.58 0.42 -7.56 0.54 -7.51 0.66 -7.51 0.79 -7.48 0.9 -7.44 1.04 -7.42 1.14 -7.33 1.27 -7.32 1.39 -7.3 1.53 -7.31 1.64 -7.2 1.75 -7.16 1.88 -7.16 2 -7.11 2.13 -7.08 2.26 -7.05 2.37 -6.98 2.47 -6.91 2.63 -6.95 2.75 -6.88 2.84 -6.79 2.96 -6.75 3.1 -6.75 3.22 -6.68 3.33 -6.65 3.46 -6.61 3.56 -6.52 3.68 -6.51 3.81 -6.45 77.74 46.84 -3.03 5.15 -2.94 5.17 -2.84 5.22 -2.74 5.21 -2.63 5.25 -2.54 5.28 -2.42 5.29 -2.36 5.37 -2.26 5.39 -2.15 5.38 -2.03 5.39 -1.97 5.49 -1.87 5.5 -1.76 5.51 -1.67 5.56 -1.58 5.59 -1.48 5.62 -1.39 5.68 -1.3 5.72 -1.19 5.69 -1.09 5.76 -1.01 5.84 -0.92 5.87 -0.82 5.88 -0.72 5.92 -0.63 5.96 -0.52 5.99 -0.44 6.09 -0.34 6.08 -0.24 6.16 -0.15 6.17 -0.05 6.22 0 0zm49.16 181.29l-77.9 46.56 0 0 -3.8 -6.5 -3.68 -6.52 -3.55 -6.58 -3.46 -6.64 -3.33 -6.67 -3.21 -6.74 -3.09 -6.76 -2.96 -6.79 -2.84 -6.82 -2.74 -6.91 -2.62 -6.96 -2.47 -6.95 -2.37 -6.99 -2.25 -7.06 -2.13 -7.11 -2 -7.14 -1.88 -7.17 -1.75 -7.19 -1.64 -7.21 -1.53 -7.31 -1.38 -7.32 -1.27 -7.33 -1.14 -7.35 -1.04 -7.42 -0.9 -7.45 -0.79 -7.49 -0.66 -7.51 -0.54 -7.51 -0.42 -7.59 -0.3 -7.57 -0.19 -7.63 -0.05 -7.66 90.72 0 0.05 6.22 0.15 6.17 0.24 6.17 0.34 6.09 0.44 6.09 0.52 6.01 0.63 5.97 0.72 5.93 0.82 5.9 0.92 5.89 1.01 5.85 1.1 5.78 1.19 5.71 1.3 5.75 1.39 5.71 1.48 5.65 1.58 5.62 1.67 5.57 1.77 5.54 1.87 5.55 1.97 5.51 2.04 5.44 2.16 5.43 2.26 5.42 2.36 5.41 2.43 5.34 2.55 5.32 2.63 5.29 2.74 5.28 2.85 5.24 2.94 5.24 3.04 5.2 0 0zm133.36 132.22l-45.74 78.46 -0.01 0 -6.41 -3.82 -6.34 -3.9 -6.26 -3.99 -6.19 -4.07 -6.16 -4.2 -6 -4.24 -5.95 -4.32 -5.9 -4.45 -5.79 -4.51 -5.72 -4.59 -5.62 -4.67 -5.56 -4.76 -5.48 -4.86 -5.4 -4.93 -5.31 -5.02 -5.23 -5.1 -5.15 -5.19 -5.07 -5.27 -4.97 -5.36 -4.89 -5.41 -4.81 -5.52 -4.75 -5.61 -4.64 -5.69 -4.56 -5.75 -4.47 -5.84 -4.37 -5.9 -4.3 -6 -4.23 -6.09 -4.12 -6.16 -4.03 -6.2 -3.96 -6.31 -3.87 -6.39 77.9 -46.56 3.15 5.19 3.22 5.13 3.29 5.08 3.34 4.98 3.39 4.89 3.48 4.84 3.55 4.78 3.59 4.7 3.66 4.63 3.72 4.55 3.77 4.47 3.87 4.42 3.93 4.37 3.99 4.28 4.05 4.21 4.11 4.15 4.19 4.08 4.25 4.02 4.32 3.95 4.38 3.88 4.46 3.82 4.54 3.77 4.58 3.69 4.67 3.63 4.72 3.55 4.81 3.5 4.9 3.46 4.9 3.34 5.03 3.31 5.1 3.25 5.16 3.18 5.25 3.12 -0.01 0zm180.64 48.7l0 90.86 0 0 -7.54 -0.06 -7.53 -0.17 -7.53 -0.3 -7.45 -0.42 -7.44 -0.53 -7.43 -0.66 -7.38 -0.78 -7.34 -0.88 -7.36 -1.02 -7.32 -1.14 -7.26 -1.26 -7.23 -1.36 -7.25 -1.5 -7.16 -1.62 -7.13 -1.72 -7.13 -1.86 -7.11 -1.98 -7.04 -2.1 -7.03 -2.22 -6.95 -2.33 -6.93 -2.44 -6.93 -2.59 -6.87 -2.68 -6.83 -2.82 -6.77 -2.91 -6.74 -3.04 -6.74 -3.17 -6.69 -3.28 -6.62 -3.39 -6.57 -3.5 -6.58 -3.63 -6.5 -3.74 45.74 -78.46 5.26 3.02 5.26 2.91 5.31 2.82 5.34 2.73 5.31 2.62 5.34 2.51 5.4 2.42 5.43 2.35 5.41 2.22 5.45 2.14 5.45 2.03 5.53 1.94 5.55 1.87 5.53 1.74 5.58 1.66 5.59 1.56 5.61 1.46 5.69 1.38 5.7 1.28 5.69 1.18 5.77 1.1 5.8 1 5.8 0.9 5.82 0.8 5.9 0.72 5.92 0.62 5.93 0.52 6 0.43 6.03 0.34 6.03 0.24 6.07 0.15 6.14 0.04 0 0zm178.87 -48.54l46.3 78.14 0 0 -6.42 3.75 -6.49 3.64 -6.51 3.51 -6.56 3.41 -6.62 3.3 -6.66 3.17 -6.67 3.04 -6.71 2.93 -6.81 2.83 -6.81 2.69 -6.86 2.59 -6.88 2.44 -6.91 2.35 -6.99 2.22 -7 2.1 -7.07 1.99 -7.09 1.86 -7.1 1.73 -7.14 1.62 -7.21 1.5 -7.21 1.37 -7.24 1.26 -7.29 1.14 -7.33 1.01 -7.34 0.89 -7.37 0.78 -7.43 0.66 -7.42 0.53 -7.44 0.42 -7.52 0.3 -7.53 0.17 -7.54 0.06 0 -90.86 6.14 -0.04 6.07 -0.15 6.02 -0.24 6.02 -0.34 5.98 -0.43 5.91 -0.52 5.91 -0.62 5.86 -0.71 5.79 -0.81 5.77 -0.9 5.76 -1 5.73 -1.09 5.65 -1.18 5.66 -1.28 5.62 -1.37 5.57 -1.46 5.53 -1.55 5.52 -1.66 5.47 -1.74 5.47 -1.85 5.44 -1.94 5.4 -2.03 5.39 -2.13 5.31 -2.21 5.33 -2.33 5.31 -2.42 5.26 -2.51 5.24 -2.6 5.22 -2.71 5.21 -2.81 5.15 -2.9 5.16 -3.01 0 0zm131.24 -132.15l78.18 46.1 0 -0.01 -3.81 6.38 -3.91 6.32 -3.97 6.2 -4.07 6.16 -4.16 6.08 -4.23 5.98 -4.31 5.9 -4.4 5.85 -4.52 5.78 -4.57 5.67 -4.64 5.58 -4.74 5.53 -4.83 5.44 -4.92 5.36 -4.98 5.26 -5.07 5.19 -5.17 5.11 -5.22 5.02 -5.32 4.94 -5.41 4.86 -5.47 4.76 -5.56 4.69 -5.64 4.6 -5.69 4.49 -5.82 4.46 -5.86 4.33 -5.92 4.25 -6.06 4.19 -6.09 4.08 -6.18 4 -6.26 3.92 -6.32 3.82 -46.3 -78.14 5.16 -3.12 5.06 -3.16 5 -3.24 4.93 -3.3 4.84 -3.35 4.8 -3.45 4.74 -3.49 4.62 -3.54 4.61 -3.65 4.52 -3.68 4.44 -3.75 4.39 -3.82 4.31 -3.88 4.24 -3.94 4.2 -4.02 4.11 -4.07 4.05 -4.15 4 -4.22 3.92 -4.28 3.85 -4.34 3.8 -4.41 3.74 -4.5 3.69 -4.57 3.58 -4.6 3.54 -4.69 3.49 -4.78 3.43 -4.86 3.36 -4.9 3.29 -4.98 3.25 -5.08 3.17 -5.12 3.11 -5.2 0 -0.01zm48.56 -181.52l90.72 0 0 0 -0.05 7.63 -0.18 7.63 -0.3 7.6 -0.42 7.55 -0.53 7.52 -0.65 7.48 -0.77 7.48 -0.9 7.45 -1.01 7.39 -1.13 7.36 -1.25 7.32 -1.37 7.32 -1.5 7.28 -1.62 7.21 -1.72 7.19 -1.86 7.17 -1.97 7.12 -2.09 7.08 -2.22 7.05 -2.33 7 -2.46 6.98 -2.58 6.93 -2.68 6.86 -2.81 6.85 -2.94 6.82 -3.04 6.74 -3.16 6.71 -3.27 6.65 -3.4 6.64 -3.53 6.61 -3.62 6.51 -3.74 6.49 -78.18 -46.1 3 -5.21 2.92 -5.25 2.79 -5.21 2.7 -5.28 2.61 -5.31 2.52 -5.35 2.42 -5.36 2.32 -5.38 2.21 -5.39 2.14 -5.48 2.04 -5.47 1.92 -5.48 1.85 -5.54 1.74 -5.55 1.65 -5.6 1.57 -5.64 1.46 -5.65 1.38 -5.71 1.28 -5.75 1.18 -5.74 1.09 -5.78 0.99 -5.86 0.91 -5.88 0.81 -5.93 0.72 -5.93 0.61 -5.98 0.53 -6.04 0.43 -6.08 0.34 -6.13 0.24 -6.14 0.14 -6.17 0.05 -6.25 0 0zm-48.48 -180.64l78.02 -46.36 0 -0.01 3.75 6.45 3.63 6.49 3.52 6.55 3.42 6.61 3.27 6.63 3.16 6.66 3.05 6.72 2.95 6.79 2.81 6.82 2.68 6.82 2.59 6.92 2.46 6.95 2.33 6.98 2.23 7.05 2.08 7.05 1.98 7.08 1.86 7.16 1.73 7.16 1.61 7.21 1.5 7.27 1.38 7.3 1.24 7.32 1.14 7.33 1.01 7.39 0.9 7.44 0.77 7.48 0.65 7.47 0.53 7.51 0.42 7.53 0.3 7.61 0.18 7.63 0.05 7.63 -90.72 0 -0.05 -6.25 -0.14 -6.17 -0.24 -6.13 -0.34 -6.11 -0.43 -6.09 -0.53 -6.03 -0.61 -5.96 -0.72 -5.92 -0.81 -5.91 -0.9 -5.87 -1 -5.84 -1.08 -5.76 -1.18 -5.73 -1.29 -5.71 -1.37 -5.68 -1.46 -5.62 -1.56 -5.62 -1.66 -5.59 -1.73 -5.51 -1.85 -5.5 -1.92 -5.45 -2.03 -5.42 -2.14 -5.44 -2.21 -5.36 -2.31 -5.33 -2.41 -5.32 -2.52 -5.3 -2.61 -5.27 -2.68 -5.21 -2.8 -5.19 -2.91 -5.19 -2.99 -5.15 0 -0.01zm-131.08 -130.63l45.82 -78.42 0.01 0 6.33 3.78 6.26 3.87 6.19 3.95 6.09 4.03 6.04 4.13 5.95 4.21 5.84 4.27 5.8 4.38 5.74 4.48 5.65 4.56 5.56 4.64 5.47 4.71 5.4 4.8 5.34 4.91 5.23 4.97 5.15 5.04 5.1 5.17 4.98 5.21 4.91 5.3 4.83 5.39 4.77 5.49 4.65 5.55 4.56 5.6 4.52 5.73 4.42 5.82 4.32 5.86 4.22 5.92 4.16 6.03 4.09 6.13 3.98 6.17 3.9 6.25 3.82 6.34 -78.02 46.36 -3.1 -5.14 -3.18 -5.09 -3.24 -5.03 -3.27 -4.91 -3.36 -4.85 -3.44 -4.82 -3.48 -4.74 -3.52 -4.62 -3.58 -4.55 -3.7 -4.54 -3.73 -4.45 -3.77 -4.35 -3.85 -4.29 -3.93 -4.24 -4 -4.19 -4.02 -4.07 -4.13 -4.04 -4.19 -3.99 -4.22 -3.87 -4.32 -3.84 -4.39 -3.79 -4.44 -3.7 -4.51 -3.64 -4.56 -3.56 -4.64 -3.5 -4.76 -3.47 -4.77 -3.39 -4.86 -3.31 -4.93 -3.27 -4.99 -3.19 -5.06 -3.13 -5.15 -3.06 0.01 0zm-179.11 -47.93l0 -90.86 0 0 7.54 0.06 7.53 0.17 7.48 0.3 7.42 0.41 7.42 0.52 7.42 0.64 7.37 0.77 7.34 0.88 7.33 1 7.26 1.13 7.21 1.23 7.24 1.35 7.17 1.49 7.15 1.58 7.13 1.73 7.03 1.82 7.04 1.94 7.03 2.08 6.96 2.19 6.92 2.3 6.87 2.43 6.84 2.53 6.84 2.67 6.78 2.78 6.72 2.89 6.67 3.01 6.63 3.12 6.61 3.24 6.56 3.35 6.54 3.48 6.47 3.59 6.41 3.69 -45.82 78.42 -5.17 -2.97 -5.17 -2.87 -5.18 -2.76 -5.22 -2.67 -5.25 -2.58 -5.29 -2.48 -5.31 -2.39 -5.32 -2.29 -5.34 -2.2 -5.36 -2.09 -5.42 -2.01 -5.45 -1.91 -5.46 -1.82 -5.5 -1.73 -5.49 -1.62 -5.56 -1.54 -5.63 -1.46 -5.59 -1.35 -5.65 -1.26 -5.69 -1.17 -5.7 -1.07 -5.79 -0.99 -5.8 -0.89 -5.79 -0.8 -5.86 -0.7 -5.91 -0.61 -5.92 -0.52 -5.98 -0.42 -6.04 -0.33 -6.06 -0.24 -6.07 -0.15 -6.14 -0.04 0 0z"/>
   </g>
   <path id="_1" class="fil0" d="M6935.93 19049.21c-49.06,-31.09 -99.88,-54.4 -152.44,-69.95 -52.57,-15.54 -100.89,-23.31 -144.94,-23.31 -61.08,0 -109.9,11.78 -146.44,35.35 -36.55,23.56 -54.82,55.9 -54.82,97.02 0,37.1 11.01,67.44 33.04,91 22.03,23.57 49.07,42.12 81.11,55.66 32.03,13.54 76.59,29.33 133.67,47.38 71.09,22.06 128.66,43.12 172.71,63.18 44.07,20.05 81.61,49.89 112.65,89.5 31.05,39.61 46.56,92.01 46.56,157.19 0,60.17 -16.27,112.81 -48.81,157.94 -32.54,45.13 -78.1,79.97 -136.68,104.54 -58.57,24.57 -125.91,36.86 -202.01,36.86 -77.09,0 -152.19,-15.05 -225.29,-45.13 -73.09,-30.09 -136.17,-70.2 -189.24,-120.34l64.58 -124.85c50.06,49.14 106.39,87 168.97,113.57 62.58,26.57 123.41,39.86 182.49,39.86 70.08,0 125.41,-13.79 165.96,-41.36 40.55,-27.58 60.82,-64.94 60.82,-112.07 0,-37.1 -11.01,-67.69 -33.04,-91.75 -22.02,-24.07 -49.81,-43.12 -83.35,-57.16 -33.55,-14.04 -78.85,-29.59 -135.92,-46.63 -70.1,-21.06 -127.17,-41.62 -171.22,-61.68 -44.07,-20.05 -81.36,-49.64 -111.91,-88.75 -30.53,-39.11 -45.81,-90.75 -45.81,-154.93 0,-56.16 15.53,-105.8 46.57,-148.92 31.04,-43.12 74.59,-76.21 130.67,-99.27 56.07,-23.07 121.15,-34.6 195.25,-34.6 63.08,0 124.91,9.28 185.49,27.83 60.58,18.55 114.4,43.37 161.45,74.46l-60.07 129.36zm428.95 -219.62l144.19 0 0 1052.95 -144.19 0 0 -1052.95zm1310.59 0l142.69 0 0 1052.95 -145.69 0 -600.77 -815.28 0 815.28 -144.2 0 0 -1052.95 145.69 0 602.28 816.79 0 -816.79zm1324.11 252.71c-40.06,-42.12 -86.62,-74.96 -139.69,-98.53 -53.06,-23.56 -107.64,-35.34 -163.7,-35.34 -74.1,0 -142.19,18.05 -204.27,54.15 -62.08,36.1 -111.15,84.98 -147.19,146.66 -36.05,61.67 -54.07,129.61 -54.07,203.82 0,73.2 18.02,140.89 54.07,203.07 36.04,62.17 85.11,111.31 147.19,147.41 62.08,36.1 130.17,54.15 204.27,54.15 55.06,0 109.13,-11.28 162.2,-33.84 53.07,-22.57 100.13,-53.4 141.19,-92.51l87.11 94.76c-53.07,52.15 -114.65,93.01 -184.75,122.6 -70.08,29.58 -141.17,44.37 -213.27,44.37 -100.13,0 -191.74,-23.82 -274.86,-71.45 -83.1,-47.63 -148.68,-112.57 -196.75,-194.8 -48.06,-82.23 -72.09,-172.98 -72.09,-272.26 0,-98.27 24.28,-188.27 72.84,-270 48.57,-81.73 114.91,-146.16 199.01,-193.29 84.11,-47.14 176.73,-70.7 277.86,-70.7 73.1,0 143.93,13.79 212.53,41.36 68.58,27.58 127.91,66.44 177.98,116.58l-85.61 103.79zm406.41 -252.71l729.95 0 0 130.87 -585.76 0 0 324.91 524.17 0 0 130.86 -524.17 0 0 335.44 603.78 0 0 130.87 -747.97 0 0 -1052.95zm1098.82 0l144.19 0 0 922.08 459.58 0 0 130.87 -603.77 0 0 -1052.95zm905.07 0l729.94 0 0 130.87 -585.75 0 0 324.91 524.17 0 0 130.86 -524.17 0 0 335.44 603.77 0 0 130.87 -747.96 0 0 -1052.95zm1558.41 734.06c0,103.29 -27.54,183.26 -82.61,239.92 -55.07,56.66 -131.67,84.99 -229.8,84.99 -59.07,0 -114.15,-13.04 -165.21,-39.11 -51.06,-26.08 -95.62,-63.18 -133.67,-111.31l70.59 -111.32c33.05,39.11 69.34,68.95 108.89,89.5 39.55,20.56 78.85,30.84 117.9,30.84 54.07,0 95.63,-16.29 124.66,-48.89 29.04,-32.59 43.56,-78.97 43.56,-139.14l0 -597.17 -370.98 0 0 -132.37 516.67 0 0 734.06zm853.99 -743.08c101.13,0 194,23.56 278.61,70.7 84.61,47.13 151.44,111.56 200.51,193.29 49.06,81.73 73.6,171.73 73.6,270 0,98.28 -24.54,188.78 -73.6,271.51 -49.07,82.73 -115.9,147.92 -200.51,195.55 -84.61,47.63 -177.48,71.45 -278.61,71.45 -101.12,0 -193.99,-23.82 -278.6,-71.45 -84.62,-47.63 -151.45,-112.82 -200.51,-195.55 -49.07,-82.73 -73.6,-173.23 -73.6,-271.51 0,-98.27 24.53,-188.27 73.6,-270 49.06,-81.73 115.65,-146.16 199.76,-193.29 84.1,-47.14 177.22,-70.7 279.35,-70.7zm1.5 129.36c-73.09,0 -140.92,18.05 -203.51,54.15 -62.57,36.1 -112.39,84.99 -149.44,146.66 -37.05,61.67 -55.57,129.61 -55.57,203.82 0,74.21 18.52,142.4 55.57,204.57 37.05,62.18 86.87,111.57 149.44,148.17 62.59,36.6 130.42,54.9 203.51,54.9 73.1,0 140.44,-18.3 202.02,-54.9 61.57,-36.6 110.64,-85.99 147.18,-148.17 36.55,-62.17 54.83,-130.36 54.83,-204.57 0,-74.21 -18.28,-142.15 -54.83,-203.82 -36.54,-61.67 -85.61,-110.56 -147.18,-146.66 -61.58,-36.1 -128.92,-54.15 -202.02,-54.15z"/>
  </g>
  <g id="_2629839840000">
   <path class="fil2" d="M15501.31 13969.99c0,2594.98 -2111.34,4706.31 -4706.31,4706.31 -2594.98,0 -4706.31,-2111.33 -4706.31,-4706.31 0,-2594.97 2111.33,-4706.31 4706.31,-4706.31 2594.97,0 4706.31,2111.34 4706.31,4706.31zm-4706.31 -5154c-2841.78,0 -5154,2311.92 -5154,5154 0,2841.78 2312.22,5154 5154,5154 2841.78,0 5154,-2312.22 5154,-5154 0,-2842.08 -2312.22,-5154 -5154,-5154z"/>
   <g>
    <path class="fil2" d="M10402.71 13230.27l-44.77 -2.28 0 3035.23c0,312.4 140.17,603.47 383.54,799.31 170.11,136.09 373.93,213.09 590.93,223.51l44.93 2.28 0 -3034.59c0,-547.95 -428.47,-996.93 -974.63,-1023.46z"/>
    <path class="fil3" d="M9317.38 13567.73c144.07,119.33 326.72,191.12 513.93,201.54l45.42 2.93 0 -1319.75c0,-469.81 -366.93,-858.56 -835.6,-885.58l-45.42 -2.28 0 1319.75c0,265.18 117.21,514.58 321.67,683.39z"/>
    <path class="fil4" d="M10972.32 12441.71c171.74,-167.68 266.48,-392.16 266.48,-632.28l0 -1107.14 -44.76 2.28c-469.33,24.74 -836.26,411.7 -836.26,881.51l0 1107.79 44.77 -2.28c213.74,-11.56 415.77,-99.95 569.77,-249.88z"/>
    <path class="fil5" d="M12343.5 14327.32c144.24,-144.07 223.35,-335.35 223.35,-539.17l0 -1016.63 -45.91 2.93c-398.51,27.03 -711.55,361.24 -711.55,760.89l0 1016.63 45.9 -2.93c183.79,-12.05 357.33,-90.68 488.21,-221.72z"/>
   </g>
  </g>
 </g>
</svg>
