<?xml version="1.0" encoding="UTF-8"?>
<!DOCTYPE svg PUBLIC "-//W3C//DTD SVG 1.1//EN" "http://www.w3.org/Graphics/SVG/1.1/DTD/svg11.dtd">
<!-- Creator: CorelDRAW -->
<svg xmlns="http://www.w3.org/2000/svg" xml:space="preserve" width="215.9mm" height="279.4mm" version="1.1" style="shape-rendering:geometricPrecision; text-rendering:geometricPrecision; image-rendering:optimizeQuality; fill-rule:evenodd; clip-rule:evenodd"
viewBox="0 0 21590 27940"
 xmlns:xlink="http://www.w3.org/1999/xlink"
 xmlns:xodm="http://www.corel.com/coreldraw/odm/2003">
 <defs>
  <style type="text/css">
   <![CDATA[
    .fil0 {fill:black;fill-rule:nonzero}
   ]]>
  </style>
 </defs>
 <g id="Capa_x0020_1">
  <metadata id="CorelCorpID_0Corel-Layer"/>
  <g id="_2629262214592">
   <path class="fil0" d="M15501.31 13970c0,2594.98 -2111.34,4706.31 -4706.31,4706.31 -2594.98,0 -4706.31,-2111.33 -4706.31,-4706.31 0,-2594.97 2111.33,-4706.31 4706.31,-4706.31 2594.97,0 4706.31,2111.34 4706.31,4706.31zm-4706.31 -5154c-2841.78,0 -5154,2311.92 -5154,5154 0,2841.78 2312.22,5154 5154,5154 2841.78,0 5154,-2312.22 5154,-5154 0,-2842.08 -2312.22,-5154 -5154,-5154z"/>
   <g>
    <path class="fil0" d="M10402.71 13230.28l-44.77 -2.28 0 3035.23c0,312.4 140.17,603.47 383.54,799.31 170.11,136.09 373.93,213.09 590.93,223.51l44.93 2.28 0 -3034.59c0,-547.95 -428.47,-996.93 -974.63,-1023.46z"/>
    <path class="fil0" d="M9317.38 13567.74c144.07,119.33 326.72,191.12 513.93,201.54l45.42 2.93 0 -1319.75c0,-469.81 -366.93,-858.56 -835.6,-885.58l-45.42 -2.28 0 1319.75c0,265.18 117.21,514.58 321.67,683.39z"/>
    <path class="fil0" d="M10972.32 12441.72c171.74,-167.68 266.48,-392.16 266.48,-632.28l0 -1107.14 -44.76 2.28c-469.33,24.74 -836.26,411.7 -836.26,881.51l0 1107.79 44.77 -2.28c213.74,-11.56 415.77,-99.95 569.77,-249.88z"/>
    <path class="fil0" d="M12343.5 14327.33c144.24,-144.07 223.35,-335.35 223.35,-539.17l0 -1016.63 -45.91 2.93c-398.51,27.03 -711.55,361.24 -711.55,760.89l0 1016.63 45.9 -2.93c183.79,-12.05 357.33,-90.68 488.21,-221.72z"/>
   </g>
  </g>
 </g>
</svg>
